<svg width="245" height="168" viewBox="0 0 245 168" fill="none" xmlns="http://www.w3.org/2000/svg">
<path d="M140 67.2001C140 85.7569 124.33 100.8 105 100.8C85.6703 100.8 70.0002 85.7569 70.0002 67.2001C70.0002 48.6433 85.6703 33.6 105 33.6C124.33 33.6 140 48.6433 140 67.2001ZM122.5 67.2001C122.5 57.9218 114.665 50.4001 105 50.4001C95.3354 50.4001 87.5003 57.9218 87.5003 67.2001C87.5003 76.4784 95.3354 84.0001 105 84.0001C114.665 84.0001 122.5 76.4784 122.5 67.2001Z" fill="white"/>
<path d="M0 21C0 9.40197 9.79373 0 21.8751 0H188.126C200.208 0 210.001 9.40197 210.001 21V113.4C210.001 124.999 200.208 134.4 188.126 134.4H21.8751C9.79373 134.4 0 124.999 0 113.4V21ZM21.8751 16.8C19.4588 16.8 17.5001 18.6805 17.5001 21V33.6001H26.2501C31.0825 33.6001 35.0001 29.8392 35.0001 25.2001V16.8H21.8751ZM17.5001 113.4C17.5001 115.72 19.4588 117.6 21.8751 117.6H35.0001V109.2C35.0001 104.561 31.0825 100.8 26.2501 100.8H17.5001V113.4ZM52.5002 109.2V117.6H157.5V109.2C157.5 95.2826 169.254 84.0002 183.751 84.0002H192.501V50.4001H183.751C169.254 50.4001 157.5 39.1177 157.5 25.2001V16.8H52.5002V25.2001C52.5002 39.1177 40.7477 50.4001 26.2501 50.4001H17.5001V84.0002H26.2501C40.7477 84.0002 52.5002 95.2826 52.5002 109.2ZM175.001 117.6H188.126C190.542 117.6 192.501 115.72 192.501 113.4V100.8H183.751C178.919 100.8 175.001 104.561 175.001 109.2V117.6ZM192.501 33.6001V21C192.501 18.6805 190.542 16.8 188.126 16.8H175.001V25.2001C175.001 29.8392 178.919 33.6001 183.751 33.6001H192.501Z" fill="white"/>
<path d="M61.2495 168C49.5839 168 39.6957 160.695 36.2776 150.59C38.7057 150.992 41.2021 151.2 43.7494 151.2H188.125C209.87 151.2 227.5 134.276 227.5 113.4V35.0336C237.695 38.493 245 47.8275 245 58.7997V113.4C245 143.554 219.536 168 188.125 168H61.2495Z" fill="white"/>
</svg>
