<svg width="429" height="264" viewBox="0 0 429 264" fill="none" xmlns="http://www.w3.org/2000/svg">
<path d="M127.53 177.946C127.313 181.467 127.154 184.953 127.051 188.405C126.949 191.857 126.897 195.31 126.897 198.762C126.897 199.536 126.897 200.306 126.897 201.069C126.897 201.832 126.909 202.607 126.932 203.393C126.294 203.393 125.627 203.399 124.932 203.41C124.237 203.433 123.599 203.456 123.018 203.479C122.334 203.513 121.668 203.541 121.019 203.564C121.11 202.151 121.184 200.744 121.241 199.343C121.309 197.93 121.36 196.512 121.395 195.087C121.201 195.087 121.007 195.082 120.813 195.07C120.62 195.059 120.42 195.053 120.215 195.053C119.042 195.053 117.817 195.11 116.541 195.224C115.265 195.338 114.029 195.458 112.833 195.583C112.889 196.893 112.952 198.198 113.021 199.497C113.089 200.784 113.174 202.083 113.277 203.393C112.753 203.37 112.251 203.347 111.773 203.325C111.294 203.313 110.816 203.308 110.337 203.308C109.449 203.308 108.554 203.33 107.654 203.376C106.766 203.433 105.803 203.496 104.766 203.564C104.994 201.433 105.165 199.314 105.279 197.207C105.404 195.087 105.467 192.945 105.467 190.781C105.467 188.65 105.404 186.531 105.279 184.423C105.165 182.316 104.994 180.168 104.766 177.98C105.45 177.98 106.099 177.975 106.714 177.963C107.341 177.952 107.973 177.935 108.611 177.912C109.261 177.889 109.944 177.855 110.662 177.81C111.38 177.753 112.183 177.69 113.072 177.622C112.946 179.433 112.85 181.25 112.781 183.073C112.713 184.885 112.679 186.708 112.679 188.542V191.516H113.807C115.049 191.516 116.325 191.493 117.635 191.447C118.945 191.39 120.232 191.311 121.497 191.208C121.497 190.536 121.503 189.864 121.514 189.191C121.526 188.519 121.531 187.847 121.531 187.175C121.531 185.66 121.514 184.15 121.48 182.646C121.457 181.142 121.417 179.632 121.36 178.117C122.01 178.117 122.551 178.117 122.984 178.117C123.417 178.117 123.838 178.111 124.249 178.1C124.67 178.089 125.126 178.072 125.616 178.049C126.117 178.026 126.755 177.992 127.53 177.946ZM137.254 185.158C137.003 187.699 136.832 190.205 136.741 192.678C136.661 195.15 136.622 197.622 136.622 200.095C136.622 200.528 136.622 200.966 136.622 201.411C136.622 201.844 136.633 202.282 136.656 202.727H131.375C131.375 202.02 131.381 201.319 131.392 200.625C131.403 199.93 131.409 199.24 131.409 198.557C131.409 196.289 131.352 194.045 131.238 191.823C131.136 189.602 130.971 187.38 130.743 185.158H137.254ZM137.254 179.621C137.254 180.02 137.157 180.396 136.963 180.749C136.77 181.091 136.502 181.393 136.16 181.655C135.818 181.905 135.42 182.111 134.964 182.27C134.508 182.418 134.024 182.492 133.511 182.492C132.999 182.492 132.52 182.418 132.076 182.27C131.631 182.111 131.244 181.905 130.914 181.655C130.583 181.393 130.321 181.091 130.127 180.749C129.934 180.396 129.837 180.02 129.837 179.621C129.837 179.234 129.934 178.869 130.127 178.527C130.321 178.174 130.583 177.872 130.914 177.622C131.244 177.36 131.631 177.154 132.076 177.006C132.52 176.858 132.999 176.784 133.511 176.784C134.024 176.784 134.508 176.858 134.964 177.006C135.42 177.154 135.818 177.36 136.16 177.622C136.502 177.872 136.77 178.174 136.963 178.527C137.157 178.869 137.254 179.234 137.254 179.621ZM158.411 199.018C158.411 200.021 158.155 200.858 157.642 201.53C157.129 202.191 156.457 202.721 155.625 203.12C154.794 203.53 153.848 203.815 152.789 203.974C151.729 204.145 150.652 204.23 149.559 204.23C148.955 204.23 148.305 204.191 147.61 204.111C146.927 204.042 146.237 203.911 145.542 203.718C144.847 203.535 144.17 203.291 143.509 202.983C142.859 202.664 142.267 202.265 141.731 201.787C141.196 201.308 140.735 200.744 140.347 200.095C139.971 199.445 139.715 198.688 139.578 197.822L146.517 197.753L146.79 200.727H152.105L152.498 197.292C151.792 197.132 150.983 196.996 150.071 196.882C149.16 196.768 148.226 196.631 147.269 196.472C146.312 196.301 145.372 196.084 144.449 195.822C143.526 195.56 142.706 195.201 141.988 194.746C141.27 194.29 140.689 193.715 140.245 193.02C139.8 192.325 139.578 191.464 139.578 190.439C139.578 189.334 139.846 188.405 140.381 187.653C140.917 186.89 141.618 186.28 142.483 185.825C143.361 185.358 144.352 185.016 145.457 184.799C146.562 184.583 147.684 184.458 148.824 184.423C149.428 184.423 150.077 184.458 150.772 184.526C151.478 184.594 152.179 184.72 152.874 184.902C153.569 185.073 154.236 185.312 154.874 185.62C155.523 185.927 156.098 186.32 156.6 186.799C157.112 187.266 157.528 187.836 157.847 188.508C158.178 189.169 158.366 189.949 158.411 190.849L151.695 191.14V187.773H145.918V192.319C146.659 192.478 147.485 192.604 148.396 192.695C149.308 192.775 150.225 192.883 151.148 193.02C152.071 193.156 152.965 193.344 153.831 193.583C154.708 193.823 155.483 194.165 156.155 194.609C156.839 195.053 157.386 195.629 157.796 196.335C158.206 197.041 158.411 197.936 158.411 199.018ZM177.125 189.978C176.019 189.921 174.909 189.869 173.792 189.824C172.687 189.778 171.582 189.738 170.477 189.704C170.34 191.971 170.22 194.233 170.118 196.489C170.015 198.745 169.935 201.018 169.878 203.308L164.888 203.803C164.957 199.633 164.991 195.503 164.991 191.413V189.602H163.76C163.077 189.602 162.393 189.607 161.709 189.619C161.026 189.63 160.342 189.636 159.659 189.636V185.295C159.955 185.295 160.251 185.301 160.547 185.312C160.855 185.323 161.168 185.329 161.487 185.329H164.957C164.957 184.27 164.951 183.227 164.939 182.202C164.928 181.165 164.911 180.128 164.888 179.091H171.365C171.251 180.117 171.149 181.136 171.058 182.15C170.978 183.153 170.904 184.156 170.835 185.158C171.895 185.113 172.938 185.067 173.963 185.021C175 184.965 176.054 184.902 177.125 184.833V189.978ZM191.6 199.462C191.668 198.494 191.714 197.554 191.736 196.643C191.771 195.731 191.788 194.831 191.788 193.942C191.788 193.02 191.771 192.114 191.736 191.225C191.714 190.325 191.668 189.396 191.6 188.439C191.212 188.382 190.825 188.348 190.438 188.337C190.062 188.314 189.68 188.303 189.292 188.303C187.697 188.303 186.159 188.479 184.678 188.833C184.644 189.448 184.61 190.057 184.576 190.661C184.553 191.265 184.542 191.869 184.542 192.473C184.542 193.68 184.587 194.888 184.678 196.096C184.781 197.292 184.929 198.545 185.123 199.855C185.385 199.878 185.647 199.89 185.909 199.89C186.182 199.89 186.461 199.89 186.746 199.89C187.532 199.89 188.33 199.855 189.139 199.787C189.959 199.719 190.779 199.611 191.6 199.462ZM197.94 194.079C197.94 195.435 197.672 196.711 197.137 197.907C196.613 199.092 195.895 200.129 194.983 201.018C194.072 201.906 193.001 202.607 191.771 203.12C190.551 203.644 189.247 203.906 187.857 203.906C186.478 203.906 185.208 203.644 184.046 203.12C182.895 202.607 181.898 201.906 181.055 201.018C180.223 200.129 179.574 199.092 179.107 197.907C178.64 196.711 178.406 195.435 178.406 194.079C178.406 192.404 178.64 190.952 179.107 189.721C179.574 188.491 180.223 187.471 181.055 186.662C181.898 185.853 182.895 185.255 184.046 184.868C185.208 184.469 186.478 184.27 187.857 184.27C189.247 184.27 190.551 184.492 191.771 184.936C193.001 185.38 194.072 186.024 194.983 186.867C195.895 187.71 196.613 188.741 197.137 189.96C197.672 191.168 197.94 192.541 197.94 194.079ZM195.53 177.98L189.361 183.466L187.054 182.868L191.463 176.357L195.53 177.98ZM213.355 194.814C213.378 194.529 213.401 194.25 213.423 193.977C213.446 193.692 213.458 193.407 213.458 193.122C213.458 192.142 213.355 191.174 213.15 190.217C212.09 190.262 211.036 190.336 209.988 190.439C208.951 190.542 207.903 190.678 206.844 190.849V194.25C206.844 195.743 206.844 197.224 206.844 198.693C206.844 200.152 206.855 201.621 206.878 203.103L200.794 203.53C200.828 203.108 200.845 202.692 200.845 202.282C200.857 201.872 200.862 201.456 200.862 201.035C200.862 198.391 200.811 195.777 200.708 193.19C200.617 190.604 200.481 188.007 200.298 185.397L206.878 184.833C206.878 185.153 206.872 185.472 206.861 185.791C206.849 186.098 206.844 186.411 206.844 186.73C207.505 186.252 208.165 185.887 208.826 185.637C209.498 185.386 210.108 185.198 210.655 185.073C211.281 184.936 211.891 184.856 212.483 184.833C213.828 184.902 215.03 185.209 216.089 185.756C216.534 185.984 216.972 186.28 217.405 186.645C217.838 186.998 218.226 187.437 218.567 187.961C218.909 188.474 219.183 189.083 219.388 189.79C219.593 190.485 219.695 191.293 219.695 192.216C219.695 192.535 219.678 192.871 219.644 193.225C219.61 193.566 219.564 193.931 219.507 194.318L213.355 194.814ZM228.069 185.158C227.819 187.699 227.648 190.205 227.557 192.678C227.477 195.15 227.437 197.622 227.437 200.095C227.437 200.528 227.437 200.966 227.437 201.411C227.437 201.844 227.448 202.282 227.471 202.727H222.19C222.19 202.02 222.196 201.319 222.208 200.625C222.219 199.93 222.225 199.24 222.225 198.557C222.225 196.289 222.168 194.045 222.054 191.823C221.951 189.602 221.786 187.38 221.558 185.158H228.069ZM228.069 179.621C228.069 180.02 227.972 180.396 227.779 180.749C227.585 181.091 227.317 181.393 226.976 181.655C226.634 181.905 226.235 182.111 225.779 182.27C225.324 182.418 224.839 182.492 224.327 182.492C223.814 182.492 223.335 182.418 222.891 182.27C222.447 182.111 222.059 181.905 221.729 181.655C221.399 181.393 221.137 181.091 220.943 180.749C220.749 180.396 220.652 180.02 220.652 179.621C220.652 179.234 220.749 178.869 220.943 178.527C221.137 178.174 221.399 177.872 221.729 177.622C222.059 177.36 222.447 177.154 222.891 177.006C223.335 176.858 223.814 176.784 224.327 176.784C224.839 176.784 225.324 176.858 225.779 177.006C226.235 177.154 226.634 177.36 226.976 177.622C227.317 177.872 227.585 178.174 227.779 178.527C227.972 178.869 228.069 179.234 228.069 179.621ZM242.92 191.652C242.977 191.379 243.017 191.105 243.04 190.832C243.063 190.547 243.074 190.262 243.074 189.978C243.074 189.715 243.063 189.459 243.04 189.208C243.017 188.958 242.977 188.701 242.92 188.439C242.431 188.348 241.935 188.286 241.434 188.251C240.932 188.217 240.414 188.2 239.878 188.2C239.354 188.2 238.825 188.217 238.289 188.251C237.754 188.286 237.212 188.348 236.666 188.439C236.609 189.055 236.563 189.659 236.529 190.251C236.506 190.843 236.495 191.442 236.495 192.045C236.495 193.435 236.563 194.814 236.7 196.181C236.848 197.537 237.047 198.898 237.298 200.266C237.811 200.323 238.3 200.362 238.768 200.385C239.246 200.397 239.736 200.402 240.237 200.402C240.727 200.402 241.211 200.397 241.69 200.385C242.168 200.362 242.664 200.323 243.177 200.266C243.2 200.026 243.217 199.793 243.228 199.565C243.239 199.337 243.245 199.115 243.245 198.898C243.245 198.693 243.239 198.488 243.228 198.283C243.217 198.078 243.2 197.879 243.177 197.685L249.62 197.822C249.301 198.904 248.839 199.833 248.235 200.607C247.643 201.382 246.937 202.02 246.116 202.521C245.307 203.011 244.402 203.37 243.399 203.598C242.396 203.826 241.342 203.94 240.237 203.94C238.882 203.94 237.605 203.758 236.409 203.393C235.224 203.028 234.188 202.442 233.299 201.633C232.422 200.812 231.727 199.747 231.214 198.437C230.713 197.127 230.462 195.52 230.462 193.618C230.462 192.08 230.73 190.758 231.265 189.653C231.801 188.548 232.513 187.636 233.401 186.918C234.301 186.201 235.338 185.677 236.512 185.346C237.697 185.004 238.938 184.833 240.237 184.833C241.388 184.833 242.482 184.97 243.519 185.244C244.555 185.506 245.49 185.916 246.321 186.474C247.164 187.021 247.882 187.727 248.475 188.593C249.067 189.448 249.494 190.467 249.756 191.652H242.92ZM264.471 199.462C264.539 198.494 264.585 197.554 264.607 196.643C264.642 195.731 264.659 194.831 264.659 193.942C264.659 193.02 264.642 192.114 264.607 191.225C264.585 190.325 264.539 189.396 264.471 188.439C264.083 188.382 263.696 188.348 263.309 188.337C262.933 188.314 262.551 188.303 262.164 188.303C260.569 188.303 259.03 188.479 257.549 188.833C257.515 189.448 257.481 190.057 257.447 190.661C257.424 191.265 257.413 191.869 257.413 192.473C257.413 193.68 257.458 194.888 257.549 196.096C257.652 197.292 257.8 198.545 257.994 199.855C258.256 199.878 258.518 199.89 258.78 199.89C259.053 199.89 259.332 199.89 259.617 199.89C260.403 199.89 261.201 199.855 262.01 199.787C262.83 199.719 263.65 199.611 264.471 199.462ZM270.811 194.079C270.811 195.435 270.543 196.711 270.008 197.907C269.484 199.092 268.766 200.129 267.854 201.018C266.943 201.906 265.872 202.607 264.642 203.12C263.423 203.644 262.118 203.906 260.728 203.906C259.349 203.906 258.079 203.644 256.917 203.12C255.766 202.607 254.769 201.906 253.926 201.018C253.095 200.129 252.445 199.092 251.978 197.907C251.511 196.711 251.277 195.435 251.277 194.079C251.277 192.404 251.511 190.952 251.978 189.721C252.445 188.491 253.095 187.471 253.926 186.662C254.769 185.853 255.766 185.255 256.917 184.868C258.079 184.469 259.349 184.27 260.728 184.27C262.118 184.27 263.423 184.492 264.642 184.936C265.872 185.38 266.943 186.024 267.854 186.867C268.766 187.71 269.484 188.741 270.008 189.96C270.543 191.168 270.811 192.541 270.811 194.079ZM303.606 178.288C303.344 182.367 303.156 186.503 303.042 190.695C302.929 194.877 302.872 199.035 302.872 203.171H297.181L297.283 201.257C296.736 201.781 296.132 202.185 295.472 202.47C294.811 202.755 294.184 202.96 293.592 203.085C292.897 203.234 292.202 203.319 291.507 203.342C290.208 203.342 289.035 203.108 287.986 202.641C286.95 202.174 286.067 201.519 285.337 200.676C284.62 199.833 284.067 198.819 283.68 197.634C283.292 196.449 283.099 195.144 283.099 193.72C283.099 192.775 283.213 191.897 283.44 191.088C283.668 190.279 283.982 189.545 284.38 188.884C284.779 188.223 285.246 187.642 285.782 187.141C286.317 186.639 286.887 186.218 287.491 185.876C288.095 185.534 288.721 185.278 289.371 185.107C290.02 184.925 290.664 184.833 291.302 184.833C292.088 184.856 292.857 184.959 293.609 185.141C293.928 185.221 294.258 185.323 294.6 185.449C294.942 185.563 295.278 185.705 295.608 185.876C295.95 186.047 296.275 186.246 296.583 186.474C296.902 186.702 297.192 186.97 297.454 187.277C297.42 185.694 297.38 184.127 297.334 182.578C297.289 181.017 297.238 179.462 297.181 177.912L303.606 178.288ZM295.215 198.864C295.534 198.864 295.87 198.864 296.224 198.864C296.588 198.864 296.964 198.853 297.352 198.83C297.409 197.657 297.443 196.477 297.454 195.292C297.477 194.096 297.488 192.894 297.488 191.687V189.602C296.634 189.51 295.842 189.436 295.113 189.379C294.395 189.311 293.626 189.277 292.806 189.277C292.373 189.277 291.923 189.288 291.456 189.311C291 189.322 290.493 189.345 289.935 189.379C289.786 190.405 289.678 191.424 289.61 192.438C289.542 193.452 289.507 194.478 289.507 195.515C289.507 196.027 289.507 196.534 289.507 197.036C289.519 197.537 289.553 198.044 289.61 198.557C290.18 198.614 290.704 198.659 291.182 198.693C291.672 198.728 292.139 198.762 292.583 198.796C293.039 198.819 293.478 198.836 293.899 198.847C294.332 198.859 294.771 198.864 295.215 198.864ZM325.396 194.985L312.032 196.062C312.089 196.768 312.168 197.469 312.271 198.164C312.374 198.859 312.505 199.559 312.664 200.266C313.667 200.334 314.635 200.368 315.569 200.368C316.082 200.368 316.578 200.362 317.056 200.351C317.535 200.328 318.03 200.3 318.543 200.266C318.566 200.038 318.583 199.81 318.594 199.582C318.606 199.354 318.611 199.126 318.611 198.898C318.611 198.693 318.606 198.494 318.594 198.3C318.594 198.095 318.577 197.89 318.543 197.685L324.986 197.822C324.667 198.904 324.205 199.833 323.602 200.607C323.009 201.382 322.303 202.02 321.482 202.521C320.674 203.011 319.768 203.37 318.765 203.598C317.763 203.826 316.709 203.94 315.604 203.94C314.248 203.94 312.972 203.758 311.775 203.393C310.59 203.028 309.554 202.442 308.665 201.633C307.788 200.812 307.093 199.747 306.58 198.437C306.079 197.127 305.828 195.52 305.828 193.618C305.828 192.08 306.096 190.758 306.631 189.653C307.167 188.548 307.879 187.636 308.768 186.918C309.668 186.201 310.704 185.677 311.878 185.346C313.063 185.004 314.305 184.833 315.604 184.833C316.959 184.833 318.23 185.016 319.415 185.38C320.611 185.745 321.648 186.315 322.525 187.089C323.414 187.864 324.114 188.855 324.627 190.063C325.14 191.271 325.396 192.712 325.396 194.387V194.985ZM311.861 192.473H318.714C318.714 191.06 318.571 189.715 318.287 188.439C317.307 188.234 316.281 188.132 315.21 188.132C314.162 188.132 313.103 188.234 312.032 188.439C311.963 189.077 311.918 189.727 311.895 190.388C311.872 191.037 311.861 191.732 311.861 192.473ZM96.7681 253.564C96.7681 253.234 96.7624 252.903 96.751 252.573C96.7396 252.231 96.7339 251.895 96.7339 251.564C96.13 252.111 95.4977 252.527 94.8369 252.812C94.1875 253.085 93.5894 253.291 93.0425 253.427C92.4045 253.587 91.7721 253.678 91.1455 253.701C90.0062 253.701 88.9067 253.524 87.8472 253.171C86.799 252.829 85.8647 252.311 85.0444 251.616C84.2241 250.921 83.5576 250.055 83.0449 249.018C82.5436 247.97 82.2645 246.757 82.2075 245.378C82.2075 243.988 82.3955 242.723 82.7715 241.584C83.1475 240.433 83.7114 239.448 84.4634 238.627C85.2153 237.807 86.1496 237.175 87.2661 236.73C88.3826 236.275 89.6758 236.041 91.1455 236.03C91.1911 236.03 91.362 236.041 91.6582 236.064C91.9658 236.075 92.3418 236.127 92.7861 236.218C93.2305 236.298 93.7147 236.434 94.2388 236.628C94.7629 236.81 95.2812 237.067 95.7939 237.397L95.5205 235.295L102.271 234.833C102.134 238.103 102.066 241.356 102.066 244.592C102.066 245.378 102.066 246.124 102.066 246.831C102.077 247.526 102.089 248.221 102.1 248.916C102.123 249.599 102.146 250.294 102.168 251C102.203 251.695 102.237 252.43 102.271 253.205L96.7681 253.564ZM88.7871 249.428C90.1429 249.371 91.4759 249.28 92.7861 249.155C94.0964 249.029 95.3895 248.841 96.6655 248.591C96.6313 247.178 96.5687 245.811 96.4775 244.489C96.3978 243.168 96.2839 241.818 96.1357 240.439H95.1616C94.0565 240.439 92.9456 240.479 91.8291 240.559C90.724 240.627 89.6074 240.747 88.4795 240.917C88.3428 242.114 88.2744 243.316 88.2744 244.523C88.2744 244.979 88.2858 245.406 88.3086 245.805C88.3314 246.193 88.3599 246.58 88.394 246.967C88.4396 247.355 88.4909 247.748 88.5479 248.146C88.6162 248.545 88.696 248.972 88.7871 249.428ZM124.505 234.833C124.334 238.331 124.197 241.328 124.095 243.823C124.004 246.318 123.935 248.363 123.89 249.958C123.833 251.838 123.793 253.387 123.77 254.606C123.713 256.053 123.394 257.301 122.813 258.349C122.243 259.397 121.497 260.269 120.574 260.964C119.663 261.659 118.62 262.189 117.447 262.553C116.285 262.918 115.077 263.14 113.824 263.22C112.559 263.22 111.403 263.066 110.354 262.758C109.318 262.451 108.412 262.018 107.637 261.459C106.874 260.901 106.247 260.24 105.757 259.477C105.279 258.714 104.971 257.871 104.834 256.948L111.773 256.469C111.659 256.765 111.585 257.067 111.551 257.375C111.528 257.683 111.517 257.996 111.517 258.315C111.517 258.6 111.528 258.89 111.551 259.187C111.585 259.483 111.659 259.779 111.773 260.075C111.932 260.098 112.092 260.109 112.251 260.109C112.411 260.109 112.576 260.109 112.747 260.109C114.376 260.109 115.988 259.933 117.583 259.58C117.686 258.304 117.771 257.033 117.84 255.769C117.908 254.515 117.971 253.256 118.028 251.992C117.481 252.333 116.923 252.596 116.353 252.778C115.783 252.949 115.259 253.08 114.781 253.171C114.222 253.273 113.676 253.33 113.14 253.342C112.502 253.342 111.858 253.251 111.209 253.068C110.56 252.897 109.933 252.641 109.329 252.299C108.725 251.958 108.156 251.536 107.62 251.035C107.085 250.533 106.618 249.952 106.219 249.292C105.82 248.631 105.507 247.902 105.279 247.104C105.051 246.295 104.937 245.412 104.937 244.455C104.937 243.031 105.125 241.732 105.501 240.559C105.888 239.374 106.441 238.36 107.159 237.517C107.876 236.662 108.754 236.001 109.791 235.534C110.827 235.067 112.001 234.833 113.311 234.833C113.847 234.845 114.393 234.902 114.952 235.004C115.43 235.096 115.954 235.238 116.524 235.432C117.094 235.614 117.64 235.882 118.165 236.235C118.165 235.939 118.159 235.637 118.147 235.329C118.136 235.021 118.13 234.72 118.13 234.423L124.505 234.833ZM118.25 242.541C118.25 242.006 118.244 241.476 118.233 240.952C118.233 240.416 118.222 239.881 118.199 239.345C117.994 239.322 117.789 239.311 117.583 239.311C117.378 239.311 117.179 239.311 116.985 239.311C116.552 239.311 116.125 239.317 115.704 239.328C115.282 239.34 114.849 239.362 114.405 239.396C113.96 239.419 113.493 239.453 113.003 239.499C112.514 239.533 111.984 239.579 111.414 239.636C111.38 240.16 111.351 240.673 111.329 241.174C111.317 241.664 111.312 242.165 111.312 242.678C111.312 243.715 111.351 244.74 111.431 245.754C111.511 246.757 111.625 247.771 111.773 248.796C112.32 248.83 112.821 248.859 113.277 248.881C113.733 248.893 114.177 248.898 114.61 248.898C115.236 248.898 115.829 248.887 116.387 248.864C116.945 248.841 117.538 248.796 118.165 248.728C118.187 247.691 118.204 246.66 118.216 245.634C118.239 244.609 118.25 243.578 118.25 242.541ZM146.482 244.985L133.118 246.062C133.175 246.768 133.255 247.469 133.357 248.164C133.46 248.859 133.591 249.559 133.75 250.266C134.753 250.334 135.722 250.368 136.656 250.368C137.168 250.368 137.664 250.362 138.143 250.351C138.621 250.328 139.117 250.3 139.629 250.266C139.652 250.038 139.669 249.81 139.681 249.582C139.692 249.354 139.698 249.126 139.698 248.898C139.698 248.693 139.692 248.494 139.681 248.3C139.681 248.095 139.664 247.89 139.629 247.685L146.072 247.822C145.753 248.904 145.292 249.833 144.688 250.607C144.096 251.382 143.389 252.02 142.569 252.521C141.76 253.011 140.854 253.37 139.852 253.598C138.849 253.826 137.795 253.94 136.69 253.94C135.334 253.94 134.058 253.758 132.862 253.393C131.677 253.028 130.64 252.442 129.751 251.633C128.874 250.812 128.179 249.747 127.667 248.437C127.165 247.127 126.915 245.52 126.915 243.618C126.915 242.08 127.182 240.758 127.718 239.653C128.253 238.548 128.965 237.636 129.854 236.918C130.754 236.201 131.791 235.677 132.964 235.346C134.149 235.004 135.391 234.833 136.69 234.833C138.046 234.833 139.316 235.016 140.501 235.38C141.697 235.745 142.734 236.315 143.611 237.089C144.5 237.864 145.201 238.855 145.713 240.063C146.226 241.271 146.482 242.712 146.482 244.387V244.985ZM132.947 242.473H139.8C139.8 241.06 139.658 239.715 139.373 238.439C138.393 238.234 137.368 238.132 136.297 238.132C135.249 238.132 134.189 238.234 133.118 238.439C133.05 239.077 133.004 239.727 132.981 240.388C132.959 241.037 132.947 241.732 132.947 242.473ZM167.366 244.079C167.366 245.594 167.286 247.138 167.127 248.71C166.967 250.283 166.694 251.855 166.307 253.427H160.359C160.507 251.73 160.621 250.055 160.701 248.403C160.781 246.739 160.821 245.065 160.821 243.378C160.821 242.809 160.821 242.245 160.821 241.687C160.821 241.117 160.809 240.547 160.787 239.978C160.274 239.921 159.767 239.886 159.266 239.875C158.764 239.852 158.257 239.841 157.745 239.841C156.776 239.841 155.779 239.875 154.754 239.943C154.72 240.878 154.691 241.743 154.668 242.541C154.657 243.339 154.651 244.13 154.651 244.917C154.651 245.498 154.657 246.09 154.668 246.694C154.68 247.286 154.697 247.924 154.72 248.608C154.754 249.292 154.794 250.032 154.839 250.83C154.885 251.616 154.942 252.482 155.01 253.427H149.268C149.268 252.06 149.262 250.852 149.251 249.804C149.24 248.756 149.222 247.793 149.2 246.916C149.177 246.027 149.143 245.184 149.097 244.387C149.063 243.578 149.017 242.735 148.96 241.857C148.903 240.969 148.841 240.006 148.772 238.969C148.704 237.921 148.624 236.719 148.533 235.363L155.01 234.97L154.874 237.397C155.523 236.941 156.189 236.588 156.873 236.337C157.557 236.087 158.183 235.899 158.753 235.773C159.414 235.637 160.057 235.557 160.684 235.534C161.516 235.534 162.256 235.648 162.906 235.876C163.567 236.104 164.142 236.423 164.632 236.833C165.133 237.232 165.555 237.705 165.896 238.251C166.238 238.798 166.517 239.391 166.734 240.029C166.962 240.655 167.121 241.316 167.212 242.011C167.315 242.706 167.366 243.396 167.366 244.079ZM190.181 228.288C189.919 232.367 189.731 236.503 189.617 240.695C189.503 244.877 189.446 249.035 189.446 253.171H183.755L183.858 251.257C183.311 251.781 182.707 252.185 182.046 252.47C181.386 252.755 180.759 252.96 180.167 253.085C179.472 253.234 178.777 253.319 178.082 253.342C176.783 253.342 175.609 253.108 174.561 252.641C173.524 252.174 172.641 251.519 171.912 250.676C171.194 249.833 170.642 248.819 170.254 247.634C169.867 246.449 169.673 245.144 169.673 243.72C169.673 242.775 169.787 241.897 170.015 241.088C170.243 240.279 170.556 239.545 170.955 238.884C171.354 238.223 171.821 237.642 172.356 237.141C172.892 236.639 173.462 236.218 174.065 235.876C174.669 235.534 175.296 235.278 175.945 235.107C176.595 234.925 177.238 234.833 177.876 234.833C178.663 234.856 179.432 234.959 180.184 235.141C180.503 235.221 180.833 235.323 181.175 235.449C181.517 235.563 181.853 235.705 182.183 235.876C182.525 236.047 182.85 236.246 183.157 236.474C183.476 236.702 183.767 236.97 184.029 237.277C183.995 235.694 183.955 234.127 183.909 232.578C183.864 231.017 183.812 229.462 183.755 227.912L190.181 228.288ZM181.79 248.864C182.109 248.864 182.445 248.864 182.798 248.864C183.163 248.864 183.539 248.853 183.926 248.83C183.983 247.657 184.017 246.477 184.029 245.292C184.052 244.096 184.063 242.894 184.063 241.687V239.602C183.208 239.51 182.417 239.436 181.688 239.379C180.97 239.311 180.201 239.277 179.38 239.277C178.947 239.277 178.497 239.288 178.03 239.311C177.575 239.322 177.068 239.345 176.509 239.379C176.361 240.405 176.253 241.424 176.185 242.438C176.116 243.452 176.082 244.478 176.082 245.515C176.082 246.027 176.082 246.534 176.082 247.036C176.093 247.537 176.128 248.044 176.185 248.557C176.754 248.614 177.278 248.659 177.757 248.693C178.247 248.728 178.714 248.762 179.158 248.796C179.614 248.819 180.053 248.836 180.474 248.847C180.907 248.859 181.346 248.864 181.79 248.864ZM206.963 253.564C206.963 253.234 206.958 252.903 206.946 252.573C206.935 252.231 206.929 251.895 206.929 251.564C206.325 252.111 205.693 252.527 205.032 252.812C204.383 253.085 203.785 253.291 203.238 253.427C202.6 253.587 201.967 253.678 201.341 253.701C200.201 253.701 199.102 253.524 198.042 253.171C196.994 252.829 196.06 252.311 195.24 251.616C194.419 250.921 193.753 250.055 193.24 249.018C192.739 247.97 192.46 246.757 192.403 245.378C192.403 243.988 192.591 242.723 192.967 241.584C193.343 240.433 193.907 239.448 194.659 238.627C195.411 237.807 196.345 237.175 197.461 236.73C198.578 236.275 199.871 236.041 201.341 236.03C201.386 236.03 201.557 236.041 201.854 236.064C202.161 236.075 202.537 236.127 202.981 236.218C203.426 236.298 203.91 236.434 204.434 236.628C204.958 236.81 205.477 237.067 205.989 237.397L205.716 235.295L212.466 234.833C212.33 238.103 212.261 241.356 212.261 244.592C212.261 245.378 212.261 246.124 212.261 246.831C212.273 247.526 212.284 248.221 212.295 248.916C212.318 249.599 212.341 250.294 212.364 251C212.398 251.695 212.432 252.43 212.466 253.205L206.963 253.564ZM198.982 249.428C200.338 249.371 201.671 249.28 202.981 249.155C204.292 249.029 205.585 248.841 206.861 248.591C206.827 247.178 206.764 245.811 206.673 244.489C206.593 243.168 206.479 241.818 206.331 240.439H205.357C204.252 240.439 203.141 240.479 202.024 240.559C200.919 240.627 199.803 240.747 198.675 240.917C198.538 242.114 198.47 243.316 198.47 244.523C198.47 244.979 198.481 245.406 198.504 245.805C198.527 246.193 198.555 246.58 198.589 246.967C198.635 247.355 198.686 247.748 198.743 248.146C198.812 248.545 198.891 248.972 198.982 249.428ZM233.23 244.523C233.23 245.97 233.145 247.44 232.974 248.933C232.803 250.425 232.541 251.923 232.188 253.427H226.241C226.377 251.821 226.486 250.226 226.565 248.642C226.645 247.058 226.685 245.463 226.685 243.857C226.685 243.31 226.685 242.769 226.685 242.233C226.685 241.698 226.674 241.168 226.651 240.644C226.138 240.587 225.631 240.553 225.13 240.542C224.64 240.519 224.133 240.507 223.609 240.507C223.313 240.507 223.011 240.513 222.703 240.524C222.407 240.536 222.099 240.542 221.78 240.542C221.746 241.35 221.723 242.108 221.712 242.814C221.712 243.509 221.712 244.21 221.712 244.917C221.712 245.498 221.718 246.09 221.729 246.694C221.74 247.286 221.757 247.924 221.78 248.608C221.814 249.292 221.854 250.032 221.9 250.83C221.945 251.616 222.002 252.482 222.071 253.427H216.329C216.329 252.06 216.323 250.852 216.312 249.804C216.3 248.756 216.283 247.793 216.26 246.916C216.237 246.027 216.203 245.184 216.158 244.387C216.124 243.578 216.078 242.735 216.021 241.857C215.964 240.969 215.901 240.006 215.833 238.969C215.765 237.921 215.685 236.719 215.594 235.363L222.071 234.97L221.934 237.5C222.504 237.226 223.062 237.015 223.609 236.867C224.156 236.719 224.646 236.611 225.079 236.542C225.58 236.463 226.058 236.417 226.514 236.406C227.391 236.406 228.172 236.531 228.855 236.782C229.539 237.021 230.137 237.351 230.65 237.773C231.311 237.203 232.006 236.77 232.735 236.474C233.475 236.167 234.159 235.939 234.786 235.791C235.515 235.62 236.233 235.523 236.939 235.5C237.782 235.5 238.528 235.614 239.178 235.842C239.839 236.07 240.42 236.389 240.921 236.799C241.422 237.198 241.844 237.676 242.186 238.234C242.539 238.781 242.824 239.374 243.04 240.012C243.257 240.638 243.41 241.299 243.501 241.994C243.604 242.689 243.655 243.384 243.655 244.079C243.655 245.594 243.57 247.132 243.399 248.693C243.239 250.254 242.977 251.832 242.613 253.427H236.666C236.802 251.73 236.91 250.049 236.99 248.386C237.07 246.711 237.11 245.03 237.11 243.344C237.11 242.775 237.11 242.211 237.11 241.652C237.11 241.083 237.098 240.513 237.076 239.943C236.563 239.886 236.056 239.852 235.555 239.841C235.053 239.818 234.535 239.807 234 239.807C233.703 239.807 233.413 239.812 233.128 239.824C232.843 239.835 232.553 239.841 232.256 239.841C232.61 240.547 232.86 241.305 233.008 242.114C233.156 242.911 233.23 243.715 233.23 244.523ZM265.53 244.985L252.166 246.062C252.223 246.768 252.303 247.469 252.405 248.164C252.508 248.859 252.639 249.559 252.798 250.266C253.801 250.334 254.769 250.368 255.704 250.368C256.216 250.368 256.712 250.362 257.19 250.351C257.669 250.328 258.165 250.3 258.677 250.266C258.7 250.038 258.717 249.81 258.729 249.582C258.74 249.354 258.746 249.126 258.746 248.898C258.746 248.693 258.74 248.494 258.729 248.3C258.729 248.095 258.711 247.89 258.677 247.685L265.12 247.822C264.801 248.904 264.34 249.833 263.736 250.607C263.143 251.382 262.437 252.02 261.617 252.521C260.808 253.011 259.902 253.37 258.899 253.598C257.897 253.826 256.843 253.94 255.738 253.94C254.382 253.94 253.106 253.758 251.91 253.393C250.725 253.028 249.688 252.442 248.799 251.633C247.922 250.812 247.227 249.747 246.714 248.437C246.213 247.127 245.962 245.52 245.962 243.618C245.962 242.08 246.23 240.758 246.766 239.653C247.301 238.548 248.013 237.636 248.902 236.918C249.802 236.201 250.839 235.677 252.012 235.346C253.197 235.004 254.439 234.833 255.738 234.833C257.094 234.833 258.364 235.016 259.549 235.38C260.745 235.745 261.782 236.315 262.659 237.089C263.548 237.864 264.249 238.855 264.761 240.063C265.274 241.271 265.53 242.712 265.53 244.387V244.985ZM251.995 242.473H258.848C258.848 241.06 258.706 239.715 258.421 238.439C257.441 238.234 256.416 238.132 255.345 238.132C254.297 238.132 253.237 238.234 252.166 238.439C252.098 239.077 252.052 239.727 252.029 240.388C252.007 241.037 251.995 241.732 251.995 242.473ZM286.414 244.079C286.414 245.594 286.334 247.138 286.175 248.71C286.015 250.283 285.742 251.855 285.354 253.427H279.407C279.555 251.73 279.669 250.055 279.749 248.403C279.829 246.739 279.869 245.065 279.869 243.378C279.869 242.809 279.869 242.245 279.869 241.687C279.869 241.117 279.857 240.547 279.834 239.978C279.322 239.921 278.815 239.886 278.313 239.875C277.812 239.852 277.305 239.841 276.792 239.841C275.824 239.841 274.827 239.875 273.802 239.943C273.768 240.878 273.739 241.743 273.716 242.541C273.705 243.339 273.699 244.13 273.699 244.917C273.699 245.498 273.705 246.09 273.716 246.694C273.728 247.286 273.745 247.924 273.768 248.608C273.802 249.292 273.842 250.032 273.887 250.83C273.933 251.616 273.99 252.482 274.058 253.427H268.316C268.316 252.06 268.31 250.852 268.299 249.804C268.287 248.756 268.27 247.793 268.248 246.916C268.225 246.027 268.191 245.184 268.145 244.387C268.111 243.578 268.065 242.735 268.008 241.857C267.951 240.969 267.889 240.006 267.82 238.969C267.752 237.921 267.672 236.719 267.581 235.363L274.058 234.97L273.921 237.397C274.571 236.941 275.237 236.588 275.921 236.337C276.604 236.087 277.231 235.899 277.801 235.773C278.462 235.637 279.105 235.557 279.732 235.534C280.564 235.534 281.304 235.648 281.954 235.876C282.614 236.104 283.19 236.423 283.68 236.833C284.181 237.232 284.603 237.705 284.944 238.251C285.286 238.798 285.565 239.391 285.782 240.029C286.01 240.655 286.169 241.316 286.26 242.011C286.363 242.706 286.414 243.396 286.414 244.079ZM305.452 239.978C304.347 239.921 303.236 239.869 302.12 239.824C301.014 239.778 299.909 239.738 298.804 239.704C298.667 241.971 298.548 244.233 298.445 246.489C298.343 248.745 298.263 251.018 298.206 253.308L293.216 253.803C293.284 249.633 293.318 245.503 293.318 241.413V239.602H292.088C291.404 239.602 290.721 239.607 290.037 239.619C289.354 239.63 288.67 239.636 287.986 239.636V235.295C288.283 235.295 288.579 235.301 288.875 235.312C289.183 235.323 289.496 235.329 289.815 235.329H293.284C293.284 234.27 293.278 233.227 293.267 232.202C293.256 231.165 293.239 230.128 293.216 229.091H299.693C299.579 230.117 299.476 231.136 299.385 232.15C299.306 233.153 299.231 234.156 299.163 235.158C300.223 235.113 301.265 235.067 302.291 235.021C303.327 234.965 304.381 234.902 305.452 234.833V239.978ZM319.927 249.462C319.996 248.494 320.041 247.554 320.064 246.643C320.098 245.731 320.115 244.831 320.115 243.942C320.115 243.02 320.098 242.114 320.064 241.225C320.041 240.325 319.996 239.396 319.927 238.439C319.54 238.382 319.153 238.348 318.765 238.337C318.389 238.314 318.007 238.303 317.62 238.303C316.025 238.303 314.487 238.479 313.006 238.833C312.972 239.448 312.938 240.057 312.903 240.661C312.881 241.265 312.869 241.869 312.869 242.473C312.869 243.68 312.915 244.888 313.006 246.096C313.108 247.292 313.257 248.545 313.45 249.855C313.712 249.878 313.974 249.89 314.236 249.89C314.51 249.89 314.789 249.89 315.074 249.89C315.86 249.89 316.657 249.855 317.466 249.787C318.287 249.719 319.107 249.611 319.927 249.462ZM326.268 244.079C326.268 245.435 326 246.711 325.464 247.907C324.94 249.092 324.222 250.129 323.311 251.018C322.4 251.906 321.329 252.607 320.098 253.12C318.879 253.644 317.575 253.906 316.185 253.906C314.806 253.906 313.536 253.644 312.374 253.12C311.223 252.607 310.226 251.906 309.383 251.018C308.551 250.129 307.902 249.092 307.435 247.907C306.967 246.711 306.734 245.435 306.734 244.079C306.734 242.404 306.967 240.952 307.435 239.721C307.902 238.491 308.551 237.471 309.383 236.662C310.226 235.853 311.223 235.255 312.374 234.868C313.536 234.469 314.806 234.27 316.185 234.27C317.575 234.27 318.879 234.492 320.098 234.936C321.329 235.38 322.4 236.024 323.311 236.867C324.222 237.71 324.94 238.741 325.464 239.96C326 241.168 326.268 242.541 326.268 244.079ZM346.827 249.018C346.827 250.021 346.57 250.858 346.058 251.53C345.545 252.191 344.873 252.721 344.041 253.12C343.209 253.53 342.264 253.815 341.204 253.974C340.145 254.145 339.068 254.23 337.974 254.23C337.37 254.23 336.721 254.191 336.026 254.111C335.342 254.042 334.653 253.911 333.958 253.718C333.263 253.535 332.585 253.291 331.924 252.983C331.275 252.664 330.682 252.265 330.147 251.787C329.611 251.308 329.15 250.744 328.763 250.095C328.387 249.445 328.13 248.688 327.994 247.822L334.932 247.753L335.206 250.727H340.521L340.914 247.292C340.207 247.132 339.398 246.996 338.487 246.882C337.575 246.768 336.641 246.631 335.684 246.472C334.727 246.301 333.787 246.084 332.864 245.822C331.941 245.56 331.121 245.201 330.403 244.746C329.686 244.29 329.104 243.715 328.66 243.02C328.216 242.325 327.994 241.464 327.994 240.439C327.994 239.334 328.261 238.405 328.797 237.653C329.332 236.89 330.033 236.28 330.899 235.825C331.776 235.358 332.767 235.016 333.873 234.799C334.978 234.583 336.1 234.458 337.239 234.423C337.843 234.423 338.493 234.458 339.188 234.526C339.894 234.594 340.595 234.72 341.29 234.902C341.985 235.073 342.651 235.312 343.289 235.62C343.938 235.927 344.514 236.32 345.015 236.799C345.528 237.266 345.944 237.836 346.263 238.508C346.593 239.169 346.781 239.949 346.827 240.849L340.11 241.14V237.773H334.334V242.319C335.075 242.478 335.901 242.604 336.812 242.695C337.723 242.775 338.641 242.883 339.563 243.02C340.486 243.156 341.381 243.344 342.247 243.583C343.124 243.823 343.899 244.165 344.571 244.609C345.254 245.053 345.801 245.629 346.211 246.335C346.622 247.041 346.827 247.936 346.827 249.018Z" fill="black"/>
<path d="M106.088 26.0341C112.508 26.0341 117.713 20.2062 117.713 13.0171C117.713 5.82794 112.508 0 106.088 0C99.6685 0 94.4641 5.82794 94.4641 13.0171C94.4641 20.2062 99.6685 26.0341 106.088 26.0341Z" fill="black"/>
<path d="M106.088 91.1195C112.508 91.1195 117.713 85.2915 117.713 78.1024C117.713 70.9133 112.508 65.0853 106.088 65.0853C99.6685 65.0853 94.4641 70.9133 94.4641 78.1024C94.4641 85.2915 99.6685 91.1195 106.088 91.1195Z" fill="black"/>
<path d="M106.088 156.205C112.508 156.205 117.713 150.377 117.713 143.188C117.713 135.999 112.508 130.171 106.088 130.171C99.6685 130.171 94.4641 135.999 94.4641 143.188C94.4641 150.377 99.6685 156.205 106.088 156.205Z" fill="black"/>
<path d="M292.775 65.0853H151.888C145.854 65.0853 140.961 70.5636 140.961 77.3214V78.8834C140.961 85.6412 145.854 91.1195 151.888 91.1195H292.775C298.81 91.1195 303.702 85.6412 303.702 78.8834V77.3214C303.702 70.5636 298.81 65.0853 292.775 65.0853Z" fill="black"/>
<path d="M292.775 130.171H151.888C145.854 130.171 140.961 135.649 140.961 142.407V143.969C140.961 150.727 145.854 156.205 151.888 156.205H292.775C298.81 156.205 303.702 150.727 303.702 143.969V142.407C303.702 135.649 298.81 130.171 292.775 130.171Z" fill="black"/>
<path d="M292.775 0H151.888C145.854 0 140.961 5.47827 140.961 12.2361V13.7981C140.961 20.5559 145.854 26.0341 151.888 26.0341H292.775C298.81 26.0341 303.702 20.5559 303.702 13.7981V12.2361C303.702 5.47827 298.81 0 292.775 0Z" fill="black"/>
</svg>
