<svg width="429" height="282" viewBox="0 0 429 282" fill="none" xmlns="http://www.w3.org/2000/svg">
<path d="M102.698 255.042C101.855 254.929 101.115 254.826 100.477 254.735C99.8499 254.655 99.2575 254.587 98.6992 254.53C98.1523 254.484 97.6169 254.45 97.0928 254.427C96.5687 254.404 95.999 254.393 95.3838 254.393C95.68 253.402 95.9307 252.388 96.1357 251.351C96.3522 250.314 96.5231 249.249 96.6484 248.155C95.9648 248.132 95.2642 248.115 94.5464 248.104C93.8286 248.093 93.1165 248.087 92.4102 248.087C90.9632 248.087 89.5732 248.121 88.2402 248.189C88.2972 249.215 88.377 250.24 88.4795 251.266C88.582 252.28 88.7131 253.294 88.8726 254.308C88.0636 254.365 87.3402 254.416 86.7021 254.461C86.0641 254.507 85.5002 254.547 85.0103 254.581C84.5203 254.627 84.0988 254.667 83.7456 254.701C83.3924 254.746 83.0905 254.786 82.8398 254.82C82.2588 254.9 81.8657 254.974 81.6606 255.042C81.5125 254.302 81.3872 253.521 81.2847 252.701C81.1935 251.881 81.1195 251.066 81.0625 250.257C81.0169 249.437 80.9827 248.639 80.96 247.865C80.9372 247.09 80.9258 246.372 80.9258 245.711C80.9258 244.333 80.9771 242.949 81.0796 241.559C81.1935 240.169 81.3986 238.83 81.6948 237.542C82.0024 236.255 82.424 235.059 82.9595 233.954C83.495 232.837 84.1956 231.869 85.0615 231.048C85.9274 230.217 86.9756 229.567 88.2061 229.1C89.4365 228.622 90.8949 228.382 92.5811 228.382C94.3128 228.382 95.9022 228.65 97.3491 229.186C98.7961 229.71 100.038 230.524 101.075 231.629C102.123 232.735 102.932 234.142 103.501 235.851C104.083 237.548 104.373 239.57 104.373 241.917C104.373 242.521 104.356 243.273 104.322 244.173C104.299 245.073 104.231 246.087 104.117 247.215C104.003 248.343 103.832 249.574 103.604 250.907C103.388 252.228 103.086 253.607 102.698 255.042ZM91.2139 243.746C92.2051 243.746 93.1906 243.729 94.1704 243.695C95.1616 243.649 96.1016 243.575 96.9902 243.473C97.013 243.211 97.0244 242.949 97.0244 242.687C97.0244 242.413 97.0244 242.134 97.0244 241.849C97.0244 240.117 96.9447 238.448 96.7852 236.842C96.637 235.235 96.4149 233.743 96.1187 232.364C95.8566 232.341 95.5661 232.324 95.2471 232.313C94.9395 232.302 94.609 232.296 94.2559 232.296C93.7887 232.296 93.3045 232.307 92.8032 232.33C92.3133 232.341 91.8291 232.364 91.3506 232.398C90.8835 232.421 90.4334 232.455 90.0005 232.501C89.5675 232.547 89.1916 232.598 88.8726 232.655C88.6219 234.466 88.4339 236.289 88.3086 238.124C88.1947 239.946 88.1377 241.798 88.1377 243.678C88.6276 243.712 89.1289 243.735 89.6416 243.746C90.1657 243.746 90.6898 243.746 91.2139 243.746ZM126.316 235.833C126.146 239.331 126.009 242.328 125.906 244.823C125.815 247.318 125.747 249.363 125.701 250.958C125.644 252.838 125.604 254.387 125.582 255.606C125.525 257.053 125.206 258.301 124.625 259.349C124.055 260.397 123.309 261.269 122.386 261.964C121.474 262.659 120.432 263.189 119.258 263.553C118.096 263.918 116.889 264.14 115.635 264.22C114.371 264.22 113.214 264.066 112.166 263.758C111.129 263.451 110.223 263.018 109.449 262.459C108.685 261.901 108.059 261.24 107.569 260.477C107.09 259.714 106.783 258.871 106.646 257.948L113.584 257.469C113.471 257.765 113.396 258.067 113.362 258.375C113.34 258.683 113.328 258.996 113.328 259.315C113.328 259.6 113.34 259.89 113.362 260.187C113.396 260.483 113.471 260.779 113.584 261.075C113.744 261.098 113.903 261.109 114.063 261.109C114.222 261.109 114.388 261.109 114.559 261.109C116.188 261.109 117.8 260.933 119.395 260.58C119.498 259.304 119.583 258.033 119.651 256.769C119.72 255.515 119.782 254.256 119.839 252.992C119.292 253.333 118.734 253.596 118.165 253.778C117.595 253.949 117.071 254.08 116.592 254.171C116.034 254.273 115.487 254.33 114.952 254.342C114.314 254.342 113.67 254.251 113.021 254.068C112.371 253.897 111.744 253.641 111.141 253.299C110.537 252.958 109.967 252.536 109.432 252.035C108.896 251.533 108.429 250.952 108.03 250.292C107.632 249.631 107.318 248.902 107.09 248.104C106.862 247.295 106.749 246.412 106.749 245.455C106.749 244.031 106.937 242.732 107.312 241.559C107.7 240.374 108.252 239.36 108.97 238.517C109.688 237.662 110.565 237.001 111.602 236.534C112.639 236.067 113.812 235.833 115.123 235.833C115.658 235.845 116.205 235.902 116.763 236.004C117.242 236.096 117.766 236.238 118.335 236.432C118.905 236.614 119.452 236.882 119.976 237.235C119.976 236.939 119.97 236.637 119.959 236.329C119.948 236.021 119.942 235.72 119.942 235.423L126.316 235.833ZM120.062 243.541C120.062 243.006 120.056 242.476 120.044 241.952C120.044 241.416 120.033 240.881 120.01 240.345C119.805 240.322 119.6 240.311 119.395 240.311C119.19 240.311 118.991 240.311 118.797 240.311C118.364 240.311 117.937 240.317 117.515 240.328C117.094 240.34 116.661 240.362 116.216 240.396C115.772 240.419 115.305 240.453 114.815 240.499C114.325 240.533 113.795 240.579 113.226 240.636C113.191 241.16 113.163 241.673 113.14 242.174C113.129 242.664 113.123 243.165 113.123 243.678C113.123 244.715 113.163 245.74 113.243 246.754C113.322 247.757 113.436 248.771 113.584 249.796C114.131 249.83 114.633 249.859 115.088 249.881C115.544 249.893 115.988 249.898 116.421 249.898C117.048 249.898 117.64 249.887 118.199 249.864C118.757 249.841 119.349 249.796 119.976 249.728C119.999 248.691 120.016 247.66 120.027 246.634C120.05 245.609 120.062 244.578 120.062 243.541ZM148.294 245.985L134.93 247.062C134.987 247.768 135.066 248.469 135.169 249.164C135.271 249.859 135.403 250.559 135.562 251.266C136.565 251.334 137.533 251.368 138.467 251.368C138.98 251.368 139.476 251.362 139.954 251.351C140.433 251.328 140.928 251.3 141.441 251.266C141.464 251.038 141.481 250.81 141.492 250.582C141.504 250.354 141.509 250.126 141.509 249.898C141.509 249.693 141.504 249.494 141.492 249.3C141.492 249.095 141.475 248.89 141.441 248.685L147.884 248.822C147.565 249.904 147.103 250.833 146.5 251.607C145.907 252.382 145.201 253.02 144.38 253.521C143.571 254.011 142.666 254.37 141.663 254.598C140.66 254.826 139.607 254.94 138.501 254.94C137.146 254.94 135.87 254.758 134.673 254.393C133.488 254.028 132.452 253.442 131.563 252.633C130.686 251.812 129.991 250.747 129.478 249.437C128.977 248.127 128.726 246.52 128.726 244.618C128.726 243.08 128.994 241.758 129.529 240.653C130.065 239.548 130.777 238.636 131.666 237.918C132.566 237.201 133.602 236.677 134.776 236.346C135.961 236.004 137.203 235.833 138.501 235.833C139.857 235.833 141.128 236.016 142.312 236.38C143.509 236.745 144.546 237.315 145.423 238.089C146.312 238.864 147.012 239.855 147.525 241.063C148.038 242.271 148.294 243.712 148.294 245.387V245.985ZM134.759 243.473H141.612C141.612 242.06 141.469 240.715 141.185 239.439C140.205 239.234 139.179 239.132 138.108 239.132C137.06 239.132 136.001 239.234 134.93 239.439C134.861 240.077 134.816 240.727 134.793 241.388C134.77 242.037 134.759 242.732 134.759 243.473ZM169.178 245.079C169.178 246.594 169.098 248.138 168.938 249.71C168.779 251.283 168.506 252.855 168.118 254.427H162.171C162.319 252.73 162.433 251.055 162.513 249.403C162.592 247.739 162.632 246.065 162.632 244.378C162.632 243.809 162.632 243.245 162.632 242.687C162.632 242.117 162.621 241.547 162.598 240.978C162.085 240.921 161.578 240.886 161.077 240.875C160.576 240.852 160.069 240.841 159.556 240.841C158.588 240.841 157.591 240.875 156.565 240.943C156.531 241.878 156.503 242.743 156.48 243.541C156.469 244.339 156.463 245.13 156.463 245.917C156.463 246.498 156.469 247.09 156.48 247.694C156.491 248.286 156.508 248.924 156.531 249.608C156.565 250.292 156.605 251.032 156.651 251.83C156.696 252.616 156.753 253.482 156.822 254.427H151.08C151.08 253.06 151.074 251.852 151.062 250.804C151.051 249.756 151.034 248.793 151.011 247.916C150.988 247.027 150.954 246.184 150.909 245.387C150.875 244.578 150.829 243.735 150.772 242.857C150.715 241.969 150.652 241.006 150.584 239.969C150.516 238.921 150.436 237.719 150.345 236.363L156.822 235.97L156.685 238.397C157.334 237.941 158.001 237.588 158.685 237.337C159.368 237.087 159.995 236.899 160.564 236.773C161.225 236.637 161.869 236.557 162.496 236.534C163.327 236.534 164.068 236.648 164.717 236.876C165.378 237.104 165.953 237.423 166.443 237.833C166.945 238.232 167.366 238.705 167.708 239.251C168.05 239.798 168.329 240.391 168.545 241.029C168.773 241.655 168.933 242.316 169.024 243.011C169.126 243.706 169.178 244.396 169.178 245.079ZM191.993 229.288C191.731 233.367 191.543 237.503 191.429 241.695C191.315 245.877 191.258 250.035 191.258 254.171H185.567L185.669 252.257C185.123 252.781 184.519 253.185 183.858 253.47C183.197 253.755 182.57 253.96 181.978 254.085C181.283 254.234 180.588 254.319 179.893 254.342C178.594 254.342 177.421 254.108 176.373 253.641C175.336 253.174 174.453 252.519 173.724 251.676C173.006 250.833 172.453 249.819 172.066 248.634C171.679 247.449 171.485 246.144 171.485 244.72C171.485 243.775 171.599 242.897 171.827 242.088C172.055 241.279 172.368 240.545 172.767 239.884C173.165 239.223 173.632 238.642 174.168 238.141C174.703 237.639 175.273 237.218 175.877 236.876C176.481 236.534 177.107 236.278 177.757 236.107C178.406 235.925 179.05 235.833 179.688 235.833C180.474 235.856 181.243 235.959 181.995 236.141C182.314 236.221 182.645 236.323 182.986 236.449C183.328 236.563 183.664 236.705 183.995 236.876C184.336 237.047 184.661 237.246 184.969 237.474C185.288 237.702 185.578 237.97 185.84 238.277C185.806 236.694 185.766 235.127 185.721 233.578C185.675 232.017 185.624 230.462 185.567 228.912L191.993 229.288ZM183.602 249.864C183.921 249.864 184.257 249.864 184.61 249.864C184.974 249.864 185.35 249.853 185.738 249.83C185.795 248.657 185.829 247.477 185.84 246.292C185.863 245.096 185.875 243.894 185.875 242.687V240.602C185.02 240.51 184.228 240.436 183.499 240.379C182.781 240.311 182.012 240.277 181.192 240.277C180.759 240.277 180.309 240.288 179.842 240.311C179.386 240.322 178.879 240.345 178.321 240.379C178.173 241.405 178.064 242.424 177.996 243.438C177.928 244.452 177.894 245.478 177.894 246.515C177.894 247.027 177.894 247.534 177.894 248.036C177.905 248.537 177.939 249.044 177.996 249.557C178.566 249.614 179.09 249.659 179.568 249.693C180.058 249.728 180.525 249.762 180.97 249.796C181.425 249.819 181.864 249.836 182.286 249.847C182.719 249.859 183.157 249.864 183.602 249.864ZM208.775 254.564C208.775 254.234 208.769 253.903 208.758 253.573C208.746 253.231 208.741 252.895 208.741 252.564C208.137 253.111 207.505 253.527 206.844 253.812C206.194 254.085 205.596 254.291 205.049 254.427C204.411 254.587 203.779 254.678 203.152 254.701C202.013 254.701 200.914 254.524 199.854 254.171C198.806 253.829 197.872 253.311 197.051 252.616C196.231 251.921 195.564 251.055 195.052 250.018C194.55 248.97 194.271 247.757 194.214 246.378C194.214 244.988 194.402 243.723 194.778 242.584C195.154 241.433 195.718 240.448 196.47 239.627C197.222 238.807 198.156 238.175 199.273 237.73C200.389 237.275 201.683 237.041 203.152 237.03C203.198 237.03 203.369 237.041 203.665 237.064C203.973 237.075 204.349 237.127 204.793 237.218C205.237 237.298 205.722 237.434 206.246 237.628C206.77 237.81 207.288 238.067 207.801 238.397L207.527 236.295L214.278 235.833C214.141 239.103 214.073 242.356 214.073 245.592C214.073 246.378 214.073 247.124 214.073 247.831C214.084 248.526 214.096 249.221 214.107 249.916C214.13 250.599 214.153 251.294 214.175 252C214.209 252.695 214.244 253.43 214.278 254.205L208.775 254.564ZM200.794 250.428C202.15 250.371 203.483 250.28 204.793 250.155C206.103 250.029 207.396 249.841 208.672 249.591C208.638 248.178 208.576 246.811 208.484 245.489C208.405 244.168 208.291 242.818 208.143 241.439H207.168C206.063 241.439 204.952 241.479 203.836 241.559C202.731 241.627 201.614 241.747 200.486 241.917C200.35 243.114 200.281 244.316 200.281 245.523C200.281 245.979 200.293 246.406 200.315 246.805C200.338 247.193 200.367 247.58 200.401 247.967C200.446 248.355 200.498 248.748 200.555 249.146C200.623 249.545 200.703 249.972 200.794 250.428ZM235.042 245.523C235.042 246.97 234.957 248.44 234.786 249.933C234.615 251.425 234.353 252.923 234 254.427H228.052C228.189 252.821 228.297 251.226 228.377 249.642C228.457 248.058 228.497 246.463 228.497 244.857C228.497 244.31 228.497 243.769 228.497 243.233C228.497 242.698 228.485 242.168 228.462 241.644C227.95 241.587 227.443 241.553 226.941 241.542C226.451 241.519 225.944 241.507 225.42 241.507C225.124 241.507 224.822 241.513 224.515 241.524C224.218 241.536 223.911 241.542 223.592 241.542C223.558 242.35 223.535 243.108 223.523 243.814C223.523 244.509 223.523 245.21 223.523 245.917C223.523 246.498 223.529 247.09 223.541 247.694C223.552 248.286 223.569 248.924 223.592 249.608C223.626 250.292 223.666 251.032 223.711 251.83C223.757 252.616 223.814 253.482 223.882 254.427H218.14C218.14 253.06 218.134 251.852 218.123 250.804C218.112 249.756 218.095 248.793 218.072 247.916C218.049 247.027 218.015 246.184 217.969 245.387C217.935 244.578 217.889 243.735 217.833 242.857C217.776 241.969 217.713 241.006 217.645 239.969C217.576 238.921 217.496 237.719 217.405 236.363L223.882 235.97L223.746 238.5C224.315 238.226 224.874 238.015 225.42 237.867C225.967 237.719 226.457 237.611 226.89 237.542C227.391 237.463 227.87 237.417 228.326 237.406C229.203 237.406 229.983 237.531 230.667 237.782C231.351 238.021 231.949 238.351 232.461 238.773C233.122 238.203 233.817 237.77 234.546 237.474C235.287 237.167 235.971 236.939 236.597 236.791C237.326 236.62 238.044 236.523 238.75 236.5C239.594 236.5 240.34 236.614 240.989 236.842C241.65 237.07 242.231 237.389 242.732 237.799C243.234 238.198 243.655 238.676 243.997 239.234C244.35 239.781 244.635 240.374 244.852 241.012C245.068 241.638 245.222 242.299 245.313 242.994C245.416 243.689 245.467 244.384 245.467 245.079C245.467 246.594 245.381 248.132 245.21 249.693C245.051 251.254 244.789 252.832 244.424 254.427H238.477C238.614 252.73 238.722 251.049 238.802 249.386C238.882 247.711 238.921 246.03 238.921 244.344C238.921 243.775 238.921 243.211 238.921 242.652C238.921 242.083 238.91 241.513 238.887 240.943C238.375 240.886 237.868 240.852 237.366 240.841C236.865 240.818 236.347 240.807 235.811 240.807C235.515 240.807 235.224 240.812 234.939 240.824C234.655 240.835 234.364 240.841 234.068 240.841C234.421 241.547 234.672 242.305 234.82 243.114C234.968 243.911 235.042 244.715 235.042 245.523ZM267.342 245.985L253.978 247.062C254.035 247.768 254.114 248.469 254.217 249.164C254.319 249.859 254.45 250.559 254.61 251.266C255.612 251.334 256.581 251.368 257.515 251.368C258.028 251.368 258.523 251.362 259.002 251.351C259.48 251.328 259.976 251.3 260.489 251.266C260.512 251.038 260.529 250.81 260.54 250.582C260.551 250.354 260.557 250.126 260.557 249.898C260.557 249.693 260.551 249.494 260.54 249.3C260.54 249.095 260.523 248.89 260.489 248.685L266.932 248.822C266.613 249.904 266.151 250.833 265.547 251.607C264.955 252.382 264.249 253.02 263.428 253.521C262.619 254.011 261.714 254.37 260.711 254.598C259.708 254.826 258.654 254.94 257.549 254.94C256.194 254.94 254.917 254.758 253.721 254.393C252.536 254.028 251.5 253.442 250.611 252.633C249.734 251.812 249.039 250.747 248.526 249.437C248.025 248.127 247.774 246.52 247.774 244.618C247.774 243.08 248.042 241.758 248.577 240.653C249.113 239.548 249.825 238.636 250.713 237.918C251.613 237.201 252.65 236.677 253.824 236.346C255.009 236.004 256.25 235.833 257.549 235.833C258.905 235.833 260.175 236.016 261.36 236.38C262.557 236.745 263.593 237.315 264.471 238.089C265.359 238.864 266.06 239.855 266.573 241.063C267.085 242.271 267.342 243.712 267.342 245.387V245.985ZM253.807 243.473H260.66C260.66 242.06 260.517 240.715 260.232 239.439C259.253 239.234 258.227 239.132 257.156 239.132C256.108 239.132 255.049 239.234 253.978 239.439C253.909 240.077 253.864 240.727 253.841 241.388C253.818 242.037 253.807 242.732 253.807 243.473ZM288.226 245.079C288.226 246.594 288.146 248.138 287.986 249.71C287.827 251.283 287.553 252.855 287.166 254.427H281.219C281.367 252.73 281.481 251.055 281.561 249.403C281.64 247.739 281.68 246.065 281.68 244.378C281.68 243.809 281.68 243.245 281.68 242.687C281.68 242.117 281.669 241.547 281.646 240.978C281.133 240.921 280.626 240.886 280.125 240.875C279.624 240.852 279.117 240.841 278.604 240.841C277.636 240.841 276.639 240.875 275.613 240.943C275.579 241.878 275.551 242.743 275.528 243.541C275.516 244.339 275.511 245.13 275.511 245.917C275.511 246.498 275.516 247.09 275.528 247.694C275.539 248.286 275.556 248.924 275.579 249.608C275.613 250.292 275.653 251.032 275.699 251.83C275.744 252.616 275.801 253.482 275.87 254.427H270.127C270.127 253.06 270.122 251.852 270.11 250.804C270.099 249.756 270.082 248.793 270.059 247.916C270.036 247.027 270.002 246.184 269.957 245.387C269.922 244.578 269.877 243.735 269.82 242.857C269.763 241.969 269.7 241.006 269.632 239.969C269.563 238.921 269.484 237.719 269.393 236.363L275.87 235.97L275.733 238.397C276.382 237.941 277.049 237.588 277.732 237.337C278.416 237.087 279.043 236.899 279.612 236.773C280.273 236.637 280.917 236.557 281.543 236.534C282.375 236.534 283.116 236.648 283.765 236.876C284.426 237.104 285.001 237.423 285.491 237.833C285.993 238.232 286.414 238.705 286.756 239.251C287.098 239.798 287.377 240.391 287.593 241.029C287.821 241.655 287.981 242.316 288.072 243.011C288.174 243.706 288.226 244.396 288.226 245.079ZM307.264 240.978C306.159 240.921 305.048 240.869 303.931 240.824C302.826 240.778 301.721 240.738 300.616 240.704C300.479 242.971 300.359 245.233 300.257 247.489C300.154 249.745 300.075 252.018 300.018 254.308L295.027 254.803C295.096 250.633 295.13 246.503 295.13 242.413V240.602H293.899C293.216 240.602 292.532 240.607 291.849 240.619C291.165 240.63 290.481 240.636 289.798 240.636V236.295C290.094 236.295 290.39 236.301 290.687 236.312C290.994 236.323 291.307 236.329 291.626 236.329H295.096C295.096 235.27 295.09 234.227 295.079 233.202C295.067 232.165 295.05 231.128 295.027 230.091H301.504C301.39 231.117 301.288 232.136 301.197 233.15C301.117 234.153 301.043 235.156 300.975 236.158C302.034 236.113 303.077 236.067 304.102 236.021C305.139 235.965 306.193 235.902 307.264 235.833V240.978ZM321.739 250.462C321.807 249.494 321.853 248.554 321.875 247.643C321.91 246.731 321.927 245.831 321.927 244.942C321.927 244.02 321.91 243.114 321.875 242.225C321.853 241.325 321.807 240.396 321.739 239.439C321.351 239.382 320.964 239.348 320.577 239.337C320.201 239.314 319.819 239.303 319.432 239.303C317.837 239.303 316.299 239.479 314.817 239.833C314.783 240.448 314.749 241.057 314.715 241.661C314.692 242.265 314.681 242.869 314.681 243.473C314.681 244.68 314.726 245.888 314.817 247.096C314.92 248.292 315.068 249.545 315.262 250.855C315.524 250.878 315.786 250.89 316.048 250.89C316.321 250.89 316.6 250.89 316.885 250.89C317.671 250.89 318.469 250.855 319.278 250.787C320.098 250.719 320.918 250.611 321.739 250.462ZM328.079 245.079C328.079 246.435 327.811 247.711 327.276 248.907C326.752 250.092 326.034 251.129 325.123 252.018C324.211 252.906 323.14 253.607 321.91 254.12C320.691 254.644 319.386 254.906 317.996 254.906C316.618 254.906 315.347 254.644 314.185 254.12C313.034 253.607 312.037 252.906 311.194 252.018C310.363 251.129 309.713 250.092 309.246 248.907C308.779 247.711 308.545 246.435 308.545 245.079C308.545 243.404 308.779 241.952 309.246 240.721C309.713 239.491 310.363 238.471 311.194 237.662C312.037 236.853 313.034 236.255 314.185 235.868C315.347 235.469 316.618 235.27 317.996 235.27C319.386 235.27 320.691 235.492 321.91 235.936C323.14 236.38 324.211 237.024 325.123 237.867C326.034 238.71 326.752 239.741 327.276 240.96C327.811 242.168 328.079 243.541 328.079 245.079ZM348.638 250.018C348.638 251.021 348.382 251.858 347.869 252.53C347.356 253.191 346.684 253.721 345.853 254.12C345.021 254.53 344.075 254.815 343.016 254.974C341.956 255.145 340.879 255.23 339.786 255.23C339.182 255.23 338.532 255.191 337.837 255.111C337.154 255.042 336.465 254.911 335.77 254.718C335.075 254.535 334.397 254.291 333.736 253.983C333.086 253.664 332.494 253.265 331.958 252.787C331.423 252.308 330.962 251.744 330.574 251.095C330.198 250.445 329.942 249.688 329.805 248.822L336.744 248.753L337.017 251.727H342.332L342.725 248.292C342.019 248.132 341.21 247.996 340.298 247.882C339.387 247.768 338.453 247.631 337.496 247.472C336.539 247.301 335.599 247.084 334.676 246.822C333.753 246.56 332.933 246.201 332.215 245.746C331.497 245.29 330.916 244.715 330.472 244.02C330.027 243.325 329.805 242.464 329.805 241.439C329.805 240.334 330.073 239.405 330.608 238.653C331.144 237.89 331.845 237.28 332.71 236.825C333.588 236.358 334.579 236.016 335.684 235.799C336.789 235.583 337.911 235.458 339.051 235.423C339.655 235.423 340.304 235.458 340.999 235.526C341.705 235.594 342.406 235.72 343.101 235.902C343.796 236.073 344.463 236.312 345.101 236.62C345.75 236.927 346.325 237.32 346.827 237.799C347.339 238.266 347.755 238.836 348.074 239.508C348.405 240.169 348.593 240.949 348.638 241.849L341.922 242.14V238.773H336.146V243.319C336.886 243.478 337.712 243.604 338.624 243.695C339.535 243.775 340.452 243.883 341.375 244.02C342.298 244.156 343.192 244.344 344.058 244.583C344.935 244.823 345.71 245.165 346.382 245.609C347.066 246.053 347.613 246.629 348.023 247.335C348.433 248.041 348.638 248.936 348.638 250.018Z" fill="black"/>
<path d="M216.821 128.418C218.92 128.418 220.972 127.791 222.717 126.615C224.463 125.439 225.823 123.768 226.626 121.812C227.429 119.857 227.64 117.705 227.23 115.629C226.821 113.553 225.81 111.646 224.326 110.15C222.841 108.653 220.95 107.634 218.892 107.221C216.833 106.808 214.699 107.02 212.76 107.83C210.821 108.64 209.163 110.012 207.997 111.771C206.831 113.531 206.208 115.6 206.208 117.717C206.208 120.555 207.327 123.277 209.317 125.284C211.307 127.291 214.007 128.418 216.821 128.418ZM269.885 128.418C271.984 128.418 274.036 127.791 275.781 126.615C277.527 125.439 278.887 123.768 279.69 121.812C280.493 119.857 280.704 117.705 280.294 115.629C279.885 113.553 278.874 111.646 277.39 110.15C275.905 108.653 274.014 107.634 271.956 107.221C269.897 106.808 267.763 107.02 265.824 107.83C263.885 108.64 262.227 110.012 261.061 111.771C259.895 113.531 259.272 115.6 259.272 117.717C259.272 120.555 260.391 123.277 262.381 125.284C264.371 127.291 267.071 128.418 269.885 128.418ZM216.821 171.225C218.92 171.225 220.972 170.597 222.717 169.421C224.463 168.245 225.823 166.574 226.626 164.618C227.429 162.663 227.64 160.511 227.23 158.435C226.821 156.359 225.81 154.453 224.326 152.956C222.841 151.459 220.95 150.44 218.892 150.027C216.833 149.614 214.699 149.826 212.76 150.636C210.821 151.446 209.163 152.818 207.997 154.578C206.831 156.337 206.208 158.406 206.208 160.523C206.208 163.361 207.327 166.083 209.317 168.09C211.307 170.097 214.007 171.225 216.821 171.225ZM269.885 171.225C271.984 171.225 274.036 170.597 275.781 169.421C277.527 168.245 278.887 166.574 279.69 164.618C280.493 162.663 280.704 160.511 280.294 158.435C279.885 156.359 278.874 154.453 277.39 152.956C275.905 151.459 274.014 150.44 271.956 150.027C269.897 149.614 267.763 149.826 265.824 150.636C263.885 151.446 262.227 152.818 261.061 154.578C259.895 156.337 259.272 158.406 259.272 160.523C259.272 163.361 260.391 166.083 262.381 168.09C264.371 170.097 267.071 171.225 269.885 171.225ZM163.757 128.418C165.856 128.418 167.908 127.791 169.653 126.615C171.399 125.439 172.759 123.768 173.562 121.812C174.365 119.857 174.576 117.705 174.166 115.629C173.757 113.553 172.746 111.646 171.262 110.15C169.777 108.653 167.886 107.634 165.828 107.221C163.769 106.808 161.635 107.02 159.696 107.83C157.757 108.64 156.099 110.012 154.933 111.771C153.767 113.531 153.144 115.6 153.144 117.717C153.144 120.555 154.263 123.277 156.253 125.284C158.243 127.291 160.943 128.418 163.757 128.418ZM291.111 21.4031H280.498V10.7015C280.498 7.86331 279.38 5.14134 277.39 3.13441C275.399 1.12748 272.7 0 269.885 0C267.071 0 264.371 1.12748 262.381 3.13441C260.391 5.14134 259.272 7.86331 259.272 10.7015V21.4031H174.37V10.7015C174.37 7.86331 173.252 5.14134 171.262 3.13441C169.271 1.12748 166.572 0 163.757 0C160.943 0 158.243 1.12748 156.253 3.13441C154.263 5.14134 153.144 7.86331 153.144 10.7015V21.4031H142.532C134.088 21.4031 125.989 24.7855 120.018 30.8063C114.048 36.8271 110.693 44.993 110.693 53.5077V181.926C110.693 190.441 114.048 198.607 120.018 204.628C125.989 210.648 134.088 214.031 142.532 214.031H291.111C299.555 214.031 307.653 210.648 313.624 204.628C319.595 198.607 322.949 190.441 322.949 181.926V53.5077C322.949 44.993 319.595 36.8271 313.624 30.8063C307.653 24.7855 299.555 21.4031 291.111 21.4031ZM301.724 181.926C301.724 184.764 300.605 187.486 298.615 189.493C296.625 191.5 293.926 192.628 291.111 192.628H142.532C139.717 192.628 137.018 191.5 135.027 189.493C133.037 187.486 131.919 184.764 131.919 181.926V85.6123H301.724V181.926ZM301.724 64.2092H131.919V53.5077C131.919 50.6695 133.037 47.9475 135.027 45.9406C137.018 43.9336 139.717 42.8062 142.532 42.8062H291.111C293.926 42.8062 296.625 43.9336 298.615 45.9406C300.605 47.9475 301.724 50.6695 301.724 53.5077V64.2092ZM163.757 171.225C165.856 171.225 167.908 170.597 169.653 169.421C171.399 168.245 172.759 166.574 173.562 164.618C174.365 162.663 174.576 160.511 174.166 158.435C173.757 156.359 172.746 154.453 171.262 152.956C169.777 151.459 167.886 150.44 165.828 150.027C163.769 149.614 161.635 149.826 159.696 150.636C157.757 151.446 156.099 152.818 154.933 154.578C153.767 156.337 153.144 158.406 153.144 160.523C153.144 163.361 154.263 166.083 156.253 168.09C158.243 170.097 160.943 171.225 163.757 171.225Z" fill="black"/>
</svg>
