<svg width="429" height="290" viewBox="0 0 429 290" fill="none" xmlns="http://www.w3.org/2000/svg">
<path d="M199.125 0.25C168.533 0.25 143.562 24.827 143.562 54.9375C143.562 73.7566 153.335 90.5009 168.119 100.348C139.805 112.299 119.75 139.947 119.75 172.125H135.625C135.625 137.51 163.957 109.625 199.125 109.625C210.047 109.625 220.195 112.421 229.139 117.193C220.327 127.926 215 141.68 215 156.5C215 190.925 243.524 219 278.5 219C313.476 219 342 190.925 342 156.5C342 122.075 313.476 94 278.5 94C264.632 94 251.756 98.4897 241.293 105.963C237.781 103.791 233.989 101.974 230.131 100.348C244.915 90.5009 254.688 73.7566 254.688 54.9375C254.688 24.827 229.717 0.25 199.125 0.25ZM199.125 15.875C221.138 15.875 238.812 33.2713 238.812 54.9375C238.812 76.6037 221.138 94 199.125 94C177.112 94 159.438 76.6037 159.438 54.9375C159.438 33.2713 177.112 15.875 199.125 15.875ZM278.5 109.625C304.897 109.625 326.125 130.519 326.125 156.5C326.125 182.481 304.897 203.375 278.5 203.375C252.103 203.375 230.875 182.481 230.875 156.5C230.875 130.519 252.103 109.625 278.5 109.625ZM270.562 125.25V148.688H246.75V164.312H270.562V187.75H286.438V164.312H310.25V148.688H286.438V125.25H270.562Z" fill="black"/>
<path d="M153.199 239.132C152.458 239.132 151.757 239.143 151.097 239.166C150.436 239.177 149.775 239.2 149.114 239.234C148.453 239.269 147.776 239.314 147.081 239.371C146.386 239.428 145.645 239.496 144.859 239.576C144.973 238.995 145.053 238.368 145.098 237.696C145.155 237.024 145.184 236.335 145.184 235.628C145.184 235.195 145.172 234.763 145.149 234.33C145.138 233.897 145.104 233.486 145.047 233.099C144.227 232.871 143.298 232.706 142.261 232.604C141.224 232.49 140.182 232.433 139.134 232.433C138.393 232.433 137.675 232.461 136.98 232.518C136.285 232.564 135.647 232.632 135.066 232.723C134.839 234.113 134.668 235.537 134.554 236.996C134.451 238.443 134.4 239.912 134.4 241.405C134.4 243 134.457 244.583 134.571 246.156C134.685 247.728 134.85 249.283 135.066 250.821C135.488 250.969 135.966 251.1 136.502 251.214C137.037 251.328 137.596 251.425 138.177 251.505C138.758 251.585 139.345 251.647 139.937 251.693C140.541 251.738 141.122 251.761 141.68 251.761C142.068 251.761 142.438 251.756 142.791 251.744C143.156 251.721 143.497 251.681 143.816 251.625C143.976 250.941 144.101 250.183 144.192 249.352C144.295 248.508 144.346 247.665 144.346 246.822C144.346 246.15 144.312 245.495 144.244 244.857C145.155 244.948 146.021 245.016 146.841 245.062C147.673 245.096 148.522 245.113 149.388 245.113C150.504 245.113 151.729 245.079 153.062 245.011C152.846 246.253 152.521 247.352 152.088 248.309C151.655 249.266 151.148 250.104 150.567 250.821C149.997 251.539 149.371 252.154 148.687 252.667C148.015 253.18 147.32 253.607 146.602 253.949C145.896 254.291 145.189 254.564 144.483 254.769C143.777 254.974 143.11 255.128 142.483 255.23C141.868 255.333 141.304 255.396 140.792 255.418C140.29 255.453 139.886 255.47 139.578 255.47C137.755 255.47 136.166 255.287 134.81 254.923C133.466 254.558 132.315 254.063 131.358 253.436C130.401 252.809 129.609 252.08 128.982 251.249C128.367 250.417 127.883 249.534 127.53 248.6C127.177 247.654 126.932 246.686 126.795 245.694C126.658 244.703 126.59 243.74 126.59 242.806C126.59 240.676 126.858 238.756 127.393 237.047C127.929 235.338 128.76 233.868 129.888 232.638C131.028 231.407 132.474 230.439 134.229 229.732C135.984 229.015 138.08 228.587 140.518 228.451C142.09 228.451 143.589 228.684 145.013 229.151C146.437 229.618 147.713 230.302 148.841 231.202C149.98 232.102 150.931 233.219 151.695 234.552C152.458 235.885 152.959 237.411 153.199 239.132ZM169.28 254.564C169.28 254.234 169.275 253.903 169.263 253.573C169.252 253.231 169.246 252.895 169.246 252.564C168.642 253.111 168.01 253.527 167.349 253.812C166.7 254.085 166.102 254.291 165.555 254.427C164.917 254.587 164.284 254.678 163.658 254.701C162.518 254.701 161.419 254.524 160.359 254.171C159.311 253.829 158.377 253.311 157.557 252.616C156.736 251.921 156.07 251.055 155.557 250.018C155.056 248.97 154.777 247.757 154.72 246.378C154.72 244.988 154.908 243.723 155.284 242.584C155.66 241.433 156.224 240.448 156.976 239.627C157.728 238.807 158.662 238.175 159.778 237.73C160.895 237.275 162.188 237.041 163.658 237.03C163.703 237.03 163.874 237.041 164.17 237.064C164.478 237.075 164.854 237.127 165.298 237.218C165.743 237.298 166.227 237.434 166.751 237.628C167.275 237.81 167.793 238.067 168.306 238.397L168.033 236.295L174.783 235.833C174.646 239.103 174.578 242.356 174.578 245.592C174.578 246.378 174.578 247.124 174.578 247.831C174.59 248.526 174.601 249.221 174.612 249.916C174.635 250.599 174.658 251.294 174.681 252C174.715 252.695 174.749 253.43 174.783 254.205L169.28 254.564ZM161.299 250.428C162.655 250.371 163.988 250.28 165.298 250.155C166.609 250.029 167.902 249.841 169.178 249.591C169.144 248.178 169.081 246.811 168.99 245.489C168.91 244.168 168.796 242.818 168.648 241.439H167.674C166.569 241.439 165.458 241.479 164.341 241.559C163.236 241.627 162.12 241.747 160.992 241.917C160.855 243.114 160.787 244.316 160.787 245.523C160.787 245.979 160.798 246.406 160.821 246.805C160.844 247.193 160.872 247.58 160.906 247.967C160.952 248.355 161.003 248.748 161.06 249.146C161.128 249.545 161.208 249.972 161.299 250.428ZM197.957 229.288C197.695 233.367 197.507 237.503 197.393 241.695C197.279 245.877 197.222 250.035 197.222 254.171H191.531L191.634 252.257C191.087 252.781 190.483 253.185 189.822 253.47C189.161 253.755 188.535 253.96 187.942 254.085C187.247 254.234 186.552 254.319 185.857 254.342C184.559 254.342 183.385 254.108 182.337 253.641C181.3 253.174 180.417 252.519 179.688 251.676C178.97 250.833 178.418 249.819 178.03 248.634C177.643 247.449 177.449 246.144 177.449 244.72C177.449 243.775 177.563 242.897 177.791 242.088C178.019 241.279 178.332 240.545 178.731 239.884C179.13 239.223 179.597 238.642 180.132 238.141C180.668 237.639 181.237 237.218 181.841 236.876C182.445 236.534 183.072 236.278 183.721 236.107C184.371 235.925 185.014 235.833 185.652 235.833C186.438 235.856 187.208 235.959 187.959 236.141C188.278 236.221 188.609 236.323 188.951 236.449C189.292 236.563 189.629 236.705 189.959 236.876C190.301 237.047 190.625 237.246 190.933 237.474C191.252 237.702 191.543 237.97 191.805 238.277C191.771 236.694 191.731 235.127 191.685 233.578C191.639 232.017 191.588 230.462 191.531 228.912L197.957 229.288ZM189.566 249.864C189.885 249.864 190.221 249.864 190.574 249.864C190.939 249.864 191.315 249.853 191.702 249.83C191.759 248.657 191.793 247.477 191.805 246.292C191.827 245.096 191.839 243.894 191.839 242.687V240.602C190.984 240.51 190.193 240.436 189.463 240.379C188.746 240.311 187.977 240.277 187.156 240.277C186.723 240.277 186.273 240.288 185.806 240.311C185.35 240.322 184.843 240.345 184.285 240.379C184.137 241.405 184.029 242.424 183.96 243.438C183.892 244.452 183.858 245.478 183.858 246.515C183.858 247.027 183.858 247.534 183.858 248.036C183.869 248.537 183.903 249.044 183.96 249.557C184.53 249.614 185.054 249.659 185.533 249.693C186.023 249.728 186.49 249.762 186.934 249.796C187.39 249.819 187.828 249.836 188.25 249.847C188.683 249.859 189.122 249.864 189.566 249.864ZM214.739 254.564C214.739 254.234 214.734 253.903 214.722 253.573C214.711 253.231 214.705 252.895 214.705 252.564C214.101 253.111 213.469 253.527 212.808 253.812C212.159 254.085 211.561 254.291 211.014 254.427C210.376 254.587 209.743 254.678 209.117 254.701C207.977 254.701 206.878 254.524 205.818 254.171C204.77 253.829 203.836 253.311 203.016 252.616C202.195 251.921 201.529 251.055 201.016 250.018C200.515 248.97 200.236 247.757 200.179 246.378C200.179 244.988 200.367 243.723 200.743 242.584C201.119 241.433 201.683 240.448 202.435 239.627C203.187 238.807 204.121 238.175 205.237 237.73C206.354 237.275 207.647 237.041 209.117 237.03C209.162 237.03 209.333 237.041 209.629 237.064C209.937 237.075 210.313 237.127 210.757 237.218C211.202 237.298 211.686 237.434 212.21 237.628C212.734 237.81 213.252 238.067 213.765 238.397L213.492 236.295L220.242 235.833C220.105 239.103 220.037 242.356 220.037 245.592C220.037 246.378 220.037 247.124 220.037 247.831C220.049 248.526 220.06 249.221 220.071 249.916C220.094 250.599 220.117 251.294 220.14 252C220.174 252.695 220.208 253.43 220.242 254.205L214.739 254.564ZM206.758 250.428C208.114 250.371 209.447 250.28 210.757 250.155C212.068 250.029 213.361 249.841 214.637 249.591C214.603 248.178 214.54 246.811 214.449 245.489C214.369 244.168 214.255 242.818 214.107 241.439H213.133C212.028 241.439 210.917 241.479 209.8 241.559C208.695 241.627 207.579 241.747 206.451 241.917C206.314 243.114 206.246 244.316 206.246 245.523C206.246 245.979 206.257 246.406 206.28 246.805C206.303 247.193 206.331 247.58 206.365 247.967C206.411 248.355 206.462 248.748 206.519 249.146C206.587 249.545 206.667 249.972 206.758 250.428ZM241.673 250.018C241.673 251.021 241.417 251.858 240.904 252.53C240.391 253.191 239.719 253.721 238.887 254.12C238.056 254.53 237.11 254.815 236.05 254.974C234.991 255.145 233.914 255.23 232.82 255.23C232.216 255.23 231.567 255.191 230.872 255.111C230.188 255.042 229.499 254.911 228.804 254.718C228.109 254.535 227.431 254.291 226.771 253.983C226.121 253.664 225.529 253.265 224.993 252.787C224.458 252.308 223.996 251.744 223.609 251.095C223.233 250.445 222.977 249.688 222.84 248.822L229.778 248.753L230.052 251.727H235.367L235.76 248.292C235.053 248.132 234.244 247.996 233.333 247.882C232.422 247.768 231.487 247.631 230.53 247.472C229.573 247.301 228.633 247.084 227.71 246.822C226.788 246.56 225.967 246.201 225.25 245.746C224.532 245.29 223.951 244.715 223.506 244.02C223.062 243.325 222.84 242.464 222.84 241.439C222.84 240.334 223.108 239.405 223.643 238.653C224.179 237.89 224.879 237.28 225.745 236.825C226.622 236.358 227.614 236.016 228.719 235.799C229.824 235.583 230.946 235.458 232.085 235.423C232.689 235.423 233.339 235.458 234.034 235.526C234.74 235.594 235.441 235.72 236.136 235.902C236.831 236.073 237.497 236.312 238.135 236.62C238.785 236.927 239.36 237.32 239.861 237.799C240.374 238.266 240.79 238.836 241.109 239.508C241.439 240.169 241.627 240.949 241.673 241.849L234.957 242.14V238.773H229.18V243.319C229.921 243.478 230.747 243.604 231.658 243.695C232.57 243.775 233.487 243.883 234.41 244.02C235.333 244.156 236.227 244.344 237.093 244.583C237.97 244.823 238.745 245.165 239.417 245.609C240.101 246.053 240.647 246.629 241.058 247.335C241.468 248.041 241.673 248.936 241.673 250.018ZM260.386 240.978C259.281 240.921 258.17 240.869 257.054 240.824C255.949 240.778 254.843 240.738 253.738 240.704C253.602 242.971 253.482 245.233 253.379 247.489C253.277 249.745 253.197 252.018 253.14 254.308L248.15 254.803C248.218 250.633 248.252 246.503 248.252 242.413V240.602H247.022C246.338 240.602 245.655 240.607 244.971 240.619C244.288 240.63 243.604 240.636 242.92 240.636V236.295C243.217 236.295 243.513 236.301 243.809 236.312C244.117 236.323 244.43 236.329 244.749 236.329H248.218C248.218 235.27 248.213 234.227 248.201 233.202C248.19 232.165 248.173 231.128 248.15 230.091H254.627C254.513 231.117 254.41 232.136 254.319 233.15C254.24 234.153 254.166 235.156 254.097 236.158C255.157 236.113 256.199 236.067 257.225 236.021C258.261 235.965 259.315 235.902 260.386 235.833V240.978ZM275.357 245.814C275.38 245.529 275.403 245.25 275.425 244.977C275.448 244.692 275.459 244.407 275.459 244.122C275.459 243.142 275.357 242.174 275.152 241.217C274.092 241.262 273.038 241.336 271.99 241.439C270.953 241.542 269.905 241.678 268.846 241.849V245.25C268.846 246.743 268.846 248.224 268.846 249.693C268.846 251.152 268.857 252.621 268.88 254.103L262.796 254.53C262.83 254.108 262.847 253.692 262.847 253.282C262.859 252.872 262.864 252.456 262.864 252.035C262.864 249.391 262.813 246.777 262.71 244.19C262.619 241.604 262.483 239.007 262.3 236.397L268.88 235.833C268.88 236.153 268.874 236.472 268.863 236.791C268.851 237.098 268.846 237.411 268.846 237.73C269.507 237.252 270.167 236.887 270.828 236.637C271.5 236.386 272.11 236.198 272.657 236.073C273.283 235.936 273.893 235.856 274.485 235.833C275.83 235.902 277.032 236.209 278.091 236.756C278.536 236.984 278.974 237.28 279.407 237.645C279.84 237.998 280.228 238.437 280.569 238.961C280.911 239.474 281.185 240.083 281.39 240.79C281.595 241.485 281.697 242.293 281.697 243.216C281.697 243.535 281.68 243.871 281.646 244.225C281.612 244.566 281.566 244.931 281.509 245.318L275.357 245.814ZM296.224 250.462C296.292 249.494 296.338 248.554 296.36 247.643C296.395 246.731 296.412 245.831 296.412 244.942C296.412 244.02 296.395 243.114 296.36 242.225C296.338 241.325 296.292 240.396 296.224 239.439C295.836 239.382 295.449 239.348 295.062 239.337C294.686 239.314 294.304 239.303 293.917 239.303C292.321 239.303 290.783 239.479 289.302 239.833C289.268 240.448 289.234 241.057 289.2 241.661C289.177 242.265 289.166 242.869 289.166 243.473C289.166 244.68 289.211 245.888 289.302 247.096C289.405 248.292 289.553 249.545 289.747 250.855C290.009 250.878 290.271 250.89 290.533 250.89C290.806 250.89 291.085 250.89 291.37 250.89C292.156 250.89 292.954 250.855 293.763 250.787C294.583 250.719 295.403 250.611 296.224 250.462ZM302.564 245.079C302.564 246.435 302.296 247.711 301.761 248.907C301.237 250.092 300.519 251.129 299.607 252.018C298.696 252.906 297.625 253.607 296.395 254.12C295.175 254.644 293.871 254.906 292.481 254.906C291.102 254.906 289.832 254.644 288.67 254.12C287.519 253.607 286.522 252.906 285.679 252.018C284.847 251.129 284.198 250.092 283.731 248.907C283.264 247.711 283.03 246.435 283.03 245.079C283.03 243.404 283.264 241.952 283.731 240.721C284.198 239.491 284.847 238.471 285.679 237.662C286.522 236.853 287.519 236.255 288.67 235.868C289.832 235.469 291.102 235.27 292.481 235.27C293.871 235.27 295.175 235.492 296.395 235.936C297.625 236.38 298.696 237.024 299.607 237.867C300.519 238.71 301.237 239.741 301.761 240.96C302.296 242.168 302.564 243.541 302.564 245.079Z" fill="black"/>
</svg>
