<svg width="429" height="300" viewBox="0 0 429 300" fill="none" xmlns="http://www.w3.org/2000/svg">
<path d="M37.7227 259.967C37.791 259.283 37.8537 258.531 37.9106 257.711C37.9676 256.891 38.0132 256.053 38.0474 255.199C38.0815 254.344 38.1043 253.507 38.1157 252.687C38.1385 251.855 38.1499 251.097 38.1499 250.414C38.1499 249.103 38.1157 247.742 38.0474 246.329C37.979 244.905 37.8708 243.538 37.7227 242.228C37.5518 242.216 37.3467 242.205 37.1074 242.193C36.8682 242.182 36.6175 242.176 36.3555 242.176C36.1048 242.165 35.8599 242.159 35.6206 242.159C35.3813 242.159 35.1763 242.159 35.0054 242.159C34.4927 242.159 33.9458 242.171 33.3647 242.193C32.7951 242.216 32.214 242.256 31.6216 242.313C31.0291 242.359 30.4424 242.421 29.8613 242.501C29.2917 242.569 28.7505 242.655 28.2378 242.757C28.2378 243.008 28.2321 243.333 28.2207 243.731C28.2207 244.119 28.2207 244.523 28.2207 244.945C28.2207 245.355 28.215 245.754 28.2036 246.141C28.2036 246.517 28.2036 246.825 28.2036 247.064C28.2036 249.194 28.272 251.359 28.4087 253.558C28.5568 255.757 28.7733 257.893 29.0581 259.967C29.3429 260.012 29.6619 260.052 30.0151 260.086C30.3797 260.121 30.75 260.149 31.126 260.172C31.502 260.183 31.8722 260.195 32.2368 260.206C32.6014 260.217 32.9261 260.223 33.2109 260.223C33.5299 260.223 33.8831 260.217 34.2705 260.206C34.6579 260.195 35.0509 260.183 35.4497 260.172C35.8485 260.149 36.2415 260.121 36.6289 260.086C37.0277 260.052 37.3923 260.012 37.7227 259.967ZM46.0625 251.644C46.0625 253.513 45.7492 255.25 45.1226 256.856C44.4959 258.463 43.6073 259.859 42.4565 261.043C41.3058 262.217 39.9215 263.146 38.3037 263.829C36.6973 264.501 34.9085 264.837 32.9375 264.837C32.083 264.837 31.1943 264.735 30.2715 264.53C29.3486 264.336 28.4429 264.017 27.5542 263.573C26.6655 263.117 25.8167 262.53 25.0078 261.812C24.2103 261.095 23.5096 260.217 22.9058 259.181C22.3019 258.144 21.8177 256.936 21.4531 255.558C21.0999 254.179 20.9233 252.607 20.9233 250.841C20.9233 249.109 21.1227 247.594 21.5215 246.295C21.9316 244.996 22.4671 243.885 23.1279 242.962C23.7887 242.028 24.5464 241.259 25.4009 240.655C26.2668 240.051 27.1554 239.573 28.0669 239.22C28.9784 238.867 29.8784 238.622 30.7671 238.485C31.6558 238.348 32.4704 238.28 33.2109 238.28C34.3617 238.28 35.4725 238.388 36.5435 238.604C37.6258 238.81 38.6398 239.14 39.5854 239.596C40.5311 240.04 41.397 240.615 42.1831 241.322C42.9692 242.028 43.6471 242.877 44.2168 243.868C44.7865 244.859 45.2308 245.999 45.5498 247.286C45.8802 248.574 46.0511 250.026 46.0625 251.644ZM61.2212 250.807C60.3667 250.772 59.5179 250.75 58.6748 250.738C57.8431 250.715 57 250.693 56.1455 250.67C56.2367 252.869 56.3848 255.051 56.5898 257.215C56.8063 259.369 57.0911 261.539 57.4443 263.727L51.0869 264.342C50.973 262.975 50.8761 261.647 50.7964 260.36C50.7166 259.072 50.6483 257.848 50.5913 256.686C50.5343 255.523 50.4888 254.441 50.4546 253.438C50.4204 252.424 50.3976 251.513 50.3862 250.704L47.6177 250.807V246.534C48.0734 246.568 48.5234 246.603 48.9678 246.637C49.4235 246.66 49.8849 246.682 50.3521 246.705C50.3521 246.625 50.3634 246.443 50.3862 246.158C50.409 245.873 50.4603 245.52 50.54 245.099C50.6198 244.677 50.7451 244.21 50.916 243.697C51.0869 243.185 51.3205 242.666 51.6167 242.142C51.9129 241.618 52.2775 241.111 52.7104 240.621C53.1548 240.12 53.6903 239.681 54.3169 239.305C54.9435 238.918 55.6727 238.61 56.5044 238.382C57.3475 238.143 58.3159 238.023 59.4097 238.023C59.8084 238.023 60.2243 238.046 60.6572 238.092C61.1016 238.126 61.563 238.189 62.0415 238.28V242.928C61.4946 242.837 60.9478 242.774 60.4009 242.74C59.8654 242.706 59.3128 242.689 58.7432 242.689C58.3216 242.689 57.8887 242.7 57.4443 242.723C57 242.746 56.5557 242.792 56.1113 242.86C56.0885 243.441 56.0771 244.022 56.0771 244.603C56.0771 245.173 56.0771 245.748 56.0771 246.329V246.773C56.9316 246.751 57.7804 246.722 58.6235 246.688C59.478 246.654 60.3439 246.603 61.2212 246.534V250.807ZM82.1562 255.985L68.792 257.062C68.849 257.768 68.9287 258.469 69.0312 259.164C69.1338 259.859 69.2648 260.559 69.4243 261.266C70.4269 261.334 71.3953 261.368 72.3296 261.368C72.8423 261.368 73.3379 261.362 73.8164 261.351C74.2949 261.328 74.7905 261.3 75.3032 261.266C75.326 261.038 75.3431 260.81 75.3545 260.582C75.3659 260.354 75.3716 260.126 75.3716 259.898C75.3716 259.693 75.3659 259.494 75.3545 259.3C75.3545 259.095 75.3374 258.89 75.3032 258.685L81.7461 258.822C81.4271 259.904 80.9657 260.833 80.3618 261.607C79.7694 262.382 79.063 263.02 78.2427 263.521C77.4338 264.011 76.528 264.37 75.5254 264.598C74.5228 264.826 73.4689 264.94 72.3638 264.94C71.008 264.94 69.7319 264.758 68.5356 264.393C67.3507 264.028 66.314 263.442 65.4253 262.633C64.548 261.812 63.853 260.747 63.3403 259.437C62.839 258.127 62.5884 256.52 62.5884 254.618C62.5884 253.08 62.8561 251.758 63.3916 250.653C63.9271 249.548 64.6392 248.636 65.5278 247.918C66.4279 247.201 67.4647 246.677 68.6382 246.346C69.8231 246.004 71.0649 245.833 72.3638 245.833C73.7196 245.833 74.9899 246.016 76.1748 246.38C77.3711 246.745 78.4079 247.315 79.2852 248.089C80.1738 248.864 80.8745 249.855 81.3872 251.063C81.8999 252.271 82.1562 253.712 82.1562 255.387V255.985ZM68.6211 253.473H75.4741C75.4741 252.06 75.3317 250.715 75.0469 249.439C74.0671 249.234 73.0417 249.132 71.9707 249.132C70.9225 249.132 69.863 249.234 68.792 249.439C68.7236 250.077 68.6781 250.727 68.6553 251.388C68.6325 252.037 68.6211 252.732 68.6211 253.473ZM97.3662 255.814C97.389 255.529 97.4118 255.25 97.4346 254.977C97.4574 254.692 97.4688 254.407 97.4688 254.122C97.4688 253.142 97.3662 252.174 97.1611 251.217C96.1016 251.262 95.0477 251.336 93.9995 251.439C92.9627 251.542 91.9146 251.678 90.855 251.849V255.25C90.855 256.743 90.855 258.224 90.855 259.693C90.855 261.152 90.8664 262.621 90.8892 264.103L84.8052 264.53C84.8394 264.108 84.8564 263.692 84.8564 263.282C84.8678 262.872 84.8735 262.456 84.8735 262.035C84.8735 259.391 84.8223 256.777 84.7197 254.19C84.6286 251.604 84.4919 249.007 84.3096 246.397L90.8892 245.833C90.8892 246.153 90.8835 246.472 90.8721 246.791C90.8607 247.098 90.855 247.411 90.855 247.73C91.5158 247.252 92.1766 246.887 92.8374 246.637C93.5096 246.386 94.1191 246.198 94.666 246.073C95.2926 245.936 95.9022 245.856 96.4946 245.833C97.839 245.902 99.041 246.209 100.101 246.756C100.545 246.984 100.984 247.28 101.417 247.645C101.849 247.998 102.237 248.437 102.579 248.961C102.92 249.474 103.194 250.083 103.399 250.79C103.604 251.485 103.707 252.293 103.707 253.216C103.707 253.535 103.689 253.871 103.655 254.225C103.621 254.566 103.576 254.931 103.519 255.318L97.3662 255.814ZM121.976 250.978C120.87 250.921 119.76 250.869 118.643 250.824C117.538 250.778 116.433 250.738 115.328 250.704C115.191 252.971 115.071 255.233 114.969 257.489C114.866 259.745 114.786 262.018 114.729 264.308L109.739 264.803C109.808 260.633 109.842 256.503 109.842 252.413V250.602H108.611C107.928 250.602 107.244 250.607 106.561 250.619C105.877 250.63 105.193 250.636 104.51 250.636V246.295C104.806 246.295 105.102 246.301 105.398 246.312C105.706 246.323 106.019 246.329 106.338 246.329H109.808C109.808 245.27 109.802 244.227 109.791 243.202C109.779 242.165 109.762 241.128 109.739 240.091H116.216C116.102 241.117 116 242.136 115.909 243.15C115.829 244.153 115.755 245.156 115.687 246.158C116.746 246.113 117.789 246.067 118.814 246.021C119.851 245.965 120.905 245.902 121.976 245.833V250.978ZM137.715 264.564C137.715 264.234 137.71 263.903 137.698 263.573C137.687 263.231 137.681 262.895 137.681 262.564C137.077 263.111 136.445 263.527 135.784 263.812C135.135 264.085 134.537 264.291 133.99 264.427C133.352 264.587 132.719 264.678 132.093 264.701C130.953 264.701 129.854 264.524 128.794 264.171C127.746 263.829 126.812 263.311 125.992 262.616C125.171 261.921 124.505 261.055 123.992 260.018C123.491 258.97 123.212 257.757 123.155 256.378C123.155 254.988 123.343 253.723 123.719 252.584C124.095 251.433 124.659 250.448 125.411 249.627C126.163 248.807 127.097 248.175 128.213 247.73C129.33 247.275 130.623 247.041 132.093 247.03C132.138 247.03 132.309 247.041 132.605 247.064C132.913 247.075 133.289 247.127 133.733 247.218C134.178 247.298 134.662 247.434 135.186 247.628C135.71 247.81 136.229 248.067 136.741 248.397L136.468 246.295L143.218 245.833C143.082 249.103 143.013 252.356 143.013 255.592C143.013 256.378 143.013 257.124 143.013 257.831C143.025 258.526 143.036 259.221 143.047 259.916C143.07 260.599 143.093 261.294 143.116 262C143.15 262.695 143.184 263.43 143.218 264.205L137.715 264.564ZM129.734 260.428C131.09 260.371 132.423 260.28 133.733 260.155C135.044 260.029 136.337 259.841 137.613 259.591C137.579 258.178 137.516 256.811 137.425 255.489C137.345 254.168 137.231 252.818 137.083 251.439H136.109C135.004 251.439 133.893 251.479 132.776 251.559C131.671 251.627 130.555 251.747 129.427 251.917C129.29 253.114 129.222 254.316 129.222 255.523C129.222 255.979 129.233 256.406 129.256 256.805C129.279 257.193 129.307 257.58 129.341 257.967C129.387 258.355 129.438 258.748 129.495 259.146C129.563 259.545 129.643 259.972 129.734 260.428ZM164.649 260.018C164.649 261.021 164.393 261.858 163.88 262.53C163.367 263.191 162.695 263.721 161.863 264.12C161.032 264.53 160.086 264.815 159.026 264.974C157.967 265.145 156.89 265.23 155.796 265.23C155.193 265.23 154.543 265.191 153.848 265.111C153.165 265.042 152.475 264.911 151.78 264.718C151.085 264.535 150.407 264.291 149.747 263.983C149.097 263.664 148.505 263.265 147.969 262.787C147.434 262.308 146.972 261.744 146.585 261.095C146.209 260.445 145.953 259.688 145.816 258.822L152.754 258.753L153.028 261.727H158.343L158.736 258.292C158.029 258.132 157.221 257.996 156.309 257.882C155.398 257.768 154.463 257.631 153.506 257.472C152.549 257.301 151.609 257.084 150.687 256.822C149.764 256.56 148.943 256.201 148.226 255.746C147.508 255.29 146.927 254.715 146.482 254.02C146.038 253.325 145.816 252.464 145.816 251.439C145.816 250.334 146.084 249.405 146.619 248.653C147.155 247.89 147.855 247.28 148.721 246.825C149.598 246.358 150.59 246.016 151.695 245.799C152.8 245.583 153.922 245.458 155.062 245.423C155.665 245.423 156.315 245.458 157.01 245.526C157.716 245.594 158.417 245.72 159.112 245.902C159.807 246.073 160.473 246.312 161.111 246.62C161.761 246.927 162.336 247.32 162.837 247.799C163.35 248.266 163.766 248.836 164.085 249.508C164.415 250.169 164.603 250.949 164.649 251.849L157.933 252.14V248.773H152.156V253.319C152.897 253.478 153.723 253.604 154.634 253.695C155.546 253.775 156.463 253.883 157.386 254.02C158.309 254.156 159.203 254.344 160.069 254.583C160.946 254.823 161.721 255.165 162.393 255.609C163.077 256.053 163.624 256.629 164.034 257.335C164.444 258.041 164.649 258.936 164.649 260.018ZM196.556 255.985L183.191 257.062C183.248 257.768 183.328 258.469 183.431 259.164C183.533 259.859 183.664 260.559 183.824 261.266C184.826 261.334 185.795 261.368 186.729 261.368C187.242 261.368 187.737 261.362 188.216 261.351C188.694 261.328 189.19 261.3 189.703 261.266C189.725 261.038 189.743 260.81 189.754 260.582C189.765 260.354 189.771 260.126 189.771 259.898C189.771 259.693 189.765 259.494 189.754 259.3C189.754 259.095 189.737 258.89 189.703 258.685L196.146 258.822C195.826 259.904 195.365 260.833 194.761 261.607C194.169 262.382 193.462 263.02 192.642 263.521C191.833 264.011 190.927 264.37 189.925 264.598C188.922 264.826 187.868 264.94 186.763 264.94C185.407 264.94 184.131 264.758 182.935 264.393C181.75 264.028 180.713 263.442 179.825 262.633C178.947 261.812 178.252 260.747 177.74 259.437C177.238 258.127 176.988 256.52 176.988 254.618C176.988 253.08 177.256 251.758 177.791 250.653C178.326 249.548 179.039 248.636 179.927 247.918C180.827 247.201 181.864 246.677 183.038 246.346C184.222 246.004 185.464 245.833 186.763 245.833C188.119 245.833 189.389 246.016 190.574 246.38C191.771 246.745 192.807 247.315 193.685 248.089C194.573 248.864 195.274 249.855 195.787 251.063C196.299 252.271 196.556 253.712 196.556 255.387V255.985ZM183.021 253.473H189.874C189.874 252.06 189.731 250.715 189.446 249.439C188.466 249.234 187.441 249.132 186.37 249.132C185.322 249.132 184.262 249.234 183.191 249.439C183.123 250.077 183.077 250.727 183.055 251.388C183.032 252.037 183.021 252.732 183.021 253.473ZM229.471 255.079C229.471 256.503 229.277 257.785 228.89 258.924C228.514 260.052 227.967 261.009 227.249 261.795C226.531 262.582 225.654 263.185 224.617 263.607C223.58 264.028 222.407 264.239 221.097 264.239C220.345 264.216 219.604 264.114 218.875 263.932C218.567 263.852 218.243 263.755 217.901 263.641C217.57 263.516 217.234 263.368 216.893 263.197C216.562 263.014 216.243 262.804 215.936 262.564C215.628 262.325 215.343 262.046 215.081 261.727C215.115 263.675 215.161 265.601 215.218 267.503C215.275 269.417 215.349 271.257 215.44 273.023L208.963 272.613C209.088 270.597 209.196 268.478 209.288 266.256C209.379 264.034 209.453 261.795 209.51 259.54C209.578 257.272 209.624 255.022 209.646 252.789C209.681 250.556 209.698 248.414 209.698 246.363H215.44C215.372 247.07 215.32 247.77 215.286 248.465C215.548 248.181 215.833 247.936 216.141 247.73C216.46 247.514 216.784 247.326 217.115 247.167C217.445 247.007 217.776 246.87 218.106 246.756C218.448 246.642 218.772 246.551 219.08 246.483C219.798 246.312 220.533 246.215 221.285 246.192C221.911 246.192 222.549 246.284 223.199 246.466C223.848 246.637 224.475 246.893 225.079 247.235C225.694 247.577 226.264 247.998 226.788 248.5C227.323 249.001 227.79 249.582 228.189 250.243C228.588 250.903 228.901 251.638 229.129 252.447C229.357 253.245 229.471 254.122 229.471 255.079ZM215.081 259.522C215.913 259.728 216.693 259.876 217.422 259.967C218.163 260.047 218.938 260.086 219.747 260.086C220.225 260.086 220.726 260.069 221.25 260.035C221.775 260.001 222.344 259.955 222.959 259.898C223.016 259.386 223.051 258.879 223.062 258.377C223.085 257.876 223.096 257.369 223.096 256.856C223.096 255.82 223.056 254.8 222.977 253.797C222.897 252.783 222.783 251.764 222.635 250.738C221.552 250.67 220.601 250.636 219.781 250.636C219.382 250.636 219 250.647 218.636 250.67C218.271 250.681 217.901 250.704 217.525 250.738C217.16 250.761 216.784 250.79 216.397 250.824C216.021 250.858 215.617 250.898 215.184 250.943C215.115 253.393 215.081 255.888 215.081 258.429V259.522ZM244.988 255.814C245.011 255.529 245.034 255.25 245.057 254.977C245.079 254.692 245.091 254.407 245.091 254.122C245.091 253.142 244.988 252.174 244.783 251.217C243.724 251.262 242.67 251.336 241.622 251.439C240.585 251.542 239.537 251.678 238.477 251.849V255.25C238.477 256.743 238.477 258.224 238.477 259.693C238.477 261.152 238.488 262.621 238.511 264.103L232.427 264.53C232.461 264.108 232.479 263.692 232.479 263.282C232.49 262.872 232.496 262.456 232.496 262.035C232.496 259.391 232.444 256.777 232.342 254.19C232.251 251.604 232.114 249.007 231.932 246.397L238.511 245.833C238.511 246.153 238.506 246.472 238.494 246.791C238.483 247.098 238.477 247.411 238.477 247.73C239.138 247.252 239.799 246.887 240.459 246.637C241.132 246.386 241.741 246.198 242.288 246.073C242.915 245.936 243.524 245.856 244.117 245.833C245.461 245.902 246.663 246.209 247.723 246.756C248.167 246.984 248.606 247.28 249.039 247.645C249.472 247.998 249.859 248.437 250.201 248.961C250.542 249.474 250.816 250.083 251.021 250.79C251.226 251.485 251.329 252.293 251.329 253.216C251.329 253.535 251.312 253.871 251.277 254.225C251.243 254.566 251.198 254.931 251.141 255.318L244.988 255.814ZM265.855 260.462C265.923 259.494 265.969 258.554 265.992 257.643C266.026 256.731 266.043 255.831 266.043 254.942C266.043 254.02 266.026 253.114 265.992 252.225C265.969 251.325 265.923 250.396 265.855 249.439C265.468 249.382 265.08 249.348 264.693 249.337C264.317 249.314 263.935 249.303 263.548 249.303C261.953 249.303 260.415 249.479 258.934 249.833C258.899 250.448 258.865 251.057 258.831 251.661C258.808 252.265 258.797 252.869 258.797 253.473C258.797 254.68 258.842 255.888 258.934 257.096C259.036 258.292 259.184 259.545 259.378 260.855C259.64 260.878 259.902 260.89 260.164 260.89C260.438 260.89 260.717 260.89 261.001 260.89C261.788 260.89 262.585 260.855 263.394 260.787C264.214 260.719 265.035 260.611 265.855 260.462ZM272.195 255.079C272.195 256.435 271.928 257.711 271.392 258.907C270.868 260.092 270.15 261.129 269.239 262.018C268.327 262.906 267.256 263.607 266.026 264.12C264.807 264.644 263.502 264.906 262.112 264.906C260.734 264.906 259.463 264.644 258.301 264.12C257.151 263.607 256.154 262.906 255.311 262.018C254.479 261.129 253.829 260.092 253.362 258.907C252.895 257.711 252.662 256.435 252.662 255.079C252.662 253.404 252.895 251.952 253.362 250.721C253.829 249.491 254.479 248.471 255.311 247.662C256.154 246.853 257.151 246.255 258.301 245.868C259.463 245.469 260.734 245.27 262.112 245.27C263.502 245.27 264.807 245.492 266.026 245.936C267.256 246.38 268.327 247.024 269.239 247.867C270.15 248.71 270.868 249.741 271.392 250.96C271.928 252.168 272.195 253.541 272.195 255.079ZM292.088 255.523C292.088 256.97 292.002 258.44 291.832 259.933C291.661 261.425 291.399 262.923 291.045 264.427H285.098C285.235 262.821 285.343 261.226 285.423 259.642C285.503 258.058 285.542 256.463 285.542 254.857C285.542 254.31 285.542 253.769 285.542 253.233C285.542 252.698 285.531 252.168 285.508 251.644C284.996 251.587 284.489 251.553 283.987 251.542C283.497 251.519 282.99 251.507 282.466 251.507C282.17 251.507 281.868 251.513 281.561 251.524C281.264 251.536 280.957 251.542 280.638 251.542C280.604 252.35 280.581 253.108 280.569 253.814C280.569 254.509 280.569 255.21 280.569 255.917C280.569 256.498 280.575 257.09 280.586 257.694C280.598 258.286 280.615 258.924 280.638 259.608C280.672 260.292 280.712 261.032 280.757 261.83C280.803 262.616 280.86 263.482 280.928 264.427H275.186C275.186 263.06 275.18 261.852 275.169 260.804C275.158 259.756 275.14 258.793 275.118 257.916C275.095 257.027 275.061 256.184 275.015 255.387C274.981 254.578 274.935 253.735 274.878 252.857C274.821 251.969 274.759 251.006 274.69 249.969C274.622 248.921 274.542 247.719 274.451 246.363L280.928 245.97L280.792 248.5C281.361 248.226 281.919 248.015 282.466 247.867C283.013 247.719 283.503 247.611 283.936 247.542C284.437 247.463 284.916 247.417 285.372 247.406C286.249 247.406 287.029 247.531 287.713 247.782C288.396 248.021 288.995 248.351 289.507 248.773C290.168 248.203 290.863 247.77 291.592 247.474C292.333 247.167 293.016 246.939 293.643 246.791C294.372 246.62 295.09 246.523 295.796 246.5C296.639 246.5 297.386 246.614 298.035 246.842C298.696 247.07 299.277 247.389 299.778 247.799C300.28 248.198 300.701 248.676 301.043 249.234C301.396 249.781 301.681 250.374 301.897 251.012C302.114 251.638 302.268 252.299 302.359 252.994C302.461 253.689 302.513 254.384 302.513 255.079C302.513 256.594 302.427 258.132 302.256 259.693C302.097 261.254 301.835 262.832 301.47 264.427H295.523C295.66 262.73 295.768 261.049 295.848 259.386C295.927 257.711 295.967 256.03 295.967 254.344C295.967 253.775 295.967 253.211 295.967 252.652C295.967 252.083 295.956 251.513 295.933 250.943C295.42 250.886 294.913 250.852 294.412 250.841C293.911 250.818 293.392 250.807 292.857 250.807C292.561 250.807 292.27 250.812 291.985 250.824C291.701 250.835 291.41 250.841 291.114 250.841C291.467 251.547 291.718 252.305 291.866 253.114C292.014 253.911 292.088 254.715 292.088 255.523ZM317.945 260.462C318.013 259.494 318.059 258.554 318.082 257.643C318.116 256.731 318.133 255.831 318.133 254.942C318.133 254.02 318.116 253.114 318.082 252.225C318.059 251.325 318.013 250.396 317.945 249.439C317.557 249.382 317.17 249.348 316.783 249.337C316.407 249.314 316.025 249.303 315.638 249.303C314.043 249.303 312.505 249.479 311.023 249.833C310.989 250.448 310.955 251.057 310.921 251.661C310.898 252.265 310.887 252.869 310.887 253.473C310.887 254.68 310.932 255.888 311.023 257.096C311.126 258.292 311.274 259.545 311.468 260.855C311.73 260.878 311.992 260.89 312.254 260.89C312.527 260.89 312.806 260.89 313.091 260.89C313.877 260.89 314.675 260.855 315.484 260.787C316.304 260.719 317.125 260.611 317.945 260.462ZM324.285 255.079C324.285 256.435 324.017 257.711 323.482 258.907C322.958 260.092 322.24 261.129 321.329 262.018C320.417 262.906 319.346 263.607 318.116 264.12C316.897 264.644 315.592 264.906 314.202 264.906C312.824 264.906 311.553 264.644 310.391 264.12C309.24 263.607 308.243 262.906 307.4 262.018C306.569 261.129 305.919 260.092 305.452 258.907C304.985 257.711 304.751 256.435 304.751 255.079C304.751 253.404 304.985 251.952 305.452 250.721C305.919 249.491 306.569 248.471 307.4 247.662C308.243 246.853 309.24 246.255 310.391 245.868C311.553 245.469 312.824 245.27 314.202 245.27C315.592 245.27 316.897 245.492 318.116 245.936C319.346 246.38 320.417 247.024 321.329 247.867C322.24 248.71 322.958 249.741 323.482 250.96C324.017 252.168 324.285 253.541 324.285 255.079ZM340.008 268.905C340.008 269.52 339.854 270.038 339.546 270.46C339.25 270.882 338.886 271.223 338.453 271.485C338.031 271.759 337.581 271.952 337.103 272.066C336.635 272.192 336.231 272.254 335.889 272.254C335.604 272.266 335.251 272.254 334.83 272.22C334.465 272.197 334.009 272.163 333.462 272.118C332.916 272.072 332.255 272.004 331.48 271.913V269.879C332.209 269.947 332.933 269.981 333.65 269.981C334.004 269.981 334.351 269.97 334.693 269.947C335.035 269.936 335.388 269.913 335.752 269.879C335.809 269.708 335.844 269.526 335.855 269.332C335.878 269.15 335.889 268.973 335.889 268.802C335.889 268.62 335.878 268.443 335.855 268.272C335.844 268.102 335.809 267.925 335.752 267.743C335.49 267.708 335.217 267.674 334.932 267.64C334.659 267.617 334.38 267.606 334.095 267.606C333.833 267.606 333.554 267.617 333.257 267.64C332.972 267.674 332.682 267.708 332.386 267.743C332.431 267.617 332.505 267.452 332.608 267.247C332.71 267.042 332.83 266.808 332.967 266.546C333.115 266.284 333.274 266.005 333.445 265.709C333.628 265.413 333.81 265.111 333.992 264.803C332.864 264.655 331.816 264.359 330.848 263.915C329.891 263.459 329.059 262.826 328.353 262.018C327.658 261.197 327.111 260.178 326.712 258.958C326.313 257.739 326.114 256.292 326.114 254.618C326.114 253.08 326.382 251.758 326.917 250.653C327.452 249.548 328.165 248.636 329.053 247.918C329.953 247.201 330.99 246.677 332.164 246.346C333.348 246.004 334.59 245.833 335.889 245.833C337.04 245.833 338.134 245.97 339.17 246.244C340.207 246.506 341.141 246.916 341.973 247.474C342.816 248.021 343.534 248.727 344.126 249.593C344.719 250.448 345.146 251.467 345.408 252.652H338.572C338.629 252.379 338.669 252.105 338.692 251.832C338.715 251.547 338.726 251.262 338.726 250.978C338.726 250.715 338.715 250.459 338.692 250.208C338.669 249.958 338.629 249.701 338.572 249.439C338.082 249.348 337.587 249.286 337.085 249.251C336.584 249.217 336.066 249.2 335.53 249.2C335.006 249.2 334.476 249.217 333.941 249.251C333.405 249.286 332.864 249.348 332.317 249.439C332.26 250.055 332.215 250.659 332.181 251.251C332.158 251.843 332.146 252.442 332.146 253.045C332.146 254.435 332.215 255.814 332.352 257.181C332.5 258.537 332.699 259.898 332.95 261.266C333.462 261.323 333.952 261.362 334.419 261.385C334.898 261.397 335.388 261.402 335.889 261.402C336.379 261.402 336.863 261.397 337.342 261.385C337.82 261.362 338.316 261.323 338.829 261.266C338.851 261.026 338.868 260.793 338.88 260.565C338.891 260.337 338.897 260.115 338.897 259.898C338.897 259.693 338.891 259.488 338.88 259.283C338.868 259.078 338.851 258.879 338.829 258.685L345.271 258.822C344.975 259.859 344.548 260.753 343.99 261.505C343.431 262.245 342.771 262.861 342.007 263.351C341.255 263.84 340.412 264.211 339.478 264.461C338.555 264.712 337.581 264.86 336.556 264.906L335.992 266.273C336.994 266.319 337.769 266.478 338.316 266.751C338.863 267.036 339.262 267.338 339.512 267.657C339.808 268.033 339.974 268.449 340.008 268.905ZM360.157 260.462C360.225 259.494 360.271 258.554 360.293 257.643C360.328 256.731 360.345 255.831 360.345 254.942C360.345 254.02 360.328 253.114 360.293 252.225C360.271 251.325 360.225 250.396 360.157 249.439C359.769 249.382 359.382 249.348 358.995 249.337C358.619 249.314 358.237 249.303 357.85 249.303C356.255 249.303 354.716 249.479 353.235 249.833C353.201 250.448 353.167 251.057 353.133 251.661C353.11 252.265 353.099 252.869 353.099 253.473C353.099 254.68 353.144 255.888 353.235 257.096C353.338 258.292 353.486 259.545 353.68 260.855C353.942 260.878 354.204 260.89 354.466 260.89C354.739 260.89 355.018 260.89 355.303 260.89C356.089 260.89 356.887 260.855 357.696 260.787C358.516 260.719 359.336 260.611 360.157 260.462ZM366.497 255.079C366.497 256.435 366.229 257.711 365.694 258.907C365.17 260.092 364.452 261.129 363.541 262.018C362.629 262.906 361.558 263.607 360.328 264.12C359.109 264.644 357.804 264.906 356.414 264.906C355.035 264.906 353.765 264.644 352.603 264.12C351.452 263.607 350.455 262.906 349.612 262.018C348.781 261.129 348.131 260.092 347.664 258.907C347.197 257.711 346.963 256.435 346.963 255.079C346.963 253.404 347.197 251.952 347.664 250.721C348.131 249.491 348.781 248.471 349.612 247.662C350.455 246.853 351.452 246.255 352.603 245.868C353.765 245.469 355.035 245.27 356.414 245.27C357.804 245.27 359.109 245.492 360.328 245.936C361.558 246.38 362.629 247.024 363.541 247.867C364.452 248.71 365.17 249.741 365.694 250.96C366.229 252.168 366.497 253.541 366.497 255.079ZM364.104 238.656C364.127 238.884 364.15 239.1 364.173 239.305C364.207 239.51 364.224 239.71 364.224 239.903C364.224 240.484 364.15 240.991 364.002 241.424C363.865 241.857 363.677 242.239 363.438 242.569C363.21 242.888 362.948 243.156 362.652 243.373C362.356 243.589 362.054 243.771 361.746 243.919C361.028 244.261 360.208 244.455 359.285 244.5C358.681 244.478 358.112 244.375 357.576 244.193C357.12 244.045 356.676 243.806 356.243 243.475C355.81 243.145 355.503 242.678 355.32 242.074H353.646C353.577 242.29 353.532 242.507 353.509 242.723C353.486 242.928 353.475 243.145 353.475 243.373C353.475 243.566 353.48 243.754 353.492 243.937C353.514 244.119 353.554 244.307 353.611 244.5L349.236 244.142C349.236 243.504 349.31 242.94 349.458 242.45C349.618 241.96 349.823 241.538 350.074 241.185C350.336 240.82 350.626 240.513 350.945 240.262C351.276 240.012 351.612 239.806 351.954 239.647C352.751 239.271 353.663 239.055 354.688 238.998C354.699 238.998 354.802 239.003 354.996 239.015C355.189 239.026 355.434 239.06 355.73 239.117C356.027 239.174 356.34 239.265 356.67 239.391C357.012 239.505 357.331 239.675 357.627 239.903C357.924 240.131 358.169 240.422 358.362 240.775C358.567 241.128 358.676 241.561 358.687 242.074H360.259C360.282 241.914 360.293 241.766 360.293 241.629C360.293 241.481 360.293 241.339 360.293 241.202C360.293 240.781 360.254 240.359 360.174 239.938C360.105 239.505 359.98 239.077 359.798 238.656H364.104ZM387.859 255.985L374.495 257.062C374.552 257.768 374.632 258.469 374.734 259.164C374.837 259.859 374.968 260.559 375.127 261.266C376.13 261.334 377.098 261.368 378.033 261.368C378.545 261.368 379.041 261.362 379.52 261.351C379.998 261.328 380.494 261.3 381.006 261.266C381.029 261.038 381.046 260.81 381.058 260.582C381.069 260.354 381.075 260.126 381.075 259.898C381.075 259.693 381.069 259.494 381.058 259.3C381.058 259.095 381.041 258.89 381.006 258.685L387.449 258.822C387.13 259.904 386.669 260.833 386.065 261.607C385.472 262.382 384.766 263.02 383.946 263.521C383.137 264.011 382.231 264.37 381.229 264.598C380.226 264.826 379.172 264.94 378.067 264.94C376.711 264.94 375.435 264.758 374.239 264.393C373.054 264.028 372.017 263.442 371.128 262.633C370.251 261.812 369.556 260.747 369.043 259.437C368.542 258.127 368.292 256.52 368.292 254.618C368.292 253.08 368.559 251.758 369.095 250.653C369.63 249.548 370.342 248.636 371.231 247.918C372.131 247.201 373.168 246.677 374.341 246.346C375.526 246.004 376.768 245.833 378.067 245.833C379.423 245.833 380.693 246.016 381.878 246.38C383.074 246.745 384.111 247.315 384.988 248.089C385.877 248.864 386.578 249.855 387.09 251.063C387.603 252.271 387.859 253.712 387.859 255.387V255.985ZM374.324 253.473H381.177C381.177 252.06 381.035 250.715 380.75 249.439C379.77 249.234 378.745 249.132 377.674 249.132C376.626 249.132 375.566 249.234 374.495 249.439C374.427 250.077 374.381 250.727 374.358 251.388C374.336 252.037 374.324 252.732 374.324 253.473ZM408.213 260.018C408.213 261.021 407.957 261.858 407.444 262.53C406.932 263.191 406.259 263.721 405.428 264.12C404.596 264.53 403.65 264.815 402.591 264.974C401.531 265.145 400.455 265.23 399.361 265.23C398.757 265.23 398.108 265.191 397.413 265.111C396.729 265.042 396.04 264.911 395.345 264.718C394.65 264.535 393.972 264.291 393.311 263.983C392.662 263.664 392.069 263.265 391.534 262.787C390.998 262.308 390.537 261.744 390.149 261.095C389.773 260.445 389.517 259.688 389.38 258.822L396.319 258.753L396.592 261.727H401.907L402.3 258.292C401.594 258.132 400.785 257.996 399.874 257.882C398.962 257.768 398.028 257.631 397.071 257.472C396.114 257.301 395.174 257.084 394.251 256.822C393.328 256.56 392.508 256.201 391.79 255.746C391.072 255.29 390.491 254.715 390.047 254.02C389.603 253.325 389.38 252.464 389.38 251.439C389.38 250.334 389.648 249.405 390.184 248.653C390.719 247.89 391.42 247.28 392.286 246.825C393.163 246.358 394.154 246.016 395.259 245.799C396.364 245.583 397.487 245.458 398.626 245.423C399.23 245.423 399.879 245.458 400.574 245.526C401.281 245.594 401.981 245.72 402.676 245.902C403.371 246.073 404.038 246.312 404.676 246.62C405.325 246.927 405.901 247.32 406.402 247.799C406.915 248.266 407.33 248.836 407.649 249.508C407.98 250.169 408.168 250.949 408.213 251.849L401.497 252.14V248.773H395.721V253.319C396.461 253.478 397.287 253.604 398.199 253.695C399.11 253.775 400.027 253.883 400.95 254.02C401.873 254.156 402.767 254.344 403.633 254.583C404.511 254.823 405.285 255.165 405.958 255.609C406.641 256.053 407.188 256.629 407.598 257.335C408.008 258.041 408.213 258.936 408.213 260.018Z" fill="black"/>
<path d="M329.597 111.513L208.63 4.69009C207.123 3.35158 205.33 2.29038 203.355 1.56793C201.38 0.845469 199.262 0.476098 197.125 0.481192H115.066C108.594 0.487729 102.39 2.76071 97.8145 6.80148C93.2387 10.8423 90.6648 16.3208 90.6573 22.0354V94.3667C90.6609 96.3287 91.1178 98.2695 92.0001 100.07C92.8824 101.871 94.1716 103.494 95.7887 104.839L224.471 211.589C226.726 213.471 229.713 214.517 232.816 214.512C232.967 214.512 233.12 214.509 233.274 214.504C234.887 214.457 236.473 214.125 237.939 213.529C239.406 212.932 240.722 212.083 241.811 211.031L329.95 126.429C332.088 124.386 333.246 121.69 333.181 118.908C333.115 116.126 331.83 113.475 329.597 111.513ZM232.617 198.631L106.929 94.3667V22.0354C106.932 20.1305 107.79 18.3044 109.315 16.9575C110.841 15.6106 112.909 14.8529 115.066 14.8506H197.125L315.332 119.237L232.617 198.631Z" fill="black"/>
<path d="M157.78 36.4048C152.55 36.4048 147.438 37.7743 143.089 40.34C138.741 42.9058 135.352 46.5526 133.351 50.8193C131.349 55.0861 130.826 59.781 131.846 64.3106C132.866 68.8401 135.384 73.0007 139.082 76.2663C142.78 79.5319 147.492 81.7558 152.621 82.6568C157.751 83.5578 163.067 83.0954 167.899 81.328C172.731 79.5607 176.86 76.5678 179.766 72.7279C182.671 68.8879 184.222 64.3734 184.222 59.7551C184.214 53.5644 181.426 47.6292 176.469 43.2517C171.512 38.8742 164.79 36.4118 157.78 36.4048ZM157.78 68.736C155.769 68.736 153.802 68.2093 152.13 67.2225C150.457 66.2356 149.154 64.833 148.384 63.192C147.614 61.5509 147.413 59.7452 147.805 58.003C148.198 56.2609 149.166 54.6607 150.589 53.4047C152.011 52.1487 153.823 51.2933 155.796 50.9468C157.769 50.6003 159.814 50.7781 161.672 51.4579C163.53 52.1376 165.119 53.2887 166.236 54.7656C167.354 56.2425 167.95 57.9789 167.95 59.7551C167.947 62.1362 166.874 64.4189 164.968 66.1026C163.061 67.7862 160.476 68.7333 157.78 68.736Z" fill="black"/>
</svg>
