<svg width="210" height="157" viewBox="0 0 210 157" fill="none" xmlns="http://www.w3.org/2000/svg">
<path d="M11.6243 26.0341C18.0443 26.0341 23.2487 20.2062 23.2487 13.0171C23.2487 5.82794 18.0443 0 11.6243 0C5.20439 0 0 5.82794 0 13.0171C0 20.2062 5.20439 26.0341 11.6243 26.0341Z" fill="black"/>
<path d="M11.6243 91.1195C18.0443 91.1195 23.2487 85.2915 23.2487 78.1024C23.2487 70.9133 18.0443 65.0853 11.6243 65.0853C5.20439 65.0853 0 70.9133 0 78.1024C0 85.2915 5.20439 91.1195 11.6243 91.1195Z" fill="black"/>
<path d="M11.6243 156.205C18.0443 156.205 23.2487 150.377 23.2487 143.188C23.2487 135.999 18.0443 130.171 11.6243 130.171C5.20439 130.171 0 135.999 0 143.188C0 150.377 5.20439 156.205 11.6243 156.205Z" fill="black"/>
<path d="M198.311 65.0853H57.4242C51.3894 65.0853 46.4973 70.5636 46.4973 77.3214V78.8834C46.4973 85.6412 51.3894 91.1195 57.4242 91.1195H198.311C204.346 91.1195 209.238 85.6412 209.238 78.8834V77.3214C209.238 70.5636 204.346 65.0853 198.311 65.0853Z" fill="black"/>
<path d="M198.311 130.171H57.4242C51.3894 130.171 46.4973 135.649 46.4973 142.407V143.969C46.4973 150.727 51.3894 156.205 57.4242 156.205H198.311C204.346 156.205 209.238 150.727 209.238 143.969V142.407C209.238 135.649 204.346 130.171 198.311 130.171Z" fill="black"/>
<path d="M198.311 0H57.4242C51.3894 0 46.4973 5.47827 46.4973 12.2361V13.7981C46.4973 20.5559 51.3894 26.0341 57.4242 26.0341H198.311C204.346 26.0341 209.238 20.5559 209.238 13.7981V12.2361C209.238 5.47827 204.346 0 198.311 0Z" fill="black"/>
</svg>
