<svg width="429" height="295" viewBox="0 0 429 295" fill="none" xmlns="http://www.w3.org/2000/svg">
<path d="M187.139 259.598C185.578 259.496 184.006 259.416 182.422 259.359C180.839 259.302 179.249 259.273 177.654 259.273C176.299 259.273 174.943 259.296 173.587 259.342C172.231 259.387 170.858 259.473 169.468 259.598C169.559 257.547 169.628 255.514 169.673 253.497C169.719 251.469 169.742 249.43 169.742 247.379C169.742 245.089 169.719 242.81 169.673 240.543C169.628 238.264 169.559 236.014 169.468 233.792H177.022C176.976 236.493 176.931 239.119 176.885 241.671C176.862 242.765 176.845 243.893 176.834 245.055C176.823 246.217 176.806 247.362 176.783 248.49C176.771 249.618 176.76 250.7 176.749 251.737C176.749 252.762 176.749 253.691 176.749 254.522L187.139 254.232V259.598ZM201.495 255.462C201.563 254.494 201.609 253.554 201.631 252.643C201.666 251.731 201.683 250.831 201.683 249.942C201.683 249.02 201.666 248.114 201.631 247.225C201.609 246.325 201.563 245.396 201.495 244.439C201.107 244.382 200.72 244.348 200.333 244.337C199.957 244.314 199.575 244.303 199.188 244.303C197.592 244.303 196.054 244.479 194.573 244.833C194.539 245.448 194.505 246.057 194.471 246.661C194.448 247.265 194.437 247.869 194.437 248.473C194.437 249.68 194.482 250.888 194.573 252.096C194.676 253.292 194.824 254.545 195.018 255.855C195.28 255.878 195.542 255.89 195.804 255.89C196.077 255.89 196.356 255.89 196.641 255.89C197.427 255.89 198.225 255.855 199.034 255.787C199.854 255.719 200.674 255.611 201.495 255.462ZM207.835 250.079C207.835 251.435 207.567 252.711 207.032 253.907C206.508 255.092 205.79 256.129 204.878 257.018C203.967 257.906 202.896 258.607 201.666 259.12C200.446 259.644 199.142 259.906 197.752 259.906C196.373 259.906 195.103 259.644 193.941 259.12C192.79 258.607 191.793 257.906 190.95 257.018C190.118 256.129 189.469 255.092 189.002 253.907C188.535 252.711 188.301 251.435 188.301 250.079C188.301 248.404 188.535 246.952 189.002 245.721C189.469 244.491 190.118 243.471 190.95 242.662C191.793 241.853 192.79 241.255 193.941 240.868C195.103 240.469 196.373 240.27 197.752 240.27C199.142 240.27 200.446 240.492 201.666 240.936C202.896 241.38 203.967 242.024 204.878 242.867C205.79 243.71 206.508 244.741 207.032 245.96C207.567 247.168 207.835 248.541 207.835 250.079ZM229.197 240.833C229.026 244.331 228.89 247.328 228.787 249.823C228.696 252.318 228.628 254.363 228.582 255.958C228.525 257.838 228.485 259.387 228.462 260.606C228.405 262.053 228.086 263.301 227.505 264.349C226.936 265.397 226.189 266.269 225.267 266.964C224.355 267.659 223.313 268.189 222.139 268.553C220.977 268.918 219.769 269.14 218.516 269.22C217.251 269.22 216.095 269.066 215.047 268.758C214.01 268.451 213.104 268.018 212.33 267.459C211.566 266.901 210.94 266.24 210.45 265.477C209.971 264.714 209.664 263.871 209.527 262.948L216.465 262.469C216.351 262.765 216.277 263.067 216.243 263.375C216.22 263.683 216.209 263.996 216.209 264.315C216.209 264.6 216.22 264.89 216.243 265.187C216.277 265.483 216.351 265.779 216.465 266.075C216.625 266.098 216.784 266.109 216.944 266.109C217.103 266.109 217.269 266.109 217.439 266.109C219.069 266.109 220.681 265.933 222.276 265.58C222.378 264.304 222.464 263.033 222.532 261.769C222.601 260.515 222.663 259.256 222.72 257.992C222.173 258.333 221.615 258.596 221.045 258.778C220.476 258.949 219.952 259.08 219.473 259.171C218.915 259.273 218.368 259.33 217.833 259.342C217.194 259.342 216.551 259.251 215.901 259.068C215.252 258.897 214.625 258.641 214.021 258.299C213.418 257.958 212.848 257.536 212.312 257.035C211.777 256.533 211.31 255.952 210.911 255.292C210.512 254.631 210.199 253.902 209.971 253.104C209.743 252.295 209.629 251.412 209.629 250.455C209.629 249.031 209.817 247.732 210.193 246.559C210.581 245.374 211.133 244.36 211.851 243.517C212.569 242.662 213.446 242.001 214.483 241.534C215.52 241.067 216.693 240.833 218.003 240.833C218.539 240.845 219.086 240.902 219.644 241.004C220.123 241.096 220.647 241.238 221.216 241.432C221.786 241.614 222.333 241.882 222.857 242.235C222.857 241.939 222.851 241.637 222.84 241.329C222.828 241.021 222.823 240.72 222.823 240.423L229.197 240.833ZM222.942 248.541C222.942 248.006 222.937 247.476 222.925 246.952C222.925 246.416 222.914 245.881 222.891 245.345C222.686 245.322 222.481 245.311 222.276 245.311C222.071 245.311 221.871 245.311 221.678 245.311C221.245 245.311 220.818 245.317 220.396 245.328C219.974 245.34 219.542 245.362 219.097 245.396C218.653 245.419 218.186 245.453 217.696 245.499C217.206 245.533 216.676 245.579 216.106 245.636C216.072 246.16 216.044 246.673 216.021 247.174C216.01 247.664 216.004 248.165 216.004 248.678C216.004 249.715 216.044 250.74 216.124 251.754C216.203 252.757 216.317 253.771 216.465 254.796C217.012 254.83 217.514 254.859 217.969 254.881C218.425 254.893 218.869 254.898 219.302 254.898C219.929 254.898 220.521 254.887 221.08 254.864C221.638 254.841 222.23 254.796 222.857 254.728C222.88 253.691 222.897 252.66 222.908 251.634C222.931 250.609 222.942 249.578 222.942 248.541ZM238.58 241.158C238.329 243.699 238.158 246.205 238.067 248.678C237.987 251.15 237.947 253.622 237.947 256.095C237.947 256.528 237.947 256.966 237.947 257.411C237.947 257.844 237.959 258.282 237.981 258.727H232.701C232.701 258.02 232.706 257.319 232.718 256.625C232.729 255.93 232.735 255.24 232.735 254.557C232.735 252.289 232.678 250.045 232.564 247.823C232.461 245.602 232.296 243.38 232.068 241.158H238.58ZM238.58 235.621C238.58 236.02 238.483 236.396 238.289 236.749C238.095 237.091 237.828 237.393 237.486 237.655C237.144 237.905 236.745 238.111 236.29 238.27C235.834 238.418 235.35 238.492 234.837 238.492C234.324 238.492 233.846 238.418 233.401 238.27C232.957 238.111 232.57 237.905 232.239 237.655C231.909 237.393 231.647 237.091 231.453 236.749C231.259 236.396 231.163 236.02 231.163 235.621C231.163 235.234 231.259 234.869 231.453 234.527C231.647 234.174 231.909 233.872 232.239 233.622C232.57 233.36 232.957 233.154 233.401 233.006C233.846 232.858 234.324 232.784 234.837 232.784C235.35 232.784 235.834 232.858 236.29 233.006C236.745 233.154 237.144 233.36 237.486 233.622C237.828 233.872 238.095 234.174 238.289 234.527C238.483 234.869 238.58 235.234 238.58 235.621ZM260.267 250.079C260.267 251.594 260.187 253.138 260.027 254.71C259.868 256.283 259.594 257.855 259.207 259.427H253.26C253.408 257.73 253.522 256.055 253.602 254.403C253.681 252.739 253.721 251.065 253.721 249.378C253.721 248.809 253.721 248.245 253.721 247.687C253.721 247.117 253.71 246.547 253.687 245.978C253.174 245.921 252.667 245.886 252.166 245.875C251.665 245.852 251.158 245.841 250.645 245.841C249.677 245.841 248.68 245.875 247.654 245.943C247.62 246.878 247.592 247.743 247.569 248.541C247.557 249.339 247.552 250.13 247.552 250.917C247.552 251.498 247.557 252.09 247.569 252.694C247.58 253.286 247.597 253.924 247.62 254.608C247.654 255.292 247.694 256.032 247.74 256.83C247.785 257.616 247.842 258.482 247.911 259.427H242.168C242.168 258.06 242.163 256.852 242.151 255.804C242.14 254.756 242.123 253.793 242.1 252.916C242.077 252.027 242.043 251.184 241.998 250.387C241.963 249.578 241.918 248.735 241.861 247.857C241.804 246.969 241.741 246.006 241.673 244.969C241.604 243.921 241.525 242.719 241.434 241.363L247.911 240.97L247.774 243.397C248.423 242.941 249.09 242.588 249.773 242.337C250.457 242.087 251.084 241.899 251.653 241.773C252.314 241.637 252.958 241.557 253.584 241.534C254.416 241.534 255.157 241.648 255.806 241.876C256.467 242.104 257.042 242.423 257.532 242.833C258.034 243.232 258.455 243.705 258.797 244.251C259.139 244.798 259.418 245.391 259.634 246.029C259.862 246.655 260.022 247.316 260.113 248.011C260.215 248.706 260.267 249.396 260.267 250.079Z" fill="black"/>
<path fill-rule="evenodd" clip-rule="evenodd" d="M206.571 94.5V168H272.286V112H288.714V168C288.714 175.7 281.321 182 272.286 182H206.571V224L117.036 185.92C111.614 183.54 108 178.64 108 173.18V14C108 6.3 115.393 0 124.429 0H272.286C281.321 0 288.714 6.3 288.714 14V56H272.286V14H140.857L206.571 42V73.5L255.857 42V70H321.571V98H255.857V126L206.571 94.5Z" fill="black"/>
</svg>
