<svg width="378" height="239" viewBox="0 0 378 239" fill="none" xmlns="http://www.w3.org/2000/svg">
<path d="M289.746 39.4147L260.976 6.51149C257.221 2.47779 252.3 0.16331 247.15 0.00831897C242.001 -0.146672 236.981 1.86864 233.045 5.6709L138.544 113.747C135.15 117.662 133.037 122.792 132.559 128.277L128.044 178.353C127.903 180.112 128.102 181.885 128.629 183.545C129.155 185.206 129.995 186.713 131.089 187.96C132.07 189.073 133.234 189.953 134.513 190.551C135.792 191.148 137.162 191.451 138.544 191.442H139.489L183.275 186.879C188.071 186.332 192.557 183.916 195.98 180.034L290.481 71.9577C294.149 67.5262 296.131 61.6125 295.993 55.5125C295.855 49.4125 293.609 43.6238 289.746 39.4147ZM181.385 162.862L149.884 166.224L152.719 130.199L212.045 63.1915L240.395 95.6144L181.385 162.862ZM254.046 79.5231L225.905 47.3403L246.38 23.3234L275.046 56.1065L254.046 79.5231Z" fill="black"/>
<path d="M94.5615 218.216C93.821 218.159 93.0804 218.119 92.3398 218.097C91.5993 218.062 90.8587 218.045 90.1182 218.045C89.4004 218.045 88.6826 218.062 87.9648 218.097C87.2471 218.119 86.5179 218.159 85.7773 218.216V221.087C85.7773 221.771 85.783 222.432 85.7944 223.07C85.8058 223.696 85.8229 224.283 85.8457 224.83C86.5863 224.807 87.3724 224.796 88.2041 224.796C89.0472 224.796 89.896 224.796 90.7505 224.796C91.605 224.796 92.4253 224.802 93.2114 224.813C93.9976 224.813 94.6982 224.813 95.3135 224.813C96.0199 224.824 96.6921 224.83 97.3301 224.83C97.3187 224.99 97.3073 225.166 97.2959 225.36C97.2845 225.519 97.2731 225.713 97.2617 225.941C97.2617 226.169 97.2617 226.419 97.2617 226.693C97.2617 227.046 97.2674 227.428 97.2788 227.838C97.3016 228.248 97.3301 228.67 97.3643 229.103C96.9199 229.08 96.4642 229.068 95.9971 229.068C95.5413 229.068 95.097 229.068 94.6641 229.068C91.9411 229.068 89.2409 229.108 86.5635 229.188C83.8975 229.279 81.2087 229.416 78.4971 229.598C78.4971 229.256 78.5028 228.778 78.5142 228.163C78.5256 227.547 78.5369 226.83 78.5483 226.009C78.5711 225.178 78.5939 224.272 78.6167 223.292C78.6509 222.301 78.6794 221.27 78.7021 220.199C78.7249 219.128 78.7477 218.034 78.7705 216.917C78.8047 215.801 78.8275 214.701 78.8389 213.619C78.8617 212.525 78.8787 211.477 78.8901 210.475C78.9015 209.461 78.9072 208.521 78.9072 207.655C78.9072 206.823 78.9015 206.088 78.8901 205.45C78.8901 204.801 78.873 204.26 78.8389 203.827C80.0124 203.827 81.1859 203.838 82.3594 203.861C83.5329 203.872 84.7178 203.878 85.9141 203.878C87.7142 203.878 89.52 203.849 91.3315 203.792C93.1431 203.736 95.0002 203.61 96.9028 203.417C96.8459 203.804 96.806 204.18 96.7832 204.544C96.7718 204.898 96.7661 205.234 96.7661 205.553C96.7661 205.86 96.7718 206.145 96.7832 206.407C96.7946 206.658 96.8117 206.874 96.8345 207.057C96.8573 207.262 96.88 207.45 96.9028 207.621C95.5698 207.689 94.2539 207.746 92.9551 207.792C92.3968 207.814 91.8158 207.837 91.2119 207.86C90.6195 207.871 90.0213 207.888 89.4175 207.911C88.825 207.923 88.244 207.934 87.6743 207.945C87.116 207.957 86.5977 207.962 86.1191 207.962C86.0964 208.509 86.0679 209.102 86.0337 209.74C86.0109 210.287 85.9824 210.93 85.9482 211.671C85.9255 212.411 85.9027 213.209 85.8799 214.063C87.2699 214.041 88.6712 213.995 90.084 213.927C91.5081 213.858 93.0007 213.762 94.5615 213.636C94.5273 214.069 94.4932 214.508 94.459 214.952C94.4362 215.385 94.4248 215.835 94.4248 216.302C94.4248 216.61 94.4305 216.923 94.4419 217.242C94.4647 217.561 94.5046 217.886 94.5615 218.216ZM119.444 204.288C119.182 208.367 118.994 212.503 118.88 216.695C118.766 220.877 118.709 225.035 118.709 229.171H113.019L113.121 227.257C112.574 227.781 111.97 228.185 111.31 228.47C110.649 228.755 110.022 228.96 109.43 229.085C108.735 229.234 108.04 229.319 107.345 229.342C106.046 229.342 104.872 229.108 103.824 228.641C102.787 228.174 101.904 227.519 101.175 226.676C100.458 225.833 99.9049 224.819 99.5176 223.634C99.1302 222.449 98.9365 221.144 98.9365 219.72C98.9365 218.775 99.0505 217.897 99.2783 217.088C99.5062 216.279 99.8195 215.545 100.218 214.884C100.617 214.223 101.084 213.642 101.62 213.141C102.155 212.639 102.725 212.218 103.329 211.876C103.932 211.534 104.559 211.278 105.208 211.107C105.858 210.925 106.502 210.833 107.14 210.833C107.926 210.856 108.695 210.959 109.447 211.141C109.766 211.221 110.096 211.323 110.438 211.449C110.78 211.563 111.116 211.705 111.446 211.876C111.788 212.047 112.113 212.246 112.42 212.474C112.739 212.702 113.03 212.97 113.292 213.277C113.258 211.694 113.218 210.127 113.172 208.578C113.127 207.017 113.076 205.462 113.019 203.912L119.444 204.288ZM111.053 224.864C111.372 224.864 111.708 224.864 112.062 224.864C112.426 224.864 112.802 224.853 113.189 224.83C113.246 223.657 113.281 222.477 113.292 221.292C113.315 220.096 113.326 218.894 113.326 217.687V215.602C112.472 215.51 111.68 215.436 110.951 215.379C110.233 215.311 109.464 215.277 108.644 215.277C108.211 215.277 107.761 215.288 107.293 215.311C106.838 215.322 106.331 215.345 105.772 215.379C105.624 216.405 105.516 217.424 105.448 218.438C105.379 219.452 105.345 220.478 105.345 221.515C105.345 222.027 105.345 222.534 105.345 223.036C105.357 223.537 105.391 224.044 105.448 224.557C106.017 224.614 106.542 224.659 107.02 224.693C107.51 224.728 107.977 224.762 108.421 224.796C108.877 224.819 109.316 224.836 109.737 224.847C110.17 224.859 110.609 224.864 111.053 224.864ZM128.639 211.158C128.388 213.699 128.217 216.205 128.126 218.678C128.046 221.15 128.006 223.622 128.006 226.095C128.006 226.528 128.006 226.966 128.006 227.411C128.006 227.844 128.018 228.282 128.041 228.727H122.76C122.76 228.02 122.765 227.319 122.777 226.625C122.788 225.93 122.794 225.24 122.794 224.557C122.794 222.289 122.737 220.045 122.623 217.823C122.521 215.602 122.355 213.38 122.127 211.158H128.639ZM128.639 205.621C128.639 206.02 128.542 206.396 128.348 206.749C128.154 207.091 127.887 207.393 127.545 207.655C127.203 207.905 126.804 208.111 126.349 208.27C125.893 208.418 125.409 208.492 124.896 208.492C124.383 208.492 123.905 208.418 123.46 208.27C123.016 208.111 122.629 207.905 122.298 207.655C121.968 207.393 121.706 207.091 121.512 206.749C121.319 206.396 121.222 206.02 121.222 205.621C121.222 205.234 121.319 204.869 121.512 204.527C121.706 204.174 121.968 203.872 122.298 203.622C122.629 203.36 123.016 203.154 123.46 203.006C123.905 202.858 124.383 202.784 124.896 202.784C125.409 202.784 125.893 202.858 126.349 203.006C126.804 203.154 127.203 203.36 127.545 203.622C127.887 203.872 128.154 204.174 128.348 204.527C128.542 204.869 128.639 205.234 128.639 205.621ZM147.899 215.978C146.794 215.921 145.683 215.869 144.566 215.824C143.461 215.778 142.356 215.738 141.251 215.704C141.114 217.971 140.995 220.233 140.892 222.489C140.79 224.745 140.71 227.018 140.653 229.308L135.663 229.803C135.731 225.633 135.765 221.503 135.765 217.413V215.602H134.535C133.851 215.602 133.167 215.607 132.484 215.619C131.8 215.63 131.117 215.636 130.433 215.636V211.295C130.729 211.295 131.026 211.301 131.322 211.312C131.629 211.323 131.943 211.329 132.262 211.329H135.731C135.731 210.27 135.725 209.227 135.714 208.202C135.702 207.165 135.685 206.128 135.663 205.091H142.14C142.026 206.117 141.923 207.136 141.832 208.15C141.752 209.153 141.678 210.156 141.61 211.158C142.669 211.113 143.712 211.067 144.737 211.021C145.774 210.965 146.828 210.902 147.899 210.833V215.978ZM163.639 229.564C163.639 229.234 163.633 228.903 163.622 228.573C163.61 228.231 163.604 227.895 163.604 227.564C163.001 228.111 162.368 228.527 161.708 228.812C161.058 229.085 160.46 229.291 159.913 229.427C159.275 229.587 158.643 229.678 158.016 229.701C156.877 229.701 155.777 229.524 154.718 229.171C153.67 228.829 152.735 228.311 151.915 227.616C151.095 226.921 150.428 226.055 149.916 225.018C149.414 223.97 149.135 222.757 149.078 221.378C149.078 219.988 149.266 218.723 149.642 217.584C150.018 216.433 150.582 215.448 151.334 214.627C152.086 213.807 153.02 213.175 154.137 212.73C155.253 212.275 156.546 212.041 158.016 212.03C158.062 212.03 158.233 212.041 158.529 212.064C158.836 212.075 159.212 212.127 159.657 212.218C160.101 212.298 160.585 212.434 161.109 212.628C161.633 212.81 162.152 213.067 162.665 213.397L162.391 211.295L169.142 210.833C169.005 214.103 168.937 217.356 168.937 220.592C168.937 221.378 168.937 222.124 168.937 222.831C168.948 223.526 168.959 224.221 168.971 224.916C168.993 225.599 169.016 226.294 169.039 227C169.073 227.695 169.107 228.43 169.142 229.205L163.639 229.564ZM155.658 225.428C157.014 225.371 158.347 225.28 159.657 225.155C160.967 225.029 162.26 224.841 163.536 224.591C163.502 223.178 163.439 221.811 163.348 220.489C163.268 219.168 163.154 217.818 163.006 216.439H162.032C160.927 216.439 159.816 216.479 158.7 216.559C157.595 216.627 156.478 216.747 155.35 216.917C155.213 218.114 155.145 219.316 155.145 220.523C155.145 220.979 155.156 221.406 155.179 221.805C155.202 222.193 155.23 222.58 155.265 222.967C155.31 223.355 155.361 223.748 155.418 224.146C155.487 224.545 155.567 224.972 155.658 225.428ZM185.428 220.814C185.451 220.529 185.474 220.25 185.497 219.977C185.519 219.692 185.531 219.407 185.531 219.122C185.531 218.142 185.428 217.174 185.223 216.217C184.164 216.262 183.11 216.336 182.062 216.439C181.025 216.542 179.977 216.678 178.917 216.849V220.25C178.917 221.743 178.917 223.224 178.917 224.693C178.917 226.152 178.928 227.621 178.951 229.103L172.867 229.53C172.901 229.108 172.918 228.692 172.918 228.282C172.93 227.872 172.936 227.456 172.936 227.035C172.936 224.391 172.884 221.777 172.782 219.19C172.691 216.604 172.554 214.007 172.372 211.397L178.951 210.833C178.951 211.153 178.945 211.472 178.934 211.791C178.923 212.098 178.917 212.411 178.917 212.73C179.578 212.252 180.239 211.887 180.899 211.637C181.572 211.386 182.181 211.198 182.728 211.073C183.355 210.936 183.964 210.856 184.557 210.833C185.901 210.902 187.103 211.209 188.163 211.756C188.607 211.984 189.046 212.28 189.479 212.645C189.911 212.998 190.299 213.437 190.641 213.961C190.982 214.474 191.256 215.083 191.461 215.79C191.666 216.485 191.769 217.293 191.769 218.216C191.769 218.535 191.751 218.871 191.717 219.225C191.683 219.566 191.638 219.931 191.581 220.318L185.428 220.814ZM224.154 220.079C224.154 221.503 223.96 222.785 223.573 223.924C223.197 225.052 222.65 226.009 221.932 226.795C221.214 227.582 220.337 228.185 219.3 228.607C218.264 229.028 217.09 229.239 215.78 229.239C215.028 229.216 214.287 229.114 213.558 228.932C213.25 228.852 212.926 228.755 212.584 228.641C212.254 228.516 211.917 228.368 211.576 228.197C211.245 228.014 210.926 227.804 210.619 227.564C210.311 227.325 210.026 227.046 209.764 226.727C209.798 228.675 209.844 230.601 209.901 232.503C209.958 234.417 210.032 236.257 210.123 238.023L203.646 237.613C203.771 235.597 203.88 233.478 203.971 231.256C204.062 229.034 204.136 226.795 204.193 224.54C204.261 222.272 204.307 220.022 204.33 217.789C204.364 215.556 204.381 213.414 204.381 211.363H210.123C210.055 212.07 210.003 212.77 209.969 213.465C210.231 213.181 210.516 212.936 210.824 212.73C211.143 212.514 211.467 212.326 211.798 212.167C212.128 212.007 212.459 211.87 212.789 211.756C213.131 211.642 213.456 211.551 213.763 211.483C214.481 211.312 215.216 211.215 215.968 211.192C216.594 211.192 217.232 211.284 217.882 211.466C218.531 211.637 219.158 211.893 219.762 212.235C220.377 212.577 220.947 212.998 221.471 213.5C222.006 214.001 222.473 214.582 222.872 215.243C223.271 215.903 223.584 216.638 223.812 217.447C224.04 218.245 224.154 219.122 224.154 220.079ZM209.764 224.522C210.596 224.728 211.376 224.876 212.105 224.967C212.846 225.047 213.621 225.086 214.43 225.086C214.908 225.086 215.41 225.069 215.934 225.035C216.458 225.001 217.027 224.955 217.643 224.898C217.7 224.386 217.734 223.879 217.745 223.377C217.768 222.876 217.779 222.369 217.779 221.856C217.779 220.82 217.739 219.8 217.66 218.797C217.58 217.783 217.466 216.764 217.318 215.738C216.236 215.67 215.284 215.636 214.464 215.636C214.065 215.636 213.683 215.647 213.319 215.67C212.954 215.681 212.584 215.704 212.208 215.738C211.843 215.761 211.467 215.79 211.08 215.824C210.704 215.858 210.3 215.898 209.867 215.943C209.798 218.393 209.764 220.888 209.764 223.429V224.522ZM245.619 220.985L232.254 222.062C232.311 222.768 232.391 223.469 232.494 224.164C232.596 224.859 232.727 225.559 232.887 226.266C233.889 226.334 234.858 226.368 235.792 226.368C236.305 226.368 236.8 226.362 237.279 226.351C237.757 226.328 238.253 226.3 238.766 226.266C238.788 226.038 238.806 225.81 238.817 225.582C238.828 225.354 238.834 225.126 238.834 224.898C238.834 224.693 238.828 224.494 238.817 224.3C238.817 224.095 238.8 223.89 238.766 223.685L245.208 223.822C244.889 224.904 244.428 225.833 243.824 226.607C243.232 227.382 242.525 228.02 241.705 228.521C240.896 229.011 239.99 229.37 238.988 229.598C237.985 229.826 236.931 229.94 235.826 229.94C234.47 229.94 233.194 229.758 231.998 229.393C230.813 229.028 229.776 228.442 228.888 227.633C228.01 226.812 227.315 225.747 226.803 224.437C226.301 223.127 226.051 221.52 226.051 219.618C226.051 218.08 226.319 216.758 226.854 215.653C227.389 214.548 228.102 213.636 228.99 212.918C229.89 212.201 230.927 211.677 232.101 211.346C233.285 211.004 234.527 210.833 235.826 210.833C237.182 210.833 238.452 211.016 239.637 211.38C240.833 211.745 241.87 212.315 242.748 213.089C243.636 213.864 244.337 214.855 244.85 216.063C245.362 217.271 245.619 218.712 245.619 220.387V220.985ZM232.083 218.473H238.937C238.937 217.06 238.794 215.715 238.509 214.439C237.529 214.234 236.504 214.132 235.433 214.132C234.385 214.132 233.325 214.234 232.254 214.439C232.186 215.077 232.14 215.727 232.118 216.388C232.095 217.037 232.083 217.732 232.083 218.473ZM260.829 220.814C260.851 220.529 260.874 220.25 260.897 219.977C260.92 219.692 260.931 219.407 260.931 219.122C260.931 218.142 260.829 217.174 260.624 216.217C259.564 216.262 258.51 216.336 257.462 216.439C256.425 216.542 255.377 216.678 254.317 216.849V220.25C254.317 221.743 254.317 223.224 254.317 224.693C254.317 226.152 254.329 227.621 254.352 229.103L248.268 229.53C248.302 229.108 248.319 228.692 248.319 228.282C248.33 227.872 248.336 227.456 248.336 227.035C248.336 224.391 248.285 221.777 248.182 219.19C248.091 216.604 247.954 214.007 247.772 211.397L254.352 210.833C254.352 211.153 254.346 211.472 254.334 211.791C254.323 212.098 254.317 212.411 254.317 212.73C254.978 212.252 255.639 211.887 256.3 211.637C256.972 211.386 257.582 211.198 258.128 211.073C258.755 210.936 259.365 210.856 259.957 210.833C261.301 210.902 262.503 211.209 263.563 211.756C264.007 211.984 264.446 212.28 264.879 212.645C265.312 212.998 265.699 213.437 266.041 213.961C266.383 214.474 266.656 215.083 266.861 215.79C267.066 216.485 267.169 217.293 267.169 218.216C267.169 218.535 267.152 218.871 267.118 219.225C267.083 219.566 267.038 219.931 266.981 220.318L260.829 220.814ZM276.654 211.773C276.893 211.773 277.303 211.768 277.884 211.756C278.477 211.745 279.177 211.734 279.986 211.722C280.795 211.711 281.678 211.699 282.635 211.688C283.604 211.677 284.578 211.665 285.558 211.654C286.537 211.631 287.5 211.608 288.446 211.585C289.391 211.563 290.246 211.534 291.009 211.5C290.884 212.765 290.781 214.007 290.702 215.226C290.622 216.445 290.554 217.658 290.497 218.866C290.451 220.062 290.417 221.258 290.394 222.455C290.383 223.651 290.377 224.864 290.377 226.095C290.377 226.528 290.377 226.966 290.377 227.411C290.377 227.844 290.388 228.282 290.411 228.727H285.13C285.13 228.02 285.136 227.319 285.147 226.625C285.159 225.93 285.165 225.24 285.165 224.557C285.165 222.996 285.136 221.503 285.079 220.079C285.034 218.655 284.948 217.219 284.823 215.772C284.151 215.761 283.41 215.755 282.601 215.755C281.804 215.744 281.017 215.733 280.243 215.721C279.479 215.71 278.779 215.704 278.141 215.704C277.514 215.693 277.041 215.681 276.722 215.67C276.813 217.869 276.961 220.051 277.167 222.215C277.383 224.369 277.668 226.539 278.021 228.727L271.664 229.342C271.55 227.975 271.453 226.647 271.373 225.36C271.293 224.072 271.225 222.848 271.168 221.686C271.111 220.523 271.065 219.441 271.031 218.438C270.997 217.424 270.974 216.513 270.963 215.704L268.194 215.807V211.534C268.65 211.568 269.1 211.603 269.544 211.637C270 211.66 270.462 211.682 270.929 211.705C270.929 211.625 270.94 211.443 270.963 211.158C270.986 210.873 271.037 210.52 271.117 210.099C271.196 209.677 271.322 209.21 271.493 208.697C271.664 208.185 271.897 207.666 272.193 207.142C272.49 206.618 272.854 206.111 273.287 205.621C273.731 205.12 274.267 204.681 274.894 204.305C275.52 203.918 276.249 203.61 277.081 203.382C277.924 203.143 278.893 203.023 279.986 203.023C280.385 203.023 280.801 203.046 281.234 203.092C281.678 203.126 282.14 203.189 282.618 203.28V207.928C282.071 207.837 281.524 207.774 280.978 207.74C280.442 207.706 279.889 207.689 279.32 207.689C278.898 207.689 278.465 207.7 278.021 207.723C277.577 207.746 277.132 207.792 276.688 207.86C276.665 208.441 276.654 209.022 276.654 209.603C276.654 210.173 276.654 210.748 276.654 211.329V211.773ZM291.009 205.621C291.009 206.02 290.912 206.396 290.719 206.749C290.525 207.091 290.257 207.393 289.916 207.655C289.574 207.905 289.175 208.111 288.719 208.27C288.264 208.418 287.779 208.492 287.267 208.492C286.754 208.492 286.275 208.418 285.831 208.27C285.387 208.111 284.999 207.905 284.669 207.655C284.339 207.393 284.076 207.091 283.883 206.749C283.689 206.396 283.592 206.02 283.592 205.621C283.592 205.234 283.689 204.869 283.883 204.527C284.076 204.174 284.339 203.872 284.669 203.622C284.999 203.36 285.387 203.154 285.831 203.006C286.275 202.858 286.754 202.784 287.267 202.784C287.779 202.784 288.264 202.858 288.719 203.006C289.175 203.154 289.574 203.36 289.916 203.622C290.257 203.872 290.525 204.174 290.719 204.527C290.912 204.869 291.009 205.234 291.009 205.621ZM300.289 203.246C299.993 207.529 299.793 211.796 299.691 216.046C299.6 220.284 299.554 224.511 299.554 228.727H294.222C294.279 226.63 294.319 224.551 294.342 222.489C294.365 220.427 294.376 218.353 294.376 216.268C294.376 214.081 294.365 211.91 294.342 209.757C294.319 207.604 294.279 205.433 294.222 203.246H300.289Z" fill="black"/>
</svg>
