<svg width="429" height="244" viewBox="0 0 429 244" fill="none" xmlns="http://www.w3.org/2000/svg">
<path d="M293.857 68.3582C293.857 80.7304 289.031 92.1679 279.379 102.671C269.728 113.174 256.559 121.474 239.874 127.571C223.189 133.668 205.04 136.716 185.429 136.716C176.598 136.716 167.562 136.004 158.321 134.58C145.589 142.413 131.317 148.11 115.504 151.67C111.808 152.471 107.393 153.183 102.259 153.806H101.797C100.667 153.806 99.615 153.45 98.6395 152.738C97.6641 152.026 97.0737 151.091 96.8683 149.934C96.7656 149.667 96.7143 149.378 96.7143 149.066C96.7143 148.755 96.74 148.466 96.7913 148.199C96.8426 147.932 96.9453 147.664 97.0993 147.397L97.4844 146.73L98.0234 145.996L98.6395 145.328L99.3326 144.66L99.9487 144.06C100.462 143.526 101.643 142.413 103.491 140.722C105.339 139.031 106.674 137.718 107.496 136.783C108.317 135.849 109.472 134.558 110.961 132.911C112.45 131.265 113.733 129.551 114.811 127.771C115.89 125.991 116.942 124.033 117.969 121.897C105.237 115.488 95.2254 107.611 87.9353 98.265C80.6451 88.9191 77 78.9502 77 68.3582C77 55.9861 81.8259 44.5486 91.4777 34.0456C101.129 23.5427 114.298 15.2426 130.983 9.14559C147.669 3.04853 165.817 0 185.429 0C205.04 0 223.189 3.04853 239.874 9.14559C256.559 15.2426 269.728 23.5427 279.379 34.0456C289.031 44.5486 293.857 55.9861 293.857 68.3582ZM353 102.537C353 113.218 349.355 123.21 342.065 132.511C334.775 141.812 324.763 149.667 312.031 156.076C313.058 158.212 314.11 160.17 315.189 161.95C316.267 163.73 317.55 165.444 319.039 167.091C320.528 168.737 321.683 170.028 322.504 170.962C323.326 171.897 324.661 173.21 326.509 174.901C328.357 176.592 329.538 177.705 330.051 178.239C330.154 178.328 330.359 178.528 330.667 178.84C330.975 179.151 331.206 179.374 331.36 179.507C331.514 179.641 331.72 179.863 331.977 180.175C332.233 180.486 332.413 180.731 332.516 180.909L332.901 181.577L333.209 182.378L333.286 183.245L333.132 184.113C332.824 185.359 332.156 186.339 331.129 187.051C330.103 187.763 328.973 188.074 327.741 187.985C322.607 187.362 318.192 186.65 314.496 185.849C298.683 182.289 284.411 176.592 271.679 168.759C262.437 170.184 253.402 170.896 244.571 170.896C216.746 170.896 192.513 165.021 171.875 153.272C177.83 153.628 182.348 153.806 185.429 153.806C201.96 153.806 217.824 151.803 233.02 147.798C248.217 143.793 261.77 138.052 273.681 130.575C286.516 122.386 296.373 112.951 303.252 102.27C310.132 91.5894 313.571 80.2853 313.571 68.3582C313.571 61.5046 312.391 54.74 310.029 48.0644C323.275 54.384 333.748 62.3057 341.449 71.8296C349.15 81.3534 353 91.5894 353 102.537Z" fill="black"/>
<path d="M75.457 223.796C75.6849 222.6 75.8501 221.346 75.9526 220.036C76.0666 218.715 76.1235 217.37 76.1235 216.003C76.1235 214.556 76.0666 213.12 75.9526 211.696C75.8387 210.261 75.6735 208.882 75.457 207.561C74.819 207.378 74.124 207.219 73.3721 207.082C72.7227 206.957 71.965 206.843 71.0991 206.74C70.2446 206.638 69.3161 206.586 68.3135 206.586C68.1198 206.586 67.9204 206.586 67.7153 206.586C67.5103 206.586 67.3052 206.598 67.1001 206.621C67.1001 206.814 67.1001 207.145 67.1001 207.612C67.1001 208.079 67.1001 208.654 67.1001 209.338C67.1115 210.01 67.1172 210.773 67.1172 211.628C67.1286 212.471 67.14 213.36 67.1514 214.294C67.1628 215.228 67.1799 216.185 67.2026 217.165C67.2254 218.145 67.2539 219.113 67.2881 220.07C67.3223 221.027 67.3564 221.95 67.3906 222.839C67.4362 223.716 67.4875 224.525 67.5444 225.266C68.5926 225.22 69.5895 225.118 70.5352 224.958C71.4922 224.799 72.3353 224.633 73.0645 224.462C73.9189 224.257 74.7165 224.035 75.457 223.796ZM65.2715 202.485C66.6159 202.485 67.9945 202.553 69.4072 202.69C70.8314 202.827 72.21 203.072 73.543 203.425C74.8874 203.778 76.1577 204.262 77.354 204.877C78.5503 205.493 79.5928 206.273 80.4814 207.219C81.3815 208.164 82.0936 209.304 82.6177 210.637C83.1418 211.958 83.4038 213.514 83.4038 215.302C83.4038 217.034 83.1759 218.572 82.7202 219.917C82.2645 221.261 81.6436 222.446 80.8574 223.471C80.0827 224.485 79.1712 225.345 78.123 226.052C77.0749 226.758 75.9526 227.333 74.7563 227.778C73.5715 228.222 72.341 228.541 71.0649 228.735C69.7889 228.94 68.5356 229.042 67.3052 229.042C66.1089 229.042 65.055 229.014 64.1436 228.957C63.2321 228.911 62.4574 228.86 61.8193 228.803C61.0788 228.735 60.4351 228.655 59.8882 228.564C60.0249 226.331 60.1445 224.104 60.2471 221.882C60.3496 219.66 60.4009 217.427 60.4009 215.183C60.4009 214.077 60.3838 213.024 60.3496 212.021C60.3268 211.018 60.2926 210.027 60.2471 209.047C60.2015 208.068 60.1445 207.082 60.0762 206.091C60.0192 205.088 59.9565 204.029 59.8882 202.912C60.8338 202.73 61.7624 202.616 62.6738 202.57C63.5853 202.513 64.4512 202.485 65.2715 202.485ZM104.783 219.985L91.4189 221.062C91.4759 221.768 91.5557 222.469 91.6582 223.164C91.7607 223.859 91.8918 224.559 92.0513 225.266C93.0539 225.334 94.0223 225.368 94.9565 225.368C95.4692 225.368 95.9648 225.362 96.4434 225.351C96.9219 225.328 97.4175 225.3 97.9302 225.266C97.953 225.038 97.9701 224.81 97.9814 224.582C97.9928 224.354 97.9985 224.126 97.9985 223.898C97.9985 223.693 97.9928 223.494 97.9814 223.3C97.9814 223.095 97.9644 222.89 97.9302 222.685L104.373 222.822C104.054 223.904 103.593 224.833 102.989 225.607C102.396 226.382 101.69 227.02 100.87 227.521C100.061 228.011 99.1549 228.37 98.1523 228.598C97.1497 228.826 96.0959 228.94 94.9907 228.94C93.6349 228.94 92.3589 228.758 91.1626 228.393C89.9777 228.028 88.9409 227.442 88.0522 226.633C87.175 225.812 86.48 224.747 85.9673 223.437C85.466 222.127 85.2153 220.52 85.2153 218.618C85.2153 217.08 85.4831 215.758 86.0186 214.653C86.554 213.548 87.2661 212.636 88.1548 211.918C89.0549 211.201 90.0916 210.677 91.2651 210.346C92.45 210.004 93.6919 209.833 94.9907 209.833C96.3465 209.833 97.6169 210.016 98.8018 210.38C99.998 210.745 101.035 211.315 101.912 212.089C102.801 212.864 103.501 213.855 104.014 215.063C104.527 216.271 104.783 217.712 104.783 219.387V219.985ZM91.248 217.473H98.1011C98.1011 216.06 97.9587 214.715 97.6738 213.439C96.694 213.234 95.6686 213.132 94.5977 213.132C93.5495 213.132 92.4899 213.234 91.4189 213.439C91.3506 214.077 91.305 214.727 91.2822 215.388C91.2594 216.037 91.248 216.732 91.248 217.473ZM113.345 210.158C113.095 212.699 112.924 215.205 112.833 217.678C112.753 220.15 112.713 222.622 112.713 225.095C112.713 225.528 112.713 225.966 112.713 226.411C112.713 226.844 112.724 227.282 112.747 227.727H107.466C107.466 227.02 107.472 226.319 107.483 225.625C107.495 224.93 107.5 224.24 107.5 223.557C107.5 221.289 107.444 219.045 107.33 216.823C107.227 214.602 107.062 212.38 106.834 210.158H113.345ZM113.345 204.621C113.345 205.02 113.248 205.396 113.055 205.749C112.861 206.091 112.593 206.393 112.251 206.655C111.91 206.905 111.511 207.111 111.055 207.27C110.599 207.418 110.115 207.492 109.603 207.492C109.09 207.492 108.611 207.418 108.167 207.27C107.723 207.111 107.335 206.905 107.005 206.655C106.674 206.393 106.412 206.091 106.219 205.749C106.025 205.396 105.928 205.02 105.928 204.621C105.928 204.234 106.025 203.869 106.219 203.527C106.412 203.174 106.674 202.872 107.005 202.622C107.335 202.36 107.723 202.154 108.167 202.006C108.611 201.858 109.09 201.784 109.603 201.784C110.115 201.784 110.599 201.858 111.055 202.006C111.511 202.154 111.91 202.36 112.251 202.622C112.593 202.872 112.861 203.174 113.055 203.527C113.248 203.869 113.345 204.234 113.345 204.621ZM126.761 215.217L132.059 209.731L136.81 210.705L129.427 218.447L136.775 227.333L129.888 228.273L125.325 222.753L120.044 228.273L114.627 227.829L122.642 219.489L115.105 210.295H122.71L126.761 215.217ZM156.976 219.985L143.611 221.062C143.668 221.768 143.748 222.469 143.851 223.164C143.953 223.859 144.084 224.559 144.244 225.266C145.246 225.334 146.215 225.368 147.149 225.368C147.662 225.368 148.157 225.362 148.636 225.351C149.114 225.328 149.61 225.3 150.123 225.266C150.145 225.038 150.162 224.81 150.174 224.582C150.185 224.354 150.191 224.126 150.191 223.898C150.191 223.693 150.185 223.494 150.174 223.3C150.174 223.095 150.157 222.89 150.123 222.685L156.565 222.822C156.246 223.904 155.785 224.833 155.181 225.607C154.589 226.382 153.882 227.02 153.062 227.521C152.253 228.011 151.347 228.37 150.345 228.598C149.342 228.826 148.288 228.94 147.183 228.94C145.827 228.94 144.551 228.758 143.355 228.393C142.17 228.028 141.133 227.442 140.245 226.633C139.367 225.812 138.672 224.747 138.16 223.437C137.658 222.127 137.408 220.52 137.408 218.618C137.408 217.08 137.675 215.758 138.211 214.653C138.746 213.548 139.458 212.636 140.347 211.918C141.247 211.201 142.284 210.677 143.458 210.346C144.642 210.004 145.884 209.833 147.183 209.833C148.539 209.833 149.809 210.016 150.994 210.38C152.19 210.745 153.227 211.315 154.104 212.089C154.993 212.864 155.694 213.855 156.207 215.063C156.719 216.271 156.976 217.712 156.976 219.387V219.985ZM143.44 217.473H150.293C150.293 216.06 150.151 214.715 149.866 213.439C148.886 213.234 147.861 213.132 146.79 213.132C145.742 213.132 144.682 213.234 143.611 213.439C143.543 214.077 143.497 214.727 143.475 215.388C143.452 216.037 143.44 216.732 143.44 217.473ZM187.823 224.018C187.823 225.021 187.566 225.858 187.054 226.53C186.541 227.191 185.869 227.721 185.037 228.12C184.205 228.53 183.26 228.815 182.2 228.974C181.141 229.145 180.064 229.23 178.97 229.23C178.366 229.23 177.717 229.191 177.022 229.111C176.338 229.042 175.649 228.911 174.954 228.718C174.259 228.535 173.581 228.291 172.92 227.983C172.271 227.664 171.679 227.265 171.143 226.787C170.608 226.308 170.146 225.744 169.759 225.095C169.383 224.445 169.126 223.688 168.99 222.822L175.928 222.753L176.202 225.727H181.517L181.91 222.292C181.203 222.132 180.394 221.996 179.483 221.882C178.571 221.768 177.637 221.631 176.68 221.472C175.723 221.301 174.783 221.084 173.86 220.822C172.938 220.56 172.117 220.201 171.399 219.746C170.682 219.29 170.101 218.715 169.656 218.02C169.212 217.325 168.99 216.464 168.99 215.439C168.99 214.334 169.257 213.405 169.793 212.653C170.328 211.89 171.029 211.28 171.895 210.825C172.772 210.358 173.764 210.016 174.869 209.799C175.974 209.583 177.096 209.458 178.235 209.423C178.839 209.423 179.489 209.458 180.184 209.526C180.89 209.594 181.591 209.72 182.286 209.902C182.981 210.073 183.647 210.312 184.285 210.62C184.935 210.927 185.51 211.32 186.011 211.799C186.524 212.266 186.94 212.836 187.259 213.508C187.589 214.169 187.777 214.949 187.823 215.849L181.106 216.14V212.773H175.33V217.319C176.071 217.478 176.897 217.604 177.808 217.695C178.72 217.775 179.637 217.883 180.56 218.02C181.482 218.156 182.377 218.344 183.243 218.583C184.12 218.823 184.895 219.165 185.567 219.609C186.25 220.053 186.797 220.629 187.208 221.335C187.618 222.041 187.823 222.936 187.823 224.018ZM208.399 217.148C208.399 218.128 208.348 219.09 208.245 220.036C208.154 220.97 207.983 221.865 207.732 222.719C207.493 223.562 207.157 224.354 206.724 225.095C206.303 225.824 205.767 226.468 205.118 227.026C204.468 227.584 203.688 228.04 202.776 228.393C201.865 228.758 200.8 228.986 199.581 229.077C196.447 229.077 194.095 228.285 192.522 226.701C190.95 225.118 190.164 222.776 190.164 219.677C190.164 219.597 190.164 219.387 190.164 219.045C190.164 218.692 190.17 218.259 190.181 217.746C190.193 217.222 190.204 216.641 190.215 216.003C190.238 215.354 190.272 214.693 190.318 214.021C190.363 213.348 190.415 212.688 190.472 212.038C190.54 211.389 190.625 210.796 190.728 210.261H196.709C196.493 211.389 196.333 212.579 196.231 213.833C196.128 215.086 196.077 216.368 196.077 217.678C196.077 218.885 196.123 220.087 196.214 221.284C196.316 222.469 196.482 223.597 196.709 224.667C197.131 224.724 197.541 224.77 197.94 224.804C198.35 224.838 198.755 224.855 199.153 224.855C199.541 224.855 199.939 224.838 200.35 224.804C200.771 224.77 201.181 224.724 201.58 224.667C201.705 223.597 201.797 222.474 201.854 221.301C201.922 220.116 201.956 218.92 201.956 217.712C201.956 216.39 201.922 215.103 201.854 213.85C201.797 212.585 201.705 211.389 201.58 210.261H207.767C208.017 211.594 208.182 212.853 208.262 214.038C208.353 215.222 208.399 216.259 208.399 217.148ZM225.044 228.564C225.044 228.234 225.039 227.903 225.027 227.573C225.016 227.231 225.01 226.895 225.01 226.564C224.406 227.111 223.774 227.527 223.113 227.812C222.464 228.085 221.866 228.291 221.319 228.427C220.681 228.587 220.049 228.678 219.422 228.701C218.283 228.701 217.183 228.524 216.124 228.171C215.075 227.829 214.141 227.311 213.321 226.616C212.5 225.921 211.834 225.055 211.321 224.018C210.82 222.97 210.541 221.757 210.484 220.378C210.484 218.988 210.672 217.723 211.048 216.584C211.424 215.433 211.988 214.448 212.74 213.627C213.492 212.807 214.426 212.175 215.542 211.73C216.659 211.275 217.952 211.041 219.422 211.03C219.467 211.03 219.638 211.041 219.935 211.064C220.242 211.075 220.618 211.127 221.062 211.218C221.507 211.298 221.991 211.434 222.515 211.628C223.039 211.81 223.558 212.067 224.07 212.397L223.797 210.295L230.547 209.833C230.411 213.103 230.342 216.356 230.342 219.592C230.342 220.378 230.342 221.124 230.342 221.831C230.354 222.526 230.365 223.221 230.376 223.916C230.399 224.599 230.422 225.294 230.445 226C230.479 226.695 230.513 227.43 230.547 228.205L225.044 228.564ZM217.063 224.428C218.419 224.371 219.752 224.28 221.062 224.155C222.373 224.029 223.666 223.841 224.942 223.591C224.908 222.178 224.845 220.811 224.754 219.489C224.674 218.168 224.56 216.818 224.412 215.439H223.438C222.333 215.439 221.222 215.479 220.105 215.559C219 215.627 217.884 215.747 216.756 215.917C216.619 217.114 216.551 218.316 216.551 219.523C216.551 219.979 216.562 220.406 216.585 220.805C216.608 221.193 216.636 221.58 216.67 221.967C216.716 222.355 216.767 222.748 216.824 223.146C216.893 223.545 216.972 223.972 217.063 224.428ZM256.832 224.462C256.9 223.494 256.945 222.554 256.968 221.643C257.002 220.731 257.02 219.831 257.02 218.942C257.02 218.02 257.002 217.114 256.968 216.225C256.945 215.325 256.9 214.396 256.832 213.439C256.444 213.382 256.057 213.348 255.669 213.337C255.293 213.314 254.912 213.303 254.524 213.303C252.929 213.303 251.391 213.479 249.91 213.833C249.876 214.448 249.842 215.057 249.808 215.661C249.785 216.265 249.773 216.869 249.773 217.473C249.773 218.68 249.819 219.888 249.91 221.096C250.013 222.292 250.161 223.545 250.354 224.855C250.617 224.878 250.879 224.89 251.141 224.89C251.414 224.89 251.693 224.89 251.978 224.89C252.764 224.89 253.562 224.855 254.371 224.787C255.191 224.719 256.011 224.611 256.832 224.462ZM263.172 219.079C263.172 220.435 262.904 221.711 262.369 222.907C261.845 224.092 261.127 225.129 260.215 226.018C259.304 226.906 258.233 227.607 257.002 228.12C255.783 228.644 254.479 228.906 253.089 228.906C251.71 228.906 250.44 228.644 249.278 228.12C248.127 227.607 247.13 226.906 246.287 226.018C245.455 225.129 244.806 224.092 244.339 222.907C243.872 221.711 243.638 220.435 243.638 219.079C243.638 217.404 243.872 215.952 244.339 214.721C244.806 213.491 245.455 212.471 246.287 211.662C247.13 210.853 248.127 210.255 249.278 209.868C250.44 209.469 251.71 209.27 253.089 209.27C254.479 209.27 255.783 209.492 257.002 209.936C258.233 210.38 259.304 211.024 260.215 211.867C261.127 212.71 261.845 213.741 262.369 214.96C262.904 216.168 263.172 217.541 263.172 219.079ZM285.799 219.079C285.799 220.503 285.605 221.785 285.218 222.924C284.842 224.052 284.295 225.009 283.577 225.795C282.859 226.582 281.982 227.185 280.945 227.607C279.909 228.028 278.735 228.239 277.425 228.239C276.673 228.216 275.932 228.114 275.203 227.932C274.896 227.852 274.571 227.755 274.229 227.641C273.899 227.516 273.562 227.368 273.221 227.197C272.89 227.014 272.571 226.804 272.264 226.564C271.956 226.325 271.671 226.046 271.409 225.727C271.443 227.675 271.489 229.601 271.546 231.503C271.603 233.417 271.677 235.257 271.768 237.023L265.291 236.613C265.416 234.597 265.525 232.478 265.616 230.256C265.707 228.034 265.781 225.795 265.838 223.54C265.906 221.272 265.952 219.022 265.975 216.789C266.009 214.556 266.026 212.414 266.026 210.363H271.768C271.7 211.07 271.648 211.77 271.614 212.465C271.876 212.181 272.161 211.936 272.469 211.73C272.788 211.514 273.112 211.326 273.443 211.167C273.773 211.007 274.104 210.87 274.434 210.756C274.776 210.642 275.101 210.551 275.408 210.483C276.126 210.312 276.861 210.215 277.613 210.192C278.239 210.192 278.877 210.284 279.527 210.466C280.176 210.637 280.803 210.893 281.407 211.235C282.022 211.577 282.592 211.998 283.116 212.5C283.651 213.001 284.118 213.582 284.517 214.243C284.916 214.903 285.229 215.638 285.457 216.447C285.685 217.245 285.799 218.122 285.799 219.079ZM271.409 223.522C272.241 223.728 273.021 223.876 273.75 223.967C274.491 224.047 275.266 224.086 276.075 224.086C276.553 224.086 277.055 224.069 277.579 224.035C278.103 224.001 278.672 223.955 279.288 223.898C279.345 223.386 279.379 222.879 279.39 222.377C279.413 221.876 279.424 221.369 279.424 220.856C279.424 219.82 279.384 218.8 279.305 217.797C279.225 216.783 279.111 215.764 278.963 214.738C277.881 214.67 276.929 214.636 276.109 214.636C275.71 214.636 275.328 214.647 274.964 214.67C274.599 214.681 274.229 214.704 273.853 214.738C273.488 214.761 273.112 214.79 272.725 214.824C272.349 214.858 271.945 214.898 271.512 214.943C271.443 217.393 271.409 219.888 271.409 222.429V223.522ZM294.668 210.158C294.418 212.699 294.247 215.205 294.156 217.678C294.076 220.15 294.036 222.622 294.036 225.095C294.036 225.528 294.036 225.966 294.036 226.411C294.036 226.844 294.048 227.282 294.07 227.727H288.79C288.79 227.02 288.795 226.319 288.807 225.625C288.818 224.93 288.824 224.24 288.824 223.557C288.824 221.289 288.767 219.045 288.653 216.823C288.55 214.602 288.385 212.38 288.157 210.158H294.668ZM294.668 204.621C294.668 205.02 294.572 205.396 294.378 205.749C294.184 206.091 293.917 206.393 293.575 206.655C293.233 206.905 292.834 207.111 292.378 207.27C291.923 207.418 291.438 207.492 290.926 207.492C290.413 207.492 289.935 207.418 289.49 207.27C289.046 207.111 288.659 206.905 288.328 206.655C287.998 206.393 287.736 206.091 287.542 205.749C287.348 205.396 287.251 205.02 287.251 204.621C287.251 204.234 287.348 203.869 287.542 203.527C287.736 203.174 287.998 202.872 288.328 202.622C288.659 202.36 289.046 202.154 289.49 202.006C289.935 201.858 290.413 201.784 290.926 201.784C291.438 201.784 291.923 201.858 292.378 202.006C292.834 202.154 293.233 202.36 293.575 202.622C293.917 202.872 294.184 203.174 294.378 203.527C294.572 203.869 294.668 204.234 294.668 204.621ZM316.355 219.079C316.355 220.594 316.276 222.138 316.116 223.71C315.957 225.283 315.683 226.855 315.296 228.427H309.349C309.497 226.73 309.611 225.055 309.69 223.403C309.77 221.739 309.81 220.065 309.81 218.378C309.81 217.809 309.81 217.245 309.81 216.687C309.81 216.117 309.799 215.547 309.776 214.978C309.263 214.921 308.756 214.886 308.255 214.875C307.754 214.852 307.247 214.841 306.734 214.841C305.765 214.841 304.769 214.875 303.743 214.943C303.709 215.878 303.681 216.743 303.658 217.541C303.646 218.339 303.641 219.13 303.641 219.917C303.641 220.498 303.646 221.09 303.658 221.694C303.669 222.286 303.686 222.924 303.709 223.608C303.743 224.292 303.783 225.032 303.829 225.83C303.874 226.616 303.931 227.482 304 228.427H298.257C298.257 227.06 298.252 225.852 298.24 224.804C298.229 223.756 298.212 222.793 298.189 221.916C298.166 221.027 298.132 220.184 298.086 219.387C298.052 218.578 298.007 217.735 297.95 216.857C297.893 215.969 297.83 215.006 297.762 213.969C297.693 212.921 297.614 211.719 297.522 210.363L304 209.97L303.863 212.397C304.512 211.941 305.179 211.588 305.862 211.337C306.546 211.087 307.173 210.899 307.742 210.773C308.403 210.637 309.047 210.557 309.673 210.534C310.505 210.534 311.246 210.648 311.895 210.876C312.556 211.104 313.131 211.423 313.621 211.833C314.122 212.232 314.544 212.705 314.886 213.251C315.228 213.798 315.507 214.391 315.723 215.029C315.951 215.655 316.111 216.316 316.202 217.011C316.304 217.706 316.355 218.396 316.355 219.079ZM325.635 210.158C325.385 212.699 325.214 215.205 325.123 217.678C325.043 220.15 325.003 222.622 325.003 225.095C325.003 225.528 325.003 225.966 325.003 226.411C325.003 226.844 325.014 227.282 325.037 227.727H319.756C319.756 227.02 319.762 226.319 319.773 225.625C319.785 224.93 319.791 224.24 319.791 223.557C319.791 221.289 319.734 219.045 319.62 216.823C319.517 214.602 319.352 212.38 319.124 210.158H325.635ZM325.635 204.621C325.635 205.02 325.538 205.396 325.345 205.749C325.151 206.091 324.883 206.393 324.542 206.655C324.2 206.905 323.801 207.111 323.345 207.27C322.889 207.418 322.405 207.492 321.893 207.492C321.38 207.492 320.901 207.418 320.457 207.27C320.013 207.111 319.625 206.905 319.295 206.655C318.965 206.393 318.702 206.091 318.509 205.749C318.315 205.396 318.218 205.02 318.218 204.621C318.218 204.234 318.315 203.869 318.509 203.527C318.702 203.174 318.965 202.872 319.295 202.622C319.625 202.36 320.013 202.154 320.457 202.006C320.901 201.858 321.38 201.784 321.893 201.784C322.405 201.784 322.889 201.858 323.345 202.006C323.801 202.154 324.2 202.36 324.542 202.622C324.883 202.872 325.151 203.174 325.345 203.527C325.538 203.869 325.635 204.234 325.635 204.621ZM342.588 228.564C342.588 228.234 342.583 227.903 342.571 227.573C342.56 227.231 342.554 226.895 342.554 226.564C341.95 227.111 341.318 227.527 340.657 227.812C340.008 228.085 339.41 228.291 338.863 228.427C338.225 228.587 337.592 228.678 336.966 228.701C335.826 228.701 334.727 228.524 333.667 228.171C332.619 227.829 331.685 227.311 330.865 226.616C330.044 225.921 329.378 225.055 328.865 224.018C328.364 222.97 328.085 221.757 328.028 220.378C328.028 218.988 328.216 217.723 328.592 216.584C328.968 215.433 329.532 214.448 330.284 213.627C331.036 212.807 331.97 212.175 333.086 211.73C334.203 211.275 335.496 211.041 336.966 211.03C337.011 211.03 337.182 211.041 337.479 211.064C337.786 211.075 338.162 211.127 338.606 211.218C339.051 211.298 339.535 211.434 340.059 211.628C340.583 211.81 341.102 212.067 341.614 212.397L341.341 210.295L348.091 209.833C347.955 213.103 347.886 216.356 347.886 219.592C347.886 220.378 347.886 221.124 347.886 221.831C347.898 222.526 347.909 223.221 347.92 223.916C347.943 224.599 347.966 225.294 347.989 226C348.023 226.695 348.057 227.43 348.091 228.205L342.588 228.564ZM334.607 224.428C335.963 224.371 337.296 224.28 338.606 224.155C339.917 224.029 341.21 223.841 342.486 223.591C342.452 222.178 342.389 220.811 342.298 219.489C342.218 218.168 342.104 216.818 341.956 215.439H340.982C339.877 215.439 338.766 215.479 337.649 215.559C336.544 215.627 335.428 215.747 334.3 215.917C334.163 217.114 334.095 218.316 334.095 219.523C334.095 219.979 334.106 220.406 334.129 220.805C334.152 221.193 334.18 221.58 334.214 221.967C334.26 222.355 334.311 222.748 334.368 223.146C334.437 223.545 334.516 223.972 334.607 224.428ZM345.425 203.391C345.448 203.618 345.471 203.835 345.494 204.04C345.528 204.245 345.545 204.444 345.545 204.638C345.545 205.219 345.471 205.726 345.323 206.159C345.186 206.592 344.998 206.974 344.759 207.304C344.531 207.623 344.269 207.891 343.973 208.107C343.676 208.324 343.375 208.506 343.067 208.654C342.349 208.996 341.529 209.19 340.606 209.235C340.002 209.213 339.432 209.11 338.897 208.928C338.441 208.78 337.997 208.54 337.564 208.21C337.131 207.88 336.823 207.412 336.641 206.809H334.966C334.898 207.025 334.852 207.242 334.83 207.458C334.807 207.663 334.795 207.88 334.795 208.107C334.795 208.301 334.801 208.489 334.812 208.671C334.835 208.854 334.875 209.042 334.932 209.235L330.557 208.876C330.557 208.238 330.631 207.674 330.779 207.185C330.939 206.695 331.144 206.273 331.395 205.92C331.657 205.555 331.947 205.248 332.266 204.997C332.597 204.746 332.933 204.541 333.274 204.382C334.072 204.006 334.983 203.789 336.009 203.732C336.02 203.732 336.123 203.738 336.316 203.75C336.51 203.761 336.755 203.795 337.051 203.852C337.347 203.909 337.661 204 337.991 204.125C338.333 204.239 338.652 204.41 338.948 204.638C339.244 204.866 339.489 205.157 339.683 205.51C339.888 205.863 339.996 206.296 340.008 206.809H341.58C341.603 206.649 341.614 206.501 341.614 206.364C341.614 206.216 341.614 206.074 341.614 205.937C341.614 205.515 341.574 205.094 341.495 204.672C341.426 204.239 341.301 203.812 341.119 203.391H345.425ZM363.882 224.462C363.951 223.494 363.996 222.554 364.019 221.643C364.053 220.731 364.07 219.831 364.07 218.942C364.07 218.02 364.053 217.114 364.019 216.225C363.996 215.325 363.951 214.396 363.882 213.439C363.495 213.382 363.108 213.348 362.72 213.337C362.344 213.314 361.963 213.303 361.575 213.303C359.98 213.303 358.442 213.479 356.961 213.833C356.927 214.448 356.893 215.057 356.858 215.661C356.836 216.265 356.824 216.869 356.824 217.473C356.824 218.68 356.87 219.888 356.961 221.096C357.063 222.292 357.212 223.545 357.405 224.855C357.667 224.878 357.929 224.89 358.191 224.89C358.465 224.89 358.744 224.89 359.029 224.89C359.815 224.89 360.612 224.855 361.421 224.787C362.242 224.719 363.062 224.611 363.882 224.462ZM370.223 219.079C370.223 220.435 369.955 221.711 369.419 222.907C368.895 224.092 368.178 225.129 367.266 226.018C366.355 226.906 365.284 227.607 364.053 228.12C362.834 228.644 361.53 228.906 360.14 228.906C358.761 228.906 357.491 228.644 356.329 228.12C355.178 227.607 354.181 226.906 353.338 226.018C352.506 225.129 351.857 224.092 351.39 222.907C350.923 221.711 350.689 220.435 350.689 219.079C350.689 217.404 350.923 215.952 351.39 214.721C351.857 213.491 352.506 212.471 353.338 211.662C354.181 210.853 355.178 210.255 356.329 209.868C357.491 209.469 358.761 209.27 360.14 209.27C361.53 209.27 362.834 209.492 364.053 209.936C365.284 210.38 366.355 211.024 367.266 211.867C368.178 212.71 368.895 213.741 369.419 214.96C369.955 216.168 370.223 217.541 370.223 219.079Z" fill="black"/>
</svg>
